<svg width="224" height="274" viewBox="0 0 224 274" fill="none" xmlns="http://www.w3.org/2000/svg">
<path d="M8 4H4V8V166C4 223.438 50.5624 270 108 270H116C173.438 270 220 223.438 220 166V8V4H216H8Z" fill="white" stroke="black" stroke-width="8"/>
<path d="M218.334 177.036V232.333C218.334 235.251 217.175 238.049 215.113 240.112C213.05 242.174 210.252 243.333 207.334 243.333H82.6684C79.751 243.333 76.9532 242.174 74.8903 240.112C72.8274 238.049 71.6685 235.251 71.6685 232.333V177.036C71.6679 171.951 73.4294 167.022 76.6534 163.09C79.8773 159.157 84.3643 156.463 89.3509 155.467C105.429 152.249 126.668 148 126.668 148V115.001H163.335V148L184.028 152.139L200.647 155.462C205.635 156.459 210.123 159.154 213.348 163.087C216.572 167.02 218.335 171.95 218.334 177.036Z" fill="#3D4D63"/>
<path d="M218.334 177.036V232.333C218.334 235.251 217.175 238.049 215.113 240.112C213.05 242.174 210.252 243.333 207.334 243.333H82.9617C111.649 231.577 161.593 207.639 184.028 152.139L200.647 155.462C205.635 156.459 210.123 159.154 213.348 163.087C216.572 167.02 218.334 171.95 218.334 177.036Z" fill="#374559"/>
<path d="M181.668 82.0008H178.001V104.001H181.668C184.585 104.001 187.383 102.842 189.446 100.779C191.509 98.716 192.668 95.9181 192.668 93.0007C192.668 90.0834 191.509 87.2855 189.446 85.2226C187.383 83.1597 184.585 82.0008 181.668 82.0008Z" fill="#FEB784"/>
<path d="M108.518 82.0008H108.335C105.418 82.0008 102.62 83.1597 100.557 85.2226C98.4939 87.2855 97.335 90.0834 97.335 93.0007C97.335 95.9181 98.4939 98.716 100.557 100.779C102.62 102.842 105.418 104.001 108.335 104.001H112.002V82.0008H108.518Z" fill="#FEB784"/>
<path d="M178.001 78.3342C178.001 60.1089 163.227 45.3344 145.001 45.3344C126.776 45.3344 112.001 60.1089 112.001 78.3342V104.001C112.001 122.226 126.776 137.001 145.001 137.001C163.227 137.001 178.001 122.226 178.001 104.001V78.3342Z" fill="#FEC9A3"/>
<path d="M178.001 78.3342V104.001C178.001 110.377 176.155 116.617 172.685 121.966C169.215 127.315 164.271 131.545 158.449 134.145C158.652 132.661 158.753 131.165 158.751 129.667V60.0009C158.757 55.6378 157.894 51.3172 156.212 47.2914C162.593 49.6002 168.109 53.8187 172.007 59.3731C175.906 64.9275 177.999 71.5481 178.001 78.3342Z" fill="#FEB784"/>
<path d="M112.001 82.0008V63.6676C112.001 51.5172 120.21 45.3344 130.335 45.3344L129.689 47.6572C126.095 60.5968 120.039 72.3557 112.001 82.0008Z" fill="#95573A"/>
<path d="M178.001 82.0008V60.0009C178.001 47.8506 169.793 45.3344 159.668 45.3344L160.313 47.6572C163.908 60.5968 169.963 72.3557 178.001 82.0008Z" fill="#95573A"/>
<path d="M178.001 60.0009H122.406C118.674 60.0001 115.096 58.5174 112.457 55.8788C109.819 53.2402 108.336 49.6617 108.335 45.9302V44.7385C108.335 42.1918 109.027 39.6929 110.336 37.5083C111.644 35.3237 113.522 33.5353 115.767 32.3338C118.013 31.1323 120.542 30.5627 123.086 30.6858C125.63 30.8089 128.092 31.62 130.211 33.0327C132.629 34.6441 135.272 35.8904 138.053 36.7315C140.834 37.574 143.723 38.0018 146.629 38.001H156.001C161.836 38.001 167.432 40.3189 171.558 44.4447C175.683 48.5704 178.001 54.1662 178.001 60.0009Z" fill="#7A432A"/>
<path d="M178.001 82.0008V107.667C178.006 114.968 177.032 122.236 175.104 129.278L169.948 148.193C169.102 151.297 167.258 154.036 164.701 155.989C162.145 157.942 159.017 159 155.8 159H134.203C133.193 159.001 132.185 158.897 131.196 158.689C128.553 158.135 126.114 156.862 124.148 155.01C122.181 153.158 120.765 150.799 120.054 148.193L114.898 129.282C112.974 122.238 112 114.969 112.001 107.667V82.0008L117.974 100.861C118.382 102.204 119.108 103.429 120.091 104.432C121.599 105.923 123.576 106.849 125.688 107.052C127.8 107.255 129.917 106.723 131.682 105.545C133.194 104.537 134.971 104 136.788 104.001H153.215C155.032 104 156.808 104.538 158.32 105.545C158.32 105.545 159.59 106.361 159.668 106.402C164.7 109.143 171.039 106.302 172.629 100.747L178.001 82.0008Z" fill="#7A432A"/>
<path d="M178.001 82.0008V107.667C178.006 114.968 177.032 122.236 175.105 129.278L169.948 148.193C169.102 151.297 167.258 154.036 164.702 155.989C162.145 157.942 159.017 159 155.8 159H134.203C133.193 159.001 132.185 158.897 131.197 158.689C139.089 157.595 146.319 153.683 151.552 147.675C156.786 141.667 159.668 133.968 159.668 126.001V106.402C164.701 109.143 171.039 106.302 172.63 100.747L178.001 82.0008Z" fill="#743B20"/>
<path d="M156.001 104.001H134.001C128.167 104.001 122.571 106.319 118.445 110.444C114.319 114.57 112.001 120.166 112.001 126.001H123.001C127.863 126.006 132.588 124.388 136.426 121.404C138.534 119.689 141.154 118.725 143.871 118.667H146.132C148.849 118.725 151.468 119.689 153.576 121.404C157.415 124.388 162.139 126.006 167.001 126.001H178.001C178.001 120.166 175.683 114.57 171.558 110.444C167.432 106.319 161.836 104.001 156.001 104.001Z" fill="#95573A"/>
<path d="M178.001 60.0009H158.751C158.764 51.881 155.769 44.044 150.345 38.001H156.001C161.836 38.001 167.432 40.3189 171.558 44.4447C175.683 48.5704 178.001 54.1662 178.001 60.0009Z" fill="#743B20"/>
<path d="M174.335 199.334L71.6685 203V232.333C71.6685 235.251 72.8274 238.049 74.8903 240.112C76.9532 242.174 79.751 243.333 82.6684 243.333H104.668L174.335 218.833L200.001 214L218.334 221.333V192L196.335 188.334L174.335 199.334Z" fill="#FEB784"/>
<path d="M5.82546 215.172C4.24422 229.256 14.806 241.908 29.3479 243.228C43.657 244.527 56.779 233.654 57.7846 219.694C58.0836 215.219 57.1822 210.746 55.1737 206.737C53.1652 202.728 50.1224 199.328 46.3598 196.888L55.4728 174.721C58.7482 166.827 64.7532 160.375 72.3916 156.541L90.6378 98.8715C97.6733 76.6614 97.5448 52.8009 90.2707 30.6678L32.5521 192.562C19.068 192.15 7.31595 201.892 5.82546 215.172ZM20.6447 216.75C21.3157 210.773 26.8358 206.457 32.9738 207.11C39.1118 207.763 43.5443 213.139 42.8737 219.118C42.2032 225.098 36.6826 229.412 30.5446 228.758C24.4067 228.105 19.9737 222.727 20.6447 216.75Z" fill="#C7C7C5"/>
<path d="M122.846 215.173C121.356 201.891 109.6 192.152 96.1159 192.564L82.0497 153.102L38.3983 30.6678C31.1252 52.8013 30.9969 76.6616 38.0316 98.872L40.2316 105.829L56.2778 156.544C60.0809 158.46 63.5137 161.036 66.4161 164.152C69.2926 167.24 71.5903 170.82 73.1994 174.721L82.311 196.886C78.5485 199.326 75.5057 202.726 73.4969 206.736C71.4882 210.745 70.5864 215.218 70.8848 219.693C71.8931 233.653 85.0151 244.525 99.3242 243.228C113.862 241.908 124.427 229.258 122.846 215.173ZM98.128 228.754C91.9864 229.409 86.4681 225.092 85.7989 219.115C85.1297 213.139 89.5572 207.762 95.6943 207.111C101.831 206.461 107.354 210.774 108.028 216.75C108.702 222.727 104.265 228.103 98.128 228.754Z" fill="#E0E0DE"/>
<path d="M122.846 215.173C121.356 201.891 109.6 192.152 96.1157 192.564L82.0496 153.102C66.5855 139.673 52.1801 124.011 40.2314 105.829L56.2776 156.544C60.0808 158.46 63.5135 161.036 66.4159 164.152C69.2924 167.24 71.5901 170.82 73.1992 174.721L82.3108 196.886C78.5483 199.326 75.5055 202.726 73.4968 206.736C71.488 210.745 70.5863 215.218 70.8846 219.693C71.8929 233.653 85.015 244.525 99.3241 243.228C113.862 241.908 124.427 229.258 122.846 215.173ZM98.1278 228.754C91.9862 229.409 86.4679 225.092 85.7987 219.115C85.1295 213.138 89.557 207.762 95.6941 207.111C101.831 206.461 107.354 210.773 108.028 216.75C108.702 222.727 104.265 228.103 98.1278 228.754Z" fill="#D6D6D4"/>
<path d="M218.334 206.667V232.333C218.334 235.251 217.175 238.048 215.112 240.111C213.049 242.173 210.252 243.333 207.334 243.333H185.335L159.508 234.249L146.514 229.684L115.668 218.836L90.0017 214L71.6685 221.333V192L93.6683 188.334L115.668 199.334L152.289 201.951L165.865 202.918L218.334 206.667Z" fill="#FEC9A3"/>
<path d="M201.381 148.218L175.16 142.974L176.03 139.78C176.929 136.55 177.734 133.15 178.435 129.639C179.326 129.533 180.147 129.104 180.742 128.433C181.338 127.763 181.667 126.897 181.668 126.001C181.668 123.264 181.229 120.546 180.367 117.949C180.705 115.508 181.205 109.853 181.21 109.82C181.22 109.761 181.233 109.703 181.24 109.645C181.338 108.983 181.414 108.324 181.479 107.666H181.668C185.558 107.666 189.288 106.121 192.039 103.371C194.789 100.62 196.334 96.8897 196.334 92.9998C196.334 89.11 194.789 85.3795 192.039 82.629C189.288 79.8785 185.558 78.3333 181.668 78.3333V60.0009C181.668 57.2509 180.72 53.0966 180.679 52.9651C179.144 47.6028 175.906 42.8854 171.455 39.5246C167.003 36.1639 161.579 34.3422 156.001 34.3344H146.628C141.508 34.3393 136.503 32.8238 132.246 29.9803C129.575 28.1989 126.471 27.176 123.264 27.0208C120.057 26.8655 116.868 27.5836 114.037 29.0985C111.206 30.6134 108.839 32.8684 107.189 35.6228C105.539 38.3772 104.668 41.5278 104.668 44.7385V45.9302C104.666 50.2048 106.214 54.3352 109.025 57.5553C108.558 59.559 108.327 61.6102 108.335 63.6676V78.3342C104.57 78.3326 100.95 79.784 98.2296 82.3858C100.911 64.6588 99.3781 46.5494 93.7558 29.5251C93.5174 28.7988 93.0579 28.1652 92.4416 27.7129C91.8253 27.2605 91.083 27.0122 90.3186 27.0025C89.5542 26.9928 88.8059 27.2222 88.1784 27.6588C87.5508 28.0953 87.0753 28.7171 86.8186 29.4371L64.3351 92.5012L41.8517 29.4348C41.5974 28.7226 41.1291 28.1064 40.5109 27.6707C39.8927 27.235 39.1549 27.0011 38.3986 27.0011H38.3528C37.5882 27.0108 36.8458 27.2593 36.2295 27.7118C35.6131 28.1643 35.1536 28.7981 34.9153 29.5247C27.4024 52.388 27.2699 77.0352 34.5367 99.9779L47.2953 140.306L29.9562 188.934C23.4818 189.303 17.3001 191.755 12.3333 195.925C6.64949 200.662 3.013 207.41 2.18177 214.762C1.75113 218.551 2.08756 222.389 3.17104 226.046C4.25452 229.702 6.06288 233.104 8.48841 236.047C11.0084 239.137 14.1245 241.688 17.6512 243.549C21.1778 245.41 25.0429 246.542 29.0161 246.877C29.8833 246.956 30.7514 246.995 31.6204 246.995C38.7939 246.965 45.7258 244.4 51.1911 239.753C57.2535 234.604 60.8949 227.572 61.4454 219.953C61.752 215.347 60.9489 210.734 59.1037 206.503C57.2585 202.271 54.4249 198.543 50.8409 195.633L58.8649 176.113C60.1933 172.902 62.0414 169.932 64.3351 167.322C65.7334 168.912 66.9688 170.638 68.0229 172.475C68.01 172.763 68.0009 173.061 68.0009 173.374V232.333C68.0052 236.222 69.5518 239.95 72.3014 242.699C75.051 245.449 78.779 246.996 82.6674 247H104.667C105.082 247 105.493 246.93 105.884 246.792L144.993 233.033C144.993 233.033 156.701 237.26 157.826 237.547L184.115 246.792C184.507 246.93 184.919 247 185.335 247H207.334C211.223 246.996 214.951 245.449 217.7 242.699C220.45 239.95 221.997 236.222 222.001 232.333V173.374C221.988 167.447 219.929 161.706 216.172 157.123C212.415 152.539 207.19 149.394 201.381 148.218ZM196.908 192.146L214.668 195.106V202.729L180.608 200.296L196.908 192.146ZM214.668 173.374V187.674L196.937 184.719C196.173 184.592 195.388 184.71 194.695 185.056L185.335 189.734V177.334H178.001V193.401L173.408 195.698L135.251 197.057L116.656 195.727L108.335 191.568V177.334H101.002V187.901L97.769 186.284L87.0738 156.287C88.0416 155.902 89.0433 155.607 90.0658 155.408C94.5575 154.503 113.084 150.779 116.797 150.031C118.001 153.704 120.333 156.903 123.462 159.172C126.591 161.441 130.356 162.664 134.221 162.667H155.781C159.641 162.665 163.402 161.446 166.529 159.183C169.656 156.92 171.989 153.729 173.198 150.063L199.942 155.412C204.09 156.251 207.821 158.497 210.504 161.77C213.187 165.043 214.658 169.142 214.668 173.374ZM119.697 63.4609C118.463 65.9545 117.12 68.3652 115.668 70.6929V63.6676C115.668 63.2202 115.685 62.7825 115.711 62.3513C116.991 62.8766 118.33 63.2491 119.697 63.4609ZM174.335 63.6676V70.6929C172.924 68.4318 171.616 66.09 170.41 63.6676H174.335ZM134.001 107.667H156.001C160.226 107.673 164.32 109.134 167.593 111.806C170.865 114.478 173.117 118.196 173.968 122.334H167.001C162.952 122.345 159.015 120.997 155.822 118.506C153.074 116.288 149.663 115.054 146.132 115.001H143.871C140.34 115.054 136.929 116.288 134.181 118.506C130.988 120.997 127.051 122.345 123.002 122.334H116.035C116.886 118.196 119.137 114.478 122.41 111.806C125.683 109.134 129.777 107.673 134.001 107.667ZM162.294 63.6676C165.368 70.5153 169.284 76.9531 173.95 82.8318L168.614 101.511C168.225 102.057 167.741 102.528 167.185 102.901C163.7 101.207 159.876 100.329 156.001 100.334H142.756L148.48 83.1604L141.523 80.8412L135.025 100.334H134.001C130.412 100.332 126.862 101.088 123.585 102.551C122.818 102.067 122.184 101.397 121.742 100.604L116.094 82.78C120.743 76.9152 124.644 70.4951 127.709 63.6676H162.294ZM123.002 129.667C128.678 129.683 134.196 127.794 138.672 124.302C140.143 123.095 141.97 122.403 143.871 122.334H146.132C148.034 122.403 149.86 123.095 151.33 124.302C155.806 127.794 161.324 129.683 167.001 129.667H170.94C170.348 132.48 166.395 147.227 166.395 147.227C165.76 149.555 164.377 151.61 162.459 153.075C160.541 154.54 158.195 155.333 155.781 155.334H134.221C131.807 155.333 129.46 154.539 127.542 153.073C125.623 151.607 124.24 149.551 123.606 147.221C123.606 147.221 119.654 132.48 119.063 129.667H123.002ZM189.001 93.0008C188.999 94.945 188.226 96.8089 186.851 98.1836C185.476 99.5584 183.612 100.332 181.668 100.334V85.6675C183.612 85.6697 185.476 86.443 186.851 87.8178C188.226 89.1925 188.999 91.0565 189.001 93.0008ZM112.002 44.7385C112.001 42.8546 112.512 41.0059 113.479 39.3896C114.447 37.7733 115.836 36.4501 117.497 35.5612C119.158 34.6723 121.029 34.2511 122.91 34.3425C124.792 34.4339 126.614 35.0345 128.181 36.0802C133.641 39.7285 140.061 41.6732 146.628 41.6677H156.001C160.018 41.6734 163.922 42.9957 167.115 45.432C170.308 47.8684 172.614 51.2844 173.681 55.1568C173.692 55.2027 173.701 55.2485 173.709 55.2943C173.732 55.4062 173.759 55.5168 173.792 55.6262C173.849 55.815 173.898 56.0588 173.954 56.3352H122.406C119.647 56.3316 117.003 55.2341 115.053 53.2836C113.102 51.333 112.005 48.6886 112.002 45.9302V44.7385ZM108.335 85.6675V100.334C106.39 100.334 104.525 99.5614 103.149 98.1862C101.774 96.8109 101.002 94.9457 101.002 93.0008C101.002 91.0559 101.774 89.1906 103.149 87.8153C104.525 86.4401 106.39 85.6675 108.335 85.6675ZM94.1344 99.9789C94.3132 99.4128 94.4841 98.8454 94.6546 98.278C95.7228 101.04 97.6006 103.414 100.042 105.089C102.483 106.765 105.374 107.664 108.335 107.667H108.524C108.589 108.325 108.664 108.985 108.763 109.646C108.769 109.706 108.783 109.765 108.793 109.825C108.798 109.856 108.798 109.888 108.804 109.92C109.024 112.869 109.298 115.508 109.636 117.95C108.774 120.547 108.335 123.265 108.335 126.001C108.335 126.897 108.664 127.762 109.259 128.432C109.854 129.103 110.674 129.532 111.564 129.639C112.266 133.149 113.07 136.547 113.965 139.765L114.836 142.946C111.236 143.671 93.111 147.314 88.6436 148.216C87.2678 148.485 85.9182 148.873 84.6103 149.377L81.3754 140.302L94.1344 99.9789ZM89.7968 42.9212C93.7075 61.1218 92.7926 80.0285 87.1431 97.7665L77.3008 128.871L68.2259 103.42L89.7968 42.9212ZM52.0798 173.327L42.9682 195.492C42.6452 196.279 42.6058 197.154 42.8566 197.966C43.1074 198.779 43.633 199.479 44.3432 199.947C47.5558 202.034 50.1553 204.939 51.8752 208.362C53.5951 211.786 54.3734 215.605 54.1304 219.429C53.9003 222.275 53.1011 225.046 51.7803 227.577C50.4594 230.109 48.6438 232.35 46.441 234.167C44.1417 236.129 41.4768 237.618 38.5998 238.546C35.7229 239.474 32.6907 239.824 29.678 239.575C26.6777 239.324 23.7586 238.473 21.0944 237.07C18.4302 235.668 16.0754 233.744 14.1703 231.413C12.3646 229.224 11.0177 226.695 10.2099 223.976C9.4021 221.256 9.1499 218.401 9.46832 215.582C10.7246 204.374 20.8166 195.874 32.4426 196.229C33.2178 196.252 33.9803 196.029 34.6208 195.592C35.2613 195.155 35.747 194.526 36.008 193.796L50.9546 151.875L52.7815 157.65C52.9289 158.115 53.1677 158.547 53.4841 158.919C53.8005 159.291 54.1881 159.596 54.624 159.816C56.1118 160.569 57.5397 161.435 58.8952 162.406C56.0345 165.644 53.7314 169.335 52.0798 173.327ZM66.8101 159.387C64.5325 157.309 62.0199 155.503 59.3233 154.008L41.5277 97.7674C35.9081 80.0281 34.9952 61.1329 38.8785 42.9345L74.0201 141.506C74.0307 141.54 74.0421 141.573 74.054 141.606L89.629 185.291L82.029 186.558C82.029 186.558 75.5853 171.049 75.0009 169.945C73.4048 166.936 71.4215 164.15 69.1018 161.656C68.3515 160.848 67.5751 160.081 66.8101 159.387ZM75.3351 203V195.106L93.0949 192.146L114.028 202.613C114.459 202.828 148.203 205.334 148.203 205.334C146.633 207.047 145.381 209.027 144.509 211.181L138.387 209.957L136.949 217.148L143.07 218.373C143.049 220.616 143.416 222.846 144.154 224.964L116.885 215.375C116.709 215.313 116.529 215.265 116.347 215.231L90.68 210.397C89.9949 210.268 89.2872 210.337 88.64 210.596L75.3351 215.918V203ZM99.0024 239.575C98.3149 239.636 97.642 239.667 96.9724 239.667C87.1252 239.655 78.1208 233.017 75.3525 223.808L82.3984 220.99C83.1508 224.268 84.9966 227.192 87.6321 229.282C90.2677 231.371 93.5359 232.501 96.8991 232.486C97.4389 232.485 97.9784 232.457 98.5152 232.399C101.461 232.101 104.25 230.925 106.519 229.022C108.789 227.12 110.434 224.58 111.243 221.731L118.53 223.726C116.098 232.365 108.437 238.719 99.0024 239.575ZM90.3725 217.801L103.985 220.364C103.486 221.655 102.638 222.783 101.535 223.621C100.432 224.458 99.1184 224.973 97.7401 225.107C93.606 225.546 89.8875 222.678 89.4443 218.699C89.4251 218.529 89.4145 218.358 89.4077 218.187L90.3725 217.801ZM122.23 233.267C123.624 231.058 124.71 228.668 125.456 226.163L133.943 229.148L122.23 233.267ZM214.668 232.333C214.665 234.278 213.892 236.142 212.517 237.516C211.143 238.891 209.279 239.664 207.334 239.667H185.961C185.961 239.667 160.011 230.526 159.887 230.497L157.32 229.595C155.447 228.683 153.836 227.311 152.638 225.607C151.439 223.903 150.693 221.923 150.467 219.852L164.602 222.679L163.446 228.459L170.638 229.897L171.794 224.117L177.785 225.316C178.196 227.619 179.397 229.706 181.182 231.218C182.968 232.729 185.225 233.57 187.564 233.595C189.903 233.62 192.177 232.827 193.994 231.354C195.811 229.881 197.057 227.819 197.516 225.525C197.975 223.232 197.619 220.85 196.509 218.79C195.399 216.731 193.605 215.124 191.436 214.247C189.268 213.37 186.861 213.277 184.631 213.985C182.402 214.693 180.49 216.157 179.225 218.125L173.235 216.926L174.391 211.147L167.2 209.709L166.044 215.488L151.906 212.66C152.899 210.85 154.332 209.319 156.074 208.209C157.815 207.099 159.808 206.446 161.868 206.309L214.668 210.081V232.333ZM185.014 223.022C185.119 222.497 185.377 222.015 185.756 221.636C186.135 221.258 186.618 221.001 187.143 220.897C187.668 220.793 188.212 220.847 188.707 221.052C189.202 221.258 189.624 221.605 189.921 222.051C190.218 222.496 190.376 223.02 190.376 223.555C190.375 224.091 190.216 224.614 189.918 225.059C189.62 225.504 189.197 225.85 188.702 226.055C188.207 226.259 187.663 226.312 187.138 226.207C186.434 226.066 185.815 225.651 185.417 225.054C185.019 224.457 184.874 223.726 185.014 223.022Z" fill="black"/>
<path d="M123.001 87.5008C123.001 88.5886 123.324 89.6519 123.928 90.5564C124.533 91.4609 125.392 92.1658 126.397 92.5821C127.402 92.9984 128.508 93.1073 129.574 92.8951C130.641 92.6828 131.621 92.159 132.391 91.3898C133.16 90.6206 133.684 89.6406 133.896 88.5738C134.108 87.5069 133.999 86.401 133.583 85.396C133.166 84.391 132.462 83.5321 131.557 82.9277C130.653 82.3234 129.589 82.0008 128.501 82.0008C127.043 82.0024 125.645 82.5823 124.614 83.6134C123.583 84.6445 123.003 86.0426 123.001 87.5008Z" fill="black"/>
<path d="M161.501 93.0007C162.589 93.0007 163.652 92.6782 164.557 92.0738C165.461 91.4695 166.166 90.6105 166.583 89.6055C166.999 88.6005 167.108 87.4947 166.895 86.4278C166.683 85.3609 166.159 84.3809 165.39 83.6117C164.621 82.8425 163.641 82.3187 162.574 82.1065C161.507 81.8943 160.401 82.0032 159.396 82.4195C158.391 82.8357 157.532 83.5407 156.928 84.4451C156.324 85.3496 156.001 86.413 156.001 87.5008C156.003 88.959 156.583 90.357 157.614 91.3881C158.645 92.4192 160.043 92.9992 161.501 93.0007Z" fill="black"/>
<path d="M33.3621 203.463C25.2373 202.598 17.8957 208.375 16.9997 216.342C16.7858 218.225 16.9489 220.131 17.4794 221.949C18.0099 223.768 18.8973 225.463 20.0898 226.935C21.3205 228.469 22.8443 229.743 24.5723 230.682C26.3004 231.62 28.1981 232.206 30.1547 232.404C30.69 232.461 31.2279 232.489 31.7662 232.489C39.2306 232.489 45.6816 226.961 46.5158 219.526C46.7297 217.644 46.5666 215.738 46.0361 213.919C45.5055 212.1 44.6182 210.405 43.4257 208.933C42.1952 207.399 40.6717 206.126 38.9439 205.186C37.2161 204.247 35.3186 203.661 33.3621 203.463ZM39.2288 218.707C38.7828 222.677 35.0579 225.549 30.933 225.11C29.9379 225.012 28.9724 224.716 28.0927 224.241C27.213 223.766 26.4368 223.12 25.8093 222.342C25.2245 221.622 24.7888 220.793 24.5277 219.903C24.2666 219.013 24.1853 218.08 24.2885 217.158C24.7345 213.188 28.4593 210.317 32.5843 210.755C33.579 210.853 34.5442 211.148 35.4236 211.624C36.3031 212.099 37.0791 212.744 37.7066 213.522C38.292 214.242 38.7282 215.071 38.9897 215.961C39.2512 216.851 39.3328 217.785 39.2297 218.707H39.2288Z" fill="black"/>
<path d="M68.0018 137.001H60.6685V144.334H68.0018V137.001Z" fill="black"/>
</svg>
