<svg width="240" height="274" viewBox="0 0 240 274" fill="none" xmlns="http://www.w3.org/2000/svg">
<path d="M15 4H11V8V166C11 223.438 57.5624 270 115 270H123C180.438 270 227 223.438 227 166V8V4H223H15Z" fill="white" stroke="black" stroke-width="8"/>
<path d="M151.932 47.4453C151.932 47.4453 154.192 55.8397 160.7 56.2287C160.7 56.2287 152.013 59.2297 151.867 65.6459C151.867 65.6459 150.157 56.6459 143.296 56.3234C143.295 56.3234 151.286 55.1131 151.932 47.4453Z" fill="#D7E057"/>
<path d="M151.866 67.0522C151.196 67.0522 150.612 66.5769 150.485 65.9084C150.47 65.8316 148.887 57.9941 143.229 57.7278C142.507 57.6931 141.928 57.1175 141.891 56.3956C141.853 55.6728 142.37 55.041 143.084 54.9331C143.362 54.8891 149.987 53.7678 150.53 47.3263C150.587 46.6456 151.125 46.1047 151.805 46.0438C152.485 45.9847 153.11 46.4178 153.288 47.0769C153.307 47.151 155.376 54.5019 160.782 54.8253C161.452 54.8656 162 55.3728 162.091 56.0375C162.183 56.7022 161.791 57.3388 161.157 57.5581C161.081 57.5844 153.393 60.3256 153.271 65.6778C153.254 66.3969 152.698 66.9875 151.981 67.0475C151.943 67.0513 151.904 67.0522 151.866 67.0522ZM147.629 56.2456C149.604 57.4953 150.932 59.4275 151.798 61.1956C153.088 59.1031 155.093 57.5656 156.827 56.5344C154.683 55.3447 153.186 53.3938 152.195 51.6369C151.094 53.78 149.368 55.2697 147.629 56.2456Z" fill="#3A312A"/>
<path d="M203.007 144.14L205.443 184.917H213.867L217.865 108.432H200.875L202.029 127.741L203.007 144.14Z" fill="#87796F"/>
<path d="M213.867 186.323H205.444C204.7 186.323 204.084 185.743 204.04 185L201.605 144.223C201.559 143.447 202.149 142.782 202.925 142.735C203.691 142.698 204.366 143.279 204.412 144.055L206.769 183.509H212.533L216.383 109.838H202.368L203.433 127.657C203.479 128.432 202.888 129.098 202.113 129.145C201.341 129.182 200.671 128.6 200.625 127.825L199.472 108.516C199.448 108.129 199.586 107.75 199.852 107.468C200.118 107.186 200.488 107.025 200.876 107.025H217.866C218.253 107.025 218.621 107.184 218.886 107.463C219.152 107.743 219.291 108.119 219.271 108.505L215.273 184.989C215.232 185.737 214.615 186.323 213.867 186.323Z" fill="#3A312A"/>
<path d="M25.47 119.656H130.47V180.594H25.47V119.656Z" fill="#87796F"/>
<path d="M130.47 182H25.47C24.6928 182 24.0637 181.371 24.0637 180.594V119.656C24.0637 118.879 24.6928 118.25 25.47 118.25H130.47C131.247 118.25 131.876 118.879 131.876 119.656V180.594C131.876 181.371 131.247 182 130.47 182ZM26.8762 179.188H129.064V121.062H26.8762V179.188Z" fill="#3A312A"/>
<path d="M61.4625 256.549H140.528V230.974C140.528 215.393 127.91 202.774 112.31 202.774H93.6534V186.971H62.3034V202.774H43.6565C28.0565 202.774 15.4097 215.393 15.4097 230.974V256.549H44.7909H61.4625Z" fill="#F5E1C5"/>
<path d="M140.529 257.955H61.4635C60.6863 257.955 60.0572 257.326 60.0572 256.549C60.0572 255.772 60.6863 255.143 61.4635 255.143H139.123V230.974C139.123 216.2 127.095 204.18 112.311 204.18H93.6544C92.8772 204.18 92.2482 203.551 92.2482 202.774V188.377H63.7106V202.774C63.7106 203.551 63.0816 204.18 62.3044 204.18H43.6575C28.8572 204.18 16.8169 216.2 16.8169 230.974V255.143H44.7919C45.5691 255.143 46.1981 255.772 46.1981 256.549C46.1981 257.326 45.5691 257.955 44.7919 257.955H15.4106C14.6335 257.955 14.0044 257.326 14.0044 256.549V230.974C14.0044 214.649 27.3066 201.368 43.6575 201.368H60.8981V186.971C60.8981 186.193 61.5272 185.564 62.3044 185.564H93.6544C94.4316 185.564 95.0607 186.193 95.0607 186.971V201.368H112.311C128.646 201.368 141.936 214.649 141.936 230.974V256.549C141.936 257.326 141.306 257.955 140.529 257.955Z" fill="#3A312A"/>
<path d="M61.4625 256.549H140.529V230.974C140.529 215.393 127.911 202.774 112.311 202.774H91.6482L77.9607 220.933L64.2825 202.774H43.6575C28.0575 202.774 15.4106 215.393 15.4106 230.974V256.549H44.791H61.4625Z" fill="#8AC3DA"/>
<path d="M140.53 257.955H61.4635C60.6863 257.955 60.0572 257.326 60.0572 256.549C60.0572 255.772 60.6863 255.143 61.4635 255.143H139.124V230.974C139.124 216.2 127.096 204.18 112.312 204.18H92.3494L79.0838 221.78C78.8185 222.132 78.4022 222.34 77.9607 222.34C77.5191 222.34 77.1029 222.132 76.8376 221.779L63.5813 204.18H43.6585C28.8582 204.18 16.8179 216.2 16.8179 230.974V255.143H44.791C45.5682 255.143 46.1973 255.772 46.1973 256.549C46.1973 257.326 45.5682 257.955 44.791 257.955H15.4116C14.6344 257.955 14.0054 257.326 14.0054 256.549V230.974C14.0054 214.649 27.3076 201.368 43.6585 201.368H64.2835C64.7251 201.368 65.1413 201.575 65.4066 201.928L77.9616 218.597L90.526 201.928C90.7913 201.576 91.2076 201.369 91.6491 201.369H112.312C128.647 201.369 141.937 214.65 141.937 230.975V256.55C141.937 257.326 141.307 257.955 140.53 257.955Z" fill="#3A312A"/>
<path d="M77.9607 220.938L67.9107 228.498L48.5298 202.774L58.5798 195.195L77.9607 220.938Z" fill="#8AC3DA"/>
<path d="M67.9107 229.905C67.4842 229.905 67.0632 229.712 66.7867 229.346L47.4057 203.622C46.9389 203.001 47.0626 202.12 47.6823 201.652L57.7323 194.073C58.0295 193.848 58.4035 193.752 58.7748 193.803C59.1442 193.855 59.4779 194.052 59.702 194.35L79.0829 220.093C79.307 220.391 79.4045 220.766 79.352 221.135C79.2995 221.504 79.1026 221.838 78.8054 222.062L68.7554 229.623C68.5023 229.813 68.2051 229.905 67.9107 229.905ZM50.4985 203.051L68.1882 226.53L75.9911 220.66L58.3032 197.165L50.4985 203.051Z" fill="#3A312A"/>
<path d="M107.409 202.774L88.0285 228.498L77.9607 220.938L97.3594 195.195L107.409 202.774Z" fill="#8AC3DA"/>
<path d="M88.0276 229.905C87.7342 229.905 87.437 229.813 87.1839 229.623L77.1151 222.062C76.817 221.838 76.6192 221.504 76.5676 221.135C76.5151 220.765 76.6126 220.391 76.8376 220.092L96.2373 194.349C96.4614 194.051 96.7951 193.855 97.1645 193.802C97.532 193.75 97.9089 193.847 98.207 194.072L108.257 201.651C108.877 202.119 109 203 108.534 203.621L89.1526 229.345C88.8761 229.712 88.4542 229.905 88.0276 229.905ZM79.9314 220.659L87.7511 226.531L105.442 203.051L97.637 197.165L79.9314 220.659Z" fill="#3A312A"/>
<path d="M38.2764 257.961C37.4992 257.961 36.8701 257.332 36.8701 256.555V236.345C36.8701 235.568 37.4992 234.939 38.2764 234.939C39.0536 234.939 39.6826 235.568 39.6826 236.345V256.555C39.6826 257.332 39.0526 257.961 38.2764 257.961Z" fill="#3A312A"/>
<path d="M117.663 257.961C116.886 257.961 116.257 257.332 116.257 256.555V236.345C116.257 235.568 116.886 234.939 117.663 234.939C118.44 234.939 119.069 235.568 119.069 236.345V256.555C119.069 257.332 118.44 257.961 117.663 257.961Z" fill="#3A312A"/>
<path d="M139.128 230.974V255.143H125.065V230.974C125.065 219.255 117.5 209.28 107 205.652L108.115 204.18H112.315C127.1 204.18 139.128 216.199 139.128 230.974Z" fill="#6CA8BF"/>
<path d="M30.4209 145.829C36.4462 145.829 41.3306 140.947 41.3306 134.924C41.3306 128.902 36.4462 124.019 30.4209 124.019C24.3957 124.019 19.5112 128.902 19.5112 134.924C19.5112 140.947 24.3957 145.829 30.4209 145.829Z" fill="#F6E2C6"/>
<path d="M30.4209 147.235C23.6297 147.235 18.105 141.712 18.105 134.924C18.105 128.136 23.6306 122.614 30.4209 122.614C37.2122 122.614 42.7378 128.137 42.7378 134.924C42.7369 141.712 37.2122 147.235 30.4209 147.235ZM30.4209 125.426C25.1803 125.426 20.9175 129.687 20.9175 134.923C20.9175 140.161 25.1803 144.421 30.4209 144.421C35.6615 144.421 39.9253 140.16 39.9253 134.923C39.9244 129.687 35.6615 125.426 30.4209 125.426Z" fill="#3A312A"/>
<path d="M125.646 145.829C131.672 145.829 136.557 140.947 136.557 134.924C136.557 128.902 131.672 124.019 125.646 124.019C119.621 124.019 114.736 128.902 114.736 134.924C114.736 140.947 119.621 145.829 125.646 145.829Z" fill="#F6E2C6"/>
<path d="M125.646 147.235C118.855 147.235 113.33 141.712 113.33 134.924C113.33 128.136 118.855 122.614 125.646 122.614C132.438 122.614 137.963 128.137 137.963 134.924C137.963 141.712 132.439 147.235 125.646 147.235ZM125.646 125.426C120.406 125.426 116.142 129.687 116.142 134.923C116.142 140.161 120.406 144.421 125.646 144.421C130.887 144.421 135.151 140.16 135.151 134.923C135.151 129.687 130.887 125.426 125.646 125.426Z" fill="#3A312A"/>
<path d="M126.402 129.634C126.402 144.662 118.246 164.228 107.071 178.45C98.4084 189.493 87.9272 197.312 78.0365 197.312C68.2959 197.312 57.5146 188.987 48.6084 177.4C37.7428 163.272 29.6709 144.297 29.6709 129.634C29.6709 102.934 51.3178 81.2872 78.0365 81.2872C104.746 81.2872 126.402 102.934 126.402 129.634Z" fill="#F6E2C6"/>
<path d="M78.0365 198.718C68.6203 198.718 57.4875 191.26 47.4928 178.257C35.8125 163.068 28.2646 143.983 28.2646 129.634C28.2646 102.2 50.5921 79.881 78.0365 79.881C105.48 79.881 127.807 102.2 127.807 129.634C127.807 144.408 119.918 164.375 108.176 179.319C98.3643 191.828 87.66 198.718 78.0365 198.718ZM78.0365 82.6935C52.1428 82.6935 31.0771 103.751 31.0771 129.634C31.0771 143.401 38.3962 161.814 49.7231 176.542C59.1815 188.848 69.5015 195.906 78.0375 195.906C86.6512 195.906 96.8306 189.227 105.966 177.582C117.349 163.094 124.997 143.826 124.997 129.634C124.996 103.751 103.929 82.6935 78.0365 82.6935Z" fill="#3A312A"/>
<path d="M65.6784 129.085C65.6784 131.691 63.5653 133.803 60.9581 133.803C58.3509 133.803 56.2378 131.691 56.2378 129.085C56.2378 126.479 58.3509 124.366 60.9581 124.366C63.5653 124.366 65.6784 126.479 65.6784 129.085Z" fill="#3A312A"/>
<path d="M99.8305 129.085C99.8305 131.691 97.7174 133.803 95.1102 133.803C92.503 133.803 90.3899 131.691 90.3899 129.085C90.3899 126.479 92.503 124.366 95.1102 124.366C97.7165 124.366 99.8305 126.479 99.8305 129.085Z" fill="#3A312A"/>
<path d="M59.6551 143.112C59.6551 146.469 56.0139 149.188 51.5232 149.188C47.0317 149.188 43.3914 146.468 43.3914 143.112C43.3914 139.756 47.0326 137.037 51.5232 137.037C56.0148 137.037 59.6551 139.756 59.6551 143.112Z" fill="#F59689"/>
<path d="M112.676 143.112C112.676 146.469 109.036 149.188 104.544 149.188C100.054 149.188 96.4126 146.468 96.4126 143.112C96.4126 139.756 100.054 137.037 104.544 137.037C109.036 137.037 112.676 139.756 112.676 143.112Z" fill="#F59689"/>
<path d="M78.0318 170.248C71.2021 170.248 66.2793 167.181 63.3983 161.132C63.0636 160.431 63.3618 159.592 64.063 159.258C64.7633 158.923 65.6033 159.222 65.9371 159.923C68.3446 164.978 72.3008 167.435 78.0318 167.435C85.3677 167.435 89.1205 162.594 90.0796 160.033C90.3524 159.306 91.1633 158.938 91.8899 159.21C92.6174 159.483 92.9858 160.293 92.713 161.021C91.048 165.465 85.7436 170.248 78.0318 170.248Z" fill="#3A312A"/>
<path d="M134.719 109.569C134.719 114.612 134.062 119.5 132.822 124.153C120.209 118.076 108.211 110.614 97.0959 102.179C93.8353 99.7091 90.6253 97.1366 87.5587 94.4103C83.7956 91.1103 80.2369 87.5534 77.0278 83.6994C70.0444 75.2947 64.9172 65.6394 60.5793 55.5856C66.0553 53.8128 71.8997 52.8594 77.9709 52.8594C94.2037 52.8594 108.847 59.675 119.194 70.6006C128.823 80.7584 134.719 94.4712 134.719 109.569Z" fill="#87796F"/>
<path d="M132.822 125.56C132.613 125.56 132.405 125.513 132.212 125.42C119.823 119.45 107.722 112.008 96.2457 103.299C92.5857 100.527 89.4376 97.9625 86.6242 95.4613C82.6126 91.9438 79.0173 88.2866 75.946 84.5994C69.7276 77.1153 64.4345 68.0731 59.2867 56.1425C59.1301 55.7788 59.1338 55.3663 59.297 55.0053C59.4601 54.6444 59.7676 54.3697 60.1445 54.2469C65.8717 52.3925 71.8688 51.4522 77.9692 51.4522C94.1082 51.4522 109.111 57.9088 120.214 69.6331C130.475 80.4575 136.125 94.64 136.125 109.569C136.125 114.647 135.471 119.676 134.181 124.515C134.073 124.92 133.79 125.256 133.409 125.431C133.223 125.518 133.022 125.56 132.822 125.56ZM62.4976 56.466C67.3379 67.4347 72.3189 75.8319 78.1089 82.8013C81.0845 86.3741 84.5767 89.9253 88.4851 93.3528C91.2507 95.811 94.3417 98.33 97.9445 101.058C108.792 109.289 120.2 116.373 131.878 122.129C132.831 118.041 133.313 113.824 133.313 109.569C133.313 95.3628 127.936 81.8675 118.174 71.5681C107.606 60.411 93.3292 54.2656 77.971 54.2656C72.6901 54.2656 67.4926 55.0063 62.4976 56.466Z" fill="#3A312A"/>
<path d="M119.194 70.6006C109.432 79.4966 98.808 87.3687 87.5589 94.4094C67.6136 106.903 45.7408 116.764 23.3552 124.974C21.9714 120.074 21.2327 114.909 21.2327 109.569C21.2327 84.3144 37.7523 62.9141 60.5795 55.5856C66.0555 53.8128 71.8998 52.8594 77.9711 52.8594C94.2039 52.8594 108.847 59.6759 119.194 70.6006Z" fill="#87796F"/>
<path d="M23.3552 126.38C23.1349 126.38 22.9155 126.328 22.7158 126.226C22.367 126.048 22.1083 125.733 22.0024 125.356C20.5586 120.247 19.8264 114.935 19.8264 109.57C19.8264 84.2225 36.0311 61.9906 60.1492 54.2478C65.8727 52.3944 71.8698 51.455 77.9711 51.455C94.1102 51.455 109.113 57.9116 120.216 69.636C120.475 69.9097 120.614 70.2772 120.6 70.6541C120.586 71.031 120.421 71.3872 120.142 71.6422C110.76 80.1913 100.049 88.2528 88.3052 95.6038C70.0333 107.047 48.9461 117.087 23.8389 126.294C23.6824 126.352 23.5183 126.38 23.3552 126.38ZM77.9711 54.2656C72.1652 54.2656 66.4595 55.16 61.0127 56.9235C38.0589 64.2922 22.6389 85.4488 22.6389 109.569C22.6389 114.163 23.2024 118.714 24.3152 123.121C48.603 114.128 69.0583 104.339 86.8117 93.2188C97.9661 86.2372 108.173 78.6106 117.17 70.535C106.712 60.0322 92.8483 54.2656 77.9711 54.2656Z" fill="#3A312A"/>
<path d="M172.274 56.5175C172.274 56.5175 175.469 68.3853 184.67 68.9356C184.67 68.9356 172.388 73.1778 172.181 82.25C172.181 82.25 169.763 69.5263 160.064 69.0697C160.064 69.0697 171.362 67.3578 172.274 56.5175Z" fill="#D7E057"/>
<path d="M172.18 83.6554C171.512 83.6554 170.929 83.181 170.8 82.5144C170.778 82.3982 168.461 70.8735 159.998 70.475C159.276 70.4404 158.697 69.8647 158.66 69.1429C158.622 68.42 159.139 67.7882 159.853 67.6794C160.267 67.6147 170.066 65.976 170.872 56.3985C170.93 55.7188 171.467 55.1788 172.147 55.1169C172.823 55.0569 173.452 55.491 173.631 56.15C173.661 56.2588 176.686 67.0494 184.753 67.5322C185.422 67.5725 185.97 68.0797 186.062 68.7444C186.154 69.4082 185.763 70.0457 185.13 70.265C185.016 70.3044 173.769 74.3066 173.586 82.2829C173.57 83.0019 173.015 83.5916 172.298 83.6507C172.259 83.6544 172.22 83.6554 172.18 83.6554ZM164.923 68.9094C168.559 70.7554 170.764 74.2963 172.036 77.2316C173.935 73.4619 177.606 70.8688 180.426 69.3313C176.55 67.6044 174.067 64.0335 172.612 61.1544C170.932 65.241 167.671 67.5922 164.923 68.9094Z" fill="#3A312A"/>
<path d="M151.932 72.4363C151.932 72.4363 154.192 80.8307 160.7 81.2197C160.7 81.2197 152.013 84.2207 151.867 90.6369C151.867 90.6369 150.157 81.6369 143.296 81.3144C143.295 81.3153 151.286 80.1041 151.932 72.4363Z" fill="#D7E057"/>
<path d="M151.866 92.0441C151.196 92.0441 150.612 91.5688 150.485 90.9003C150.47 90.8234 148.887 82.9859 143.229 82.7197C142.507 82.685 141.928 82.1094 141.891 81.3875C141.853 80.6647 142.37 80.0328 143.084 79.9241C143.362 79.88 149.987 78.7587 150.53 72.3181C150.587 71.6375 151.125 71.0966 151.805 71.0356C152.485 70.9775 153.11 71.4097 153.288 72.0687C153.307 72.1428 155.376 79.4928 160.782 79.8162C161.452 79.8566 162 80.3647 162.091 81.0294C162.183 81.6941 161.791 82.3306 161.157 82.55C161.081 82.5762 153.393 85.3175 153.271 90.6706C153.254 91.3897 152.698 91.9803 151.981 92.0403C151.943 92.0422 151.904 92.0441 151.866 92.0441ZM147.629 81.2366C149.604 82.4862 150.932 84.4184 151.798 86.1866C153.088 84.0941 155.093 82.5566 156.828 81.5253C154.684 80.3356 153.187 78.3847 152.196 76.6278C151.094 78.7719 149.368 80.2606 147.629 81.2366Z" fill="#3A312A"/>
<path d="M196.915 253.619C214.838 245.801 223.03 224.933 215.212 207.01C207.394 189.088 186.526 180.896 168.603 188.714C150.681 196.532 142.489 217.399 150.307 235.322C158.125 253.245 178.992 261.437 196.915 253.619Z" fill="#87796F"/>
<path d="M182.614 257.955C163.237 257.955 146.967 242.747 145.895 223.169C144.786 202.91 160.366 185.526 180.625 184.417C190.44 183.874 199.874 187.196 207.193 193.756C214.512 200.316 218.839 209.334 219.376 219.148C219.913 228.961 216.597 238.397 210.038 245.716C203.478 253.036 194.461 257.363 184.647 257.9C183.967 257.937 183.288 257.955 182.614 257.955ZM182.68 187.173C182.048 187.173 181.415 187.19 180.779 187.225C171.715 187.721 163.387 191.717 157.329 198.478C151.27 205.238 148.207 213.952 148.703 223.016C149.693 241.096 164.721 255.141 182.615 255.143C183.238 255.143 183.863 255.126 184.494 255.091C193.557 254.595 201.885 250.599 207.943 243.838C214.001 237.079 217.065 228.364 216.569 219.3C216.073 210.237 212.077 201.908 205.317 195.85C199.031 190.217 191.055 187.173 182.68 187.173Z" fill="#3A312A"/>
<path d="M205.753 230.771C211.062 218.076 205.074 203.481 192.38 198.172C179.685 192.863 165.09 198.85 159.781 211.545C154.472 224.24 160.459 238.835 173.154 244.144C185.849 249.453 200.444 243.466 205.753 230.771Z" fill="#F16C7A"/>
<path d="M182.636 247.468C168.128 247.468 156.326 235.665 156.326 221.158C156.326 206.651 168.129 194.848 182.636 194.848C197.143 194.848 208.946 206.652 208.946 221.158C208.946 235.665 197.144 247.468 182.636 247.468ZM182.636 197.66C169.679 197.66 159.139 208.201 159.139 221.157C159.139 234.114 169.68 244.655 182.636 244.655C195.592 244.655 206.134 234.114 206.134 221.157C206.134 208.201 195.593 197.66 182.636 197.66Z" fill="#3A312A"/>
<path d="M209.47 89.2859C217.82 89.2859 224.589 79.9196 224.589 68.3656C224.589 56.8117 217.82 47.4453 209.47 47.4453C201.12 47.4453 194.351 56.8117 194.351 68.3656C194.351 79.9196 201.12 89.2859 209.47 89.2859Z" fill="#87796F"/>
<path d="M209.471 90.6922C200.359 90.6922 192.946 80.6759 192.946 68.3656C192.946 48.3528 202.377 46.0391 209.471 46.0391C224.034 46.0391 225.997 57.3256 225.997 68.3656C225.997 80.6769 218.583 90.6922 209.471 90.6922ZM209.471 48.8516C199.86 48.8516 195.759 54.6875 195.759 68.3656C195.759 79.1263 201.91 87.8797 209.471 87.8797C217.033 87.8797 223.184 79.1253 223.184 68.3656C223.184 56.6525 220.852 48.8516 209.471 48.8516Z" fill="#3A312A"/>
<path d="M217.865 108.433H200.874L196.626 79.4366H222.522L217.865 108.433Z" fill="#D7E057"/>
<path d="M217.865 109.839H200.874C200.176 109.839 199.584 109.327 199.483 108.636L195.235 79.64C195.176 79.236 195.295 78.8263 195.563 78.5169C195.831 78.2075 196.219 78.0303 196.627 78.0303H222.523C222.935 78.0303 223.326 78.2113 223.594 78.5244C223.861 78.8375 223.977 79.2528 223.912 79.6597L219.254 108.656C219.143 109.337 218.556 109.839 217.865 109.839ZM202.09 107.026H216.667L220.872 80.8428H198.255L202.09 107.026Z" fill="#3A312A"/>
<path d="M179.422 101.32L168.316 92.8794C166.927 91.8237 164.93 92.8137 164.93 94.5584V125.808H180.254V102.999C180.254 102.34 179.947 101.718 179.422 101.32Z" fill="#F16C7A"/>
<path d="M180.254 127.214H164.93C164.153 127.214 163.523 126.585 163.523 125.808V94.5584C163.523 93.2131 164.272 92.0066 165.477 91.4094C166.681 90.8122 168.096 90.9453 169.167 91.76L180.272 100.2C181.142 100.861 181.661 101.908 181.661 103V125.808C181.66 126.584 181.031 127.214 180.254 127.214ZM166.336 124.402H178.848V102.999C178.848 102.78 178.745 102.571 178.57 102.439H178.569L167.464 93.9978C167.151 93.7588 166.843 93.8694 166.726 93.9275C166.608 93.9856 166.335 94.1638 166.335 94.5575V124.402H166.336Z" fill="#3A312A"/>
<path d="M161.08 158.943V173.202C161.08 174.788 162.367 176.074 163.953 176.074H181.232C182.818 176.074 184.104 174.788 184.104 173.202V137.423H161.08V150.394V158.943Z" fill="#87796F"/>
<path d="M181.232 177.481H163.953C161.593 177.481 159.674 175.562 159.674 173.203V137.423C159.674 136.646 160.303 136.017 161.08 136.017H184.104C184.882 136.017 185.511 136.646 185.511 137.423V173.203C185.511 175.561 183.592 177.481 181.232 177.481ZM162.487 138.829V173.203C162.487 174.011 163.145 174.669 163.953 174.669H181.232C182.04 174.669 182.698 174.011 182.698 173.203V138.829H162.487Z" fill="#3A312A"/>
<path d="M180.244 112.092H164.804C163.212 112.092 161.922 113.39 161.922 114.992V129.094H183.127V114.991C183.127 113.39 181.836 112.092 180.244 112.092Z" fill="#87796F"/>
<path d="M183.127 130.499H161.922C161.145 130.499 160.516 129.87 160.516 129.093V114.991C160.516 112.617 162.44 110.684 164.804 110.684H180.245C182.61 110.684 184.533 112.617 184.533 114.991V129.093C184.533 129.87 183.904 130.499 183.127 130.499ZM163.328 127.687H181.72V114.991C181.72 114.167 181.058 113.497 180.245 113.497H164.804C163.99 113.497 163.328 114.167 163.328 114.991V127.687Z" fill="#3A312A"/>
<path d="M183.916 129.093H161.269C159.627 129.093 158.296 130.424 158.296 132.066V166.316C158.296 167.957 159.627 169.288 161.269 169.288H183.917C185.558 169.288 186.89 167.957 186.89 166.316V132.066C186.889 130.424 185.558 129.093 183.916 129.093Z" fill="#87796F"/>
<path d="M183.916 170.695H161.269C158.854 170.695 156.89 168.73 156.89 166.316V132.066C156.89 129.651 158.854 127.687 161.269 127.687H183.917C186.332 127.687 188.296 129.651 188.296 132.066V166.316C188.296 168.731 186.331 170.695 183.916 170.695ZM161.269 130.499C160.405 130.499 159.702 131.203 159.702 132.066V166.316C159.702 167.179 160.404 167.882 161.269 167.882H183.917C184.78 167.882 185.483 167.179 185.483 166.316V132.066C185.483 131.203 184.78 130.499 183.917 130.499H161.269Z" fill="#3A312A"/>
</svg>
