<svg width="224" height="274" viewBox="0 0 224 274" fill="none" xmlns="http://www.w3.org/2000/svg">
<path d="M8 4H4V8V166C4 223.438 50.5624 270 108 270H116C173.438 270 220 223.438 220 166V8V4H216H8Z" fill="white" stroke="black" stroke-width="8"/>
<path d="M24.5 114.75H199.5V202.25H24.5V114.75Z" fill="#C8CDED"/>
<path d="M137 127.25H187V189.75H137V127.25Z" fill="white"/>
<path d="M137 158.5V139.75H149.5V158.5" fill="#3B5892"/>
<path d="M149.5 158.5V139.75H162V158.5" fill="#F0AE42"/>
<path d="M162 158.5V139.75H174.5V158.5" fill="#4D8C28"/>
<path d="M174.5 158.5V139.75H187V158.5" fill="#A72B25"/>
<path d="M180.75 149.125V139.75H174.5V152.25H177.625C178.454 152.25 179.249 151.921 179.835 151.335C180.421 150.749 180.75 149.954 180.75 149.125Z" fill="#D23F34"/>
<path d="M155.75 149.125V139.75H149.5V152.25H152.625C153.454 152.25 154.249 151.921 154.835 151.335C155.421 150.749 155.75 149.954 155.75 149.125Z" fill="#F9D266"/>
<path d="M143.25 149.125V139.75H137V152.25H140.125C140.954 152.25 141.749 151.921 142.335 151.335C142.921 150.749 143.25 149.954 143.25 149.125Z" fill="#4C6CB5"/>
<path d="M171.375 149.125V139.75H165.125V152.25H168.25C169.079 152.25 169.874 151.921 170.46 151.335C171.046 150.749 171.375 149.954 171.375 149.125Z" fill="#559B2D"/>
<path d="M30.75 58.5H193.25V71H30.75V58.5Z" fill="#213D68"/>
<path d="M18.25 71H205.75V114.75H18.25V71Z" fill="#3B5892"/>
<path d="M37 71H55.75V114.75H37V71Z" fill="#F0AE42"/>
<path d="M74.5 71H93.25V114.75H74.5V71Z" fill="#F0AE42"/>
<path d="M112 71H130.75V114.75H112V71Z" fill="#F0AE42"/>
<path d="M149.5 71H168.25V114.75H149.5V71Z" fill="#F0AE42"/>
<path d="M187 71H205.75V114.75H187V71Z" fill="#F0AE42"/>
<path d="M196.375 102.25V71H187V105.375H193.25C194.079 105.375 194.874 105.046 195.46 104.46C196.046 103.874 196.375 103.079 196.375 102.25Z" fill="#F9D266"/>
<path d="M177.625 102.25V71H168.25V105.375H174.5C175.329 105.375 176.124 105.046 176.71 104.46C177.296 103.874 177.625 103.079 177.625 102.25Z" fill="#4C6CB5"/>
<path d="M140.125 102.25V71H130.75V105.375H137C137.829 105.375 138.624 105.046 139.21 104.46C139.796 103.874 140.125 103.079 140.125 102.25Z" fill="#4C6CB5"/>
<path d="M102.625 102.25V71H93.25V105.375H99.5C100.329 105.375 101.124 105.046 101.71 104.46C102.296 103.874 102.625 103.079 102.625 102.25Z" fill="#4C6CB5"/>
<path d="M65.125 102.25V71H55.75V105.375H62C62.8288 105.375 63.6237 105.046 64.2097 104.46C64.7958 103.874 65.125 103.079 65.125 102.25Z" fill="#4C6CB5"/>
<path d="M27.625 102.25V71H18.25V105.375H24.5C25.3288 105.375 26.1237 105.046 26.7097 104.46C27.2958 103.874 27.625 103.079 27.625 102.25Z" fill="#4C6CB5"/>
<path d="M158.875 102.25V71H149.5V105.375H155.75C156.579 105.375 157.374 105.046 157.96 104.46C158.546 103.874 158.875 103.079 158.875 102.25Z" fill="#F9D266"/>
<path d="M121.375 102.25V71H112V105.375H118.25C119.079 105.375 119.874 105.046 120.46 104.46C121.046 103.874 121.375 103.079 121.375 102.25Z" fill="#F9D266"/>
<path d="M83.875 102.25V71H74.5V105.375H80.75C81.5788 105.375 82.3737 105.046 82.9597 104.46C83.5458 103.874 83.875 103.079 83.875 102.25Z" fill="#F9D266"/>
<path d="M46.375 102.25V71H37V105.375H43.25C44.0788 105.375 44.8737 105.046 45.4597 104.46C46.0458 103.874 46.375 103.079 46.375 102.25Z" fill="#F9D266"/>
<path d="M18.25 202.25H205.75V214.75H18.25V202.25Z" fill="#213D68"/>
<path d="M18.25 202.25H199.5V208.5H18.25V202.25Z" fill="#3B5892"/>
<path d="M40.125 202.25V127.25H121.375V202.25" fill="#F2F2F2"/>
<path d="M40.125 127.25H112V192.875H40.125V127.25Z" fill="white"/>
<path d="M77.625 127.25H83.875V202.25H77.625V127.25Z" fill="#9DA1BF"/>
<path d="M137 189.75V171H149.5V189.75" fill="#3B5892"/>
<path d="M149.5 189.75V171H162V189.75" fill="#F0AE42"/>
<path d="M162 189.75V171H174.5V189.75" fill="#4D8C28"/>
<path d="M174.5 189.75V171H187V189.75" fill="#A72B25"/>
<path d="M80.75 33.5H68.25V89.75H155.75V33.5H143.25" fill="#5E87CA"/>
<path d="M112 83.5C112 81.8424 111.342 80.2527 110.169 79.0806C108.997 77.9085 107.408 77.25 105.75 77.25H80.75V27.25H105.75C107.408 27.25 108.997 27.9085 110.169 29.0806C111.342 30.2527 112 31.8424 112 33.5V83.5Z" fill="#F2F2F2"/>
<path d="M112 83.5C112 81.8424 112.658 80.2527 113.831 79.0806C115.003 77.9085 116.592 77.25 118.25 77.25H143.25V27.25H118.25C116.592 27.25 115.003 27.9085 113.831 29.0806C112.658 30.2527 112 31.8424 112 33.5V83.5Z" fill="#E2E7F6"/>
<path d="M187 158.5H165.125V127.25H158.875V158.5H137V164.75H158.875V189.75H165.125V164.75H187V158.5Z" fill="#F2F2F2"/>
<path d="M180.75 180.375V171H174.5V183.5H177.625C178.454 183.5 179.249 183.171 179.835 182.585C180.421 181.999 180.75 181.204 180.75 180.375Z" fill="#D23F34"/>
<path d="M155.75 180.375V171H149.5V183.5H152.625C153.454 183.5 154.249 183.171 154.835 182.585C155.421 181.999 155.75 181.204 155.75 180.375Z" fill="#F9D266"/>
<path d="M143.25 180.375V171H137V183.5H140.125C140.954 183.5 141.749 183.171 142.335 182.585C142.921 181.999 143.25 181.204 143.25 180.375Z" fill="#4C6CB5"/>
<path d="M171.375 180.375V171H165.125V183.5H168.25C169.079 183.5 169.874 183.171 170.46 182.585C171.046 181.999 171.375 181.204 171.375 180.375Z" fill="#559B2D"/>
<path d="M205.75 117.875C206.579 117.875 207.374 117.546 207.96 116.96C208.546 116.374 208.875 115.579 208.875 114.75V71C208.875 70.1712 208.546 69.3763 207.96 68.7903C207.374 68.2042 206.579 67.875 205.75 67.875H196.375V58.5C196.375 57.6712 196.046 56.8763 195.46 56.2903C194.874 55.7042 194.079 55.375 193.25 55.375H158.875V33.5C158.875 32.6712 158.546 31.8763 157.96 31.2903C157.374 30.7042 156.579 30.375 155.75 30.375H146.375V27.25C146.375 26.4212 146.046 25.6263 145.46 25.0403C144.874 24.4542 144.079 24.125 143.25 24.125H118.25C115.936 24.1331 113.708 25.002 112 26.5625C110.292 25.002 108.064 24.1331 105.75 24.125H80.75C79.9212 24.125 79.1263 24.4542 78.5403 25.0403C77.9542 25.6263 77.625 26.4212 77.625 27.25V30.375H68.25C67.4212 30.375 66.6263 30.7042 66.0403 31.2903C65.4542 31.8763 65.125 32.6712 65.125 33.5V55.375H30.75C29.9212 55.375 29.1263 55.7042 28.5403 56.2903C27.9542 56.8763 27.625 57.6712 27.625 58.5V67.875H18.25C17.4212 67.875 16.6263 68.2042 16.0403 68.7903C15.4542 69.3763 15.125 70.1712 15.125 71V114.75C15.125 115.579 15.4542 116.374 16.0403 116.96C16.6263 117.546 17.4212 117.875 18.25 117.875H21.375V199.125H18.25C17.4212 199.125 16.6263 199.454 16.0403 200.04C15.4542 200.626 15.125 201.421 15.125 202.25V214.75C15.125 215.579 15.4542 216.374 16.0403 216.96C16.6263 217.546 17.4212 217.875 18.25 217.875H205.75C206.579 217.875 207.374 217.546 207.96 216.96C208.546 216.374 208.875 215.579 208.875 214.75V202.25C208.875 201.421 208.546 200.626 207.96 200.04C207.374 199.454 206.579 199.125 205.75 199.125H202.625V117.875H205.75ZM202.625 111.625H190.125V74.125H202.625V111.625ZM183.875 74.125V111.625H171.375V74.125H183.875ZM190.125 61.625V67.875H158.875V61.625H190.125ZM158.875 89.75V74.125H165.125V111.625H152.625V92.875H155.75C156.579 92.875 157.374 92.5458 157.96 91.9597C158.546 91.3737 158.875 90.5788 158.875 89.75ZM90.125 92.875V111.625H77.625V92.875H90.125ZM96.375 92.875H108.875V111.625H96.375V92.875ZM115.125 92.875H127.625V111.625H115.125V92.875ZM133.875 92.875H146.375V111.625H133.875V92.875ZM118.25 30.375H140.125V74.125H118.25C117.186 74.125 116.129 74.3057 115.125 74.6594V33.5C115.125 32.6712 115.454 31.8763 116.04 31.2903C116.626 30.7042 117.421 30.375 118.25 30.375ZM83.875 30.375H105.75C106.579 30.375 107.374 30.7042 107.96 31.2903C108.546 31.8763 108.875 32.6712 108.875 33.5V74.6594C107.871 74.3057 106.814 74.125 105.75 74.125H83.875V30.375ZM71.375 36.625H77.625V77.25C77.625 78.0788 77.9542 78.8737 78.5403 79.4597C79.1263 80.0458 79.9212 80.375 80.75 80.375H105.75C106.579 80.375 107.374 80.7042 107.96 81.2903C108.546 81.8763 108.875 82.6712 108.875 83.5C108.875 84.3288 109.204 85.1237 109.79 85.7097C110.376 86.2958 111.171 86.625 112 86.625C112.829 86.625 113.624 86.2958 114.21 85.7097C114.796 85.1237 115.125 84.3288 115.125 83.5C115.125 82.6712 115.454 81.8763 116.04 81.2903C116.626 80.7042 117.421 80.375 118.25 80.375H143.25C144.079 80.375 144.874 80.0458 145.46 79.4597C146.046 78.8737 146.375 78.0788 146.375 77.25V36.625H152.625V86.625H71.375V36.625ZM71.375 92.875V111.625H58.875V74.125H65.125V89.75C65.125 90.5788 65.4542 91.3737 66.0403 91.9597C66.6263 92.5458 67.4212 92.875 68.25 92.875H71.375ZM52.625 74.125V111.625H40.125V74.125H52.625ZM33.875 61.625H65.125V67.875H33.875V61.625ZM21.375 74.125H33.875V111.625H21.375V74.125ZM202.625 211.625H21.375V205.375H202.625V211.625ZM118.25 199.125H83.875V130.375H118.25V199.125ZM77.625 199.125H43.25V130.375H77.625V199.125ZM196.375 199.125H124.5V127.25C124.5 126.421 124.171 125.626 123.585 125.04C122.999 124.454 122.204 124.125 121.375 124.125H40.125C39.2962 124.125 38.5013 124.454 37.9153 125.04C37.3292 125.626 37 126.421 37 127.25V199.125H27.625V117.875H196.375V199.125Z" fill="black"/>
<path d="M137 192.875H187C187.829 192.875 188.624 192.546 189.21 191.96C189.796 191.374 190.125 190.579 190.125 189.75V127.25C190.125 126.421 189.796 125.626 189.21 125.04C188.624 124.454 187.829 124.125 187 124.125H137C136.171 124.125 135.376 124.454 134.79 125.04C134.204 125.626 133.875 126.421 133.875 127.25V189.75C133.875 190.579 134.204 191.374 134.79 191.96C135.376 192.546 136.171 192.875 137 192.875ZM140.125 161.625H158.875V167.875H140.125V161.625ZM152.625 142.875H158.875V155.375H152.625V142.875ZM177.625 142.875H183.875V155.375H177.625V142.875ZM152.625 174.125H158.875V186.625H152.625V174.125ZM165.125 174.125H171.375V186.625H165.125V174.125ZM177.625 174.125H183.875V186.625H177.625V174.125ZM174.5 167.875H165.125V161.625H183.875V167.875H174.5ZM171.375 155.375H165.125V142.875H171.375V155.375ZM146.375 155.375H140.125V142.875H146.375V155.375ZM140.125 174.125H146.375V186.625H140.125V174.125ZM183.875 136.625H165.125V130.375H183.875V136.625ZM158.875 130.375V136.625H140.125V130.375H158.875Z" fill="black"/>
</svg>
