<svg width="1440" height="306" viewBox="0 0 1440 306" fill="none" xmlns="http://www.w3.org/2000/svg">
<g filter="url(#filter0_d)">
<path d="M-33 -4H-37V0V210.313C-37 238.859 -13.8588 262 14.6874 262C43.2336 262 66.3749 238.859 66.3749 210.313V0V-4H62.3749H-33Z" fill="#D95C47" stroke="black" stroke-width="8"/>
<path d="M62.6282 -4H58.6282V0V210.313C58.6282 238.859 81.7694 262 110.316 262C138.862 262 162.003 238.859 162.003 210.313V0V-4H158.003H62.6282Z" fill="white" stroke="black" stroke-width="8"/>
<path d="M157.75 -4H153.75V0V210.313C153.75 238.859 176.891 262 205.437 262C233.983 262 257.124 238.859 257.124 210.313V0V-4H253.124H157.75Z" fill="#D95C47" stroke="black" stroke-width="8"/>
<path d="M253.125 -4H249.125V0V210.313C249.125 238.859 272.266 262 300.812 262C329.358 262 352.499 238.859 352.499 210.313V0V-4H348.499H253.125Z" fill="white" stroke="black" stroke-width="8"/>
<path d="M348.499 -4H344.499V0V210.313C344.499 238.859 367.64 262 396.186 262C424.733 262 447.874 238.859 447.874 210.313V0V-4H443.874H348.499Z" fill="#D95C47" stroke="black" stroke-width="8"/>
<path d="M443.875 -4H439.875V0V210.313C439.875 238.859 463.016 262 491.562 262C520.108 262 543.249 238.859 543.249 210.313V0V-4H539.249H443.875Z" fill="white" stroke="black" stroke-width="8"/>
<path d="M539.249 -4H535.249V0V210.313C535.249 238.859 558.39 262 586.936 262C615.483 262 638.624 238.859 638.624 210.313V0V-4H634.624H539.249Z" fill="#D95C47" stroke="black" stroke-width="8"/>
<path d="M634.624 -4H630.624V0V210.313C630.624 238.859 653.765 262 682.311 262C710.858 262 733.999 238.859 733.999 210.313V0V-4H729.999H634.624Z" fill="white" stroke="black" stroke-width="8"/>
<path d="M729.999 -4H725.999V0V210.313C725.999 238.859 749.14 262 777.686 262C806.233 262 829.374 238.859 829.374 210.313V0V-4H825.374H729.999Z" fill="#D95C47" stroke="black" stroke-width="8"/>
<path d="M825.374 -4H821.374V0V210.313C821.374 238.859 844.515 262 873.061 262C901.607 262 924.749 238.859 924.749 210.313V0V-4H920.749H825.374Z" fill="white" stroke="black" stroke-width="8"/>
<path d="M920.749 -4H916.749V0V210.313C916.749 238.859 939.89 262 968.436 262C996.982 262 1020.12 238.859 1020.12 210.313V0V-4H1016.12H920.749Z" fill="#D95C47" stroke="black" stroke-width="8"/>
<path d="M1016.12 -4H1012.12V0V210.313C1012.12 238.859 1035.27 262 1063.81 262C1092.36 262 1115.5 238.859 1115.5 210.313V0V-4H1111.5H1016.12Z" fill="white" stroke="black" stroke-width="8"/>
<path d="M1111.5 -4H1107.5V0V210.313C1107.5 238.859 1130.64 262 1159.19 262C1187.73 262 1210.87 238.859 1210.87 210.313V0V-4H1206.87H1111.5Z" fill="#D95C47" stroke="black" stroke-width="8"/>
<path d="M1207.76 -4H1203.76V0V210.313C1203.76 238.859 1226.9 262 1255.45 262C1284 262 1307.14 238.859 1307.14 210.313V0V-4H1303.14H1207.76Z" fill="white" stroke="black" stroke-width="8"/>
<path d="M1293.25 -4H1289.25V0V210.313C1289.25 238.859 1312.39 262 1340.94 262C1369.48 262 1392.62 238.859 1392.62 210.313V0V-4H1388.62H1293.25Z" fill="#D95C47" stroke="black" stroke-width="8"/>
<path d="M1388.62 -4H1384.62V0V210.313C1384.62 238.859 1407.77 262 1436.31 262C1464.86 262 1488 238.859 1488 210.313V0V-4H1484H1388.62Z" fill="white" stroke="black" stroke-width="8"/>
</g>
<defs>
<filter id="filter0_d" x="-41" y="-8" width="1533" height="314" filterUnits="userSpaceOnUse" color-interpolation-filters="sRGB">
<feFlood flood-opacity="0" result="BackgroundImageFix"/>
<feColorMatrix in="SourceAlpha" type="matrix" values="0 0 0 0 0 0 0 0 0 0 0 0 0 0 0 0 0 0 127 0"/>
<feOffset dy="40"/>
<feColorMatrix type="matrix" values="0 0 0 0 0 0 0 0 0 0 0 0 0 0 0 0 0 0 0.15 0"/>
<feBlend mode="normal" in2="BackgroundImageFix" result="effect1_dropShadow"/>
<feBlend mode="normal" in="SourceGraphic" in2="effect1_dropShadow" result="shape"/>
</filter>
</defs>
</svg>
