<svg width="1291" height="953" viewBox="0 0 1291 953" fill="none" xmlns="http://www.w3.org/2000/svg">
<g filter="url(#filter0_d)">
<path d="M0 22C0 9.84976 9.84973 0 22 0H1259C1271.15 0 1281 9.84974 1281 22V745H0V22Z" fill="white"/>
<path d="M10 22C10 15.3726 15.3726 10 22 10H1259C1265.63 10 1271 15.3726 1271 22V735H10V22Z" stroke="black" stroke-width="20"/>
</g>
<g filter="url(#filter1_d)">
<path d="M557 810H725.5L766 930H516L557 810Z" fill="black"/>
</g>
<g filter="url(#filter2_d)">
<rect x="438" y="925" width="400" height="25" rx="5" fill="#BCBCBC"/>
</g>
<g filter="url(#filter3_d)">
<path d="M0 745H1281V815C1281 827.15 1271.15 837 1259 837H22C9.84971 837 0 827.15 0 815V745Z" fill="#BCBCBC"/>
</g>
<path d="M140.076 117H126.756L112.656 95.64V117H99.3359V74.52H112.656L126.756 96.24V74.52H140.076V117ZM178.854 99.78C178.854 100.7 178.794 101.58 178.674 102.42H157.254C157.454 105.34 158.674 106.8 160.914 106.8C162.354 106.8 163.394 106.14 164.034 104.82H178.134C177.654 107.22 176.634 109.38 175.074 111.3C173.554 113.18 171.614 114.68 169.254 115.8C166.934 116.88 164.374 117.42 161.574 117.42C158.214 117.42 155.214 116.72 152.574 115.32C149.974 113.92 147.934 111.92 146.454 109.32C145.014 106.68 144.294 103.6 144.294 100.08C144.294 96.56 145.014 93.5 146.454 90.9C147.934 88.26 149.974 86.24 152.574 84.84C155.214 83.44 158.214 82.74 161.574 82.74C164.934 82.74 167.914 83.44 170.514 84.84C173.154 86.2 175.194 88.16 176.634 90.72C178.114 93.28 178.854 96.3 178.854 99.78ZM165.354 96.6C165.354 95.48 164.994 94.64 164.274 94.08C163.554 93.48 162.654 93.18 161.574 93.18C159.214 93.18 157.834 94.32 157.434 96.6H165.354ZM181.266 100.08C181.266 96.52 181.866 93.44 183.066 90.84C184.306 88.2 185.986 86.2 188.106 84.84C190.226 83.44 192.606 82.74 195.246 82.74C197.446 82.74 199.346 83.2 200.946 84.12C202.546 85 203.766 86.22 204.606 87.78V83.16H217.866V117H204.606V112.38C203.766 113.94 202.546 115.18 200.946 116.1C199.346 116.98 197.446 117.42 195.246 117.42C192.606 117.42 190.226 116.74 188.106 115.38C185.986 113.98 184.306 111.98 183.066 109.38C181.866 106.74 181.266 103.64 181.266 100.08ZM204.606 100.08C204.606 98.28 204.146 96.88 203.226 95.88C202.306 94.88 201.126 94.38 199.686 94.38C198.246 94.38 197.066 94.88 196.146 95.88C195.226 96.88 194.766 98.28 194.766 100.08C194.766 101.88 195.226 103.28 196.146 104.28C197.066 105.28 198.246 105.78 199.686 105.78C201.126 105.78 202.306 105.28 203.226 104.28C204.146 103.28 204.606 101.88 204.606 100.08ZM237.168 89.4C238.528 87.44 240.188 85.88 242.148 84.72C244.108 83.52 246.148 82.92 248.268 82.92V97.14H244.488C241.968 97.14 240.108 97.58 238.908 98.46C237.748 99.34 237.168 100.9 237.168 103.14V117H223.848V83.16H237.168V89.4ZM292.655 74.52L277.415 104.1V117H264.095V104.1L248.855 74.52H264.095L270.875 89.58L277.655 74.52H292.655ZM311.764 117.42C308.364 117.42 305.304 116.72 302.584 115.32C299.864 113.92 297.724 111.92 296.164 109.32C294.644 106.68 293.884 103.6 293.884 100.08C293.884 96.56 294.644 93.5 296.164 90.9C297.724 88.26 299.864 86.24 302.584 84.84C305.304 83.44 308.364 82.74 311.764 82.74C315.164 82.74 318.224 83.44 320.944 84.84C323.664 86.24 325.784 88.26 327.304 90.9C328.864 93.5 329.644 96.56 329.644 100.08C329.644 103.6 328.864 106.68 327.304 109.32C325.784 111.92 323.664 113.92 320.944 115.32C318.224 116.72 315.164 117.42 311.764 117.42ZM311.764 105.9C313.004 105.9 314.044 105.42 314.884 104.46C315.724 103.46 316.144 102 316.144 100.08C316.144 98.16 315.724 96.72 314.884 95.76C314.044 94.76 313.004 94.26 311.764 94.26C310.524 94.26 309.484 94.76 308.644 95.76C307.804 96.72 307.384 98.16 307.384 100.08C307.384 102 307.784 103.46 308.584 104.46C309.424 105.42 310.484 105.9 311.764 105.9ZM369.648 83.16V117H356.328V111.84C355.288 113.44 353.888 114.74 352.128 115.74C350.408 116.74 348.348 117.24 345.948 117.24C342.068 117.24 339.028 115.94 336.828 113.34C334.668 110.74 333.588 107.22 333.588 102.78V83.16H346.848V101.1C346.848 102.7 347.268 103.98 348.108 104.94C348.988 105.86 350.148 106.32 351.588 106.32C353.068 106.32 354.228 105.86 355.068 104.94C355.908 103.98 356.328 102.7 356.328 101.1V83.16H369.648Z" fill="black"/>
<path d="M647 800C654.083 792.917 654.083 781.458 647 774.583L621.583 800C628.458 807.083 639.917 807.083 647 800ZM646.167 780.417C647.417 780.417 648.25 781.25 648.25 782.5C648.25 783.75 647.417 784.583 646.167 784.583C644.917 784.583 644.083 783.75 644.083 782.5C644.083 781.25 644.917 780.417 646.167 780.417ZM646.167 788.75C647.417 788.75 648.25 789.583 648.25 790.833C648.25 792.083 647.417 792.917 646.167 792.917C644.917 792.917 644.083 792.083 644.083 790.833C644.083 789.583 644.917 788.75 646.167 788.75ZM637.833 788.75C639.083 788.75 639.917 789.583 639.917 790.833C639.917 792.083 639.083 792.917 637.833 792.917C636.583 792.917 635.75 792.083 635.75 790.833C635.75 789.583 636.583 788.75 637.833 788.75ZM637.833 797.083C639.083 797.083 639.917 797.917 639.917 799.167C639.917 800.417 639.083 801.25 637.833 801.25C636.583 801.25 635.75 800.417 635.75 799.167C635.75 797.917 636.583 797.083 637.833 797.083ZM629.5 801.25C628.25 801.25 627.417 800.417 627.417 799.167C627.417 797.917 628.25 797.083 629.5 797.083C630.75 797.083 631.583 797.917 631.583 799.167C631.583 800.417 630.75 801.25 629.5 801.25ZM651.583 804.583C642 814.167 626.583 814.167 617 804.583L619.917 801.667C627.833 809.583 640.542 809.583 648.458 801.667C656.375 793.75 656.375 781.042 648.458 773.125L651.583 770C660.958 779.583 660.958 795 651.583 804.583Z" fill="black"/>
<defs>
<filter id="filter0_d" x="0" y="0" width="1291" height="755" filterUnits="userSpaceOnUse" color-interpolation-filters="sRGB">
<feFlood flood-opacity="0" result="BackgroundImageFix"/>
<feColorMatrix in="SourceAlpha" type="matrix" values="0 0 0 0 0 0 0 0 0 0 0 0 0 0 0 0 0 0 127 0"/>
<feOffset dx="10" dy="10"/>
<feColorMatrix type="matrix" values="0 0 0 0 0 0 0 0 0 0 0 0 0 0 0 0 0 0 0.15 0"/>
<feBlend mode="normal" in2="BackgroundImageFix" result="effect1_dropShadow"/>
<feBlend mode="normal" in="SourceGraphic" in2="effect1_dropShadow" result="shape"/>
</filter>
<filter id="filter1_d" x="516" y="810" width="260" height="130" filterUnits="userSpaceOnUse" color-interpolation-filters="sRGB">
<feFlood flood-opacity="0" result="BackgroundImageFix"/>
<feColorMatrix in="SourceAlpha" type="matrix" values="0 0 0 0 0 0 0 0 0 0 0 0 0 0 0 0 0 0 127 0"/>
<feOffset dx="10" dy="10"/>
<feColorMatrix type="matrix" values="0 0 0 0 0 0 0 0 0 0 0 0 0 0 0 0 0 0 0.15 0"/>
<feBlend mode="normal" in2="BackgroundImageFix" result="effect1_dropShadow"/>
<feBlend mode="normal" in="SourceGraphic" in2="effect1_dropShadow" result="shape"/>
</filter>
<filter id="filter2_d" x="438" y="925" width="410" height="35" filterUnits="userSpaceOnUse" color-interpolation-filters="sRGB">
<feFlood flood-opacity="0" result="BackgroundImageFix"/>
<feColorMatrix in="SourceAlpha" type="matrix" values="0 0 0 0 0 0 0 0 0 0 0 0 0 0 0 0 0 0 127 0"/>
<feOffset dx="10" dy="10"/>
<feColorMatrix type="matrix" values="0 0 0 0 0 0 0 0 0 0 0 0 0 0 0 0 0 0 0.15 0"/>
<feBlend mode="normal" in2="BackgroundImageFix" result="effect1_dropShadow"/>
<feBlend mode="normal" in="SourceGraphic" in2="effect1_dropShadow" result="shape"/>
</filter>
<filter id="filter3_d" x="0" y="745" width="1291" height="102" filterUnits="userSpaceOnUse" color-interpolation-filters="sRGB">
<feFlood flood-opacity="0" result="BackgroundImageFix"/>
<feColorMatrix in="SourceAlpha" type="matrix" values="0 0 0 0 0 0 0 0 0 0 0 0 0 0 0 0 0 0 127 0"/>
<feOffset dx="10" dy="10"/>
<feColorMatrix type="matrix" values="0 0 0 0 0 0 0 0 0 0 0 0 0 0 0 0 0 0 0.15 0"/>
<feBlend mode="normal" in2="BackgroundImageFix" result="effect1_dropShadow"/>
<feBlend mode="normal" in="SourceGraphic" in2="effect1_dropShadow" result="shape"/>
</filter>
</defs>
</svg>
