<svg width="1288" height="949" viewBox="0 0 1288 949" fill="none" xmlns="http://www.w3.org/2000/svg">
<g filter="url(#filter0_d)">
<rect x="13" y="13" width="1257" height="711" rx="10" fill="white"/>
<rect x="13" y="13" width="1257" height="711" rx="10" stroke="black" stroke-width="25"/>
</g>
<ellipse cx="638.5" cy="807.5" rx="243.5" ry="41.5" fill="black"/>
<rect x="583" y="724" width="107" height="66" fill="black"/>
<rect x="110" y="800" width="1064" height="149" rx="10" fill="black"/>
<path d="M132.643 96.78C132.643 97.7 132.583 98.58 132.463 99.42H111.043C111.243 102.34 112.463 103.8 114.703 103.8C116.143 103.8 117.183 103.14 117.823 101.82H131.923C131.443 104.22 130.423 106.38 128.863 108.3C127.343 110.18 125.403 111.68 123.043 112.8C120.723 113.88 118.163 114.42 115.363 114.42C112.003 114.42 109.003 113.72 106.363 112.32C103.763 110.92 101.723 108.92 100.243 106.32C98.8028 103.68 98.0828 100.6 98.0828 97.08C98.0828 93.56 98.8028 90.5 100.243 87.9C101.723 85.26 103.763 83.24 106.363 81.84C109.003 80.44 112.003 79.74 115.363 79.74C118.723 79.74 121.703 80.44 124.303 81.84C126.943 83.2 128.983 85.16 130.423 87.72C131.903 90.28 132.643 93.3 132.643 96.78ZM119.143 93.6C119.143 92.48 118.783 91.64 118.063 91.08C117.343 90.48 116.443 90.18 115.363 90.18C113.003 90.18 111.623 91.32 111.223 93.6H119.143ZM153.475 114.42C148.395 114.42 144.195 113.24 140.875 110.88C137.595 108.48 135.815 104.98 135.535 100.38H149.695C149.895 102.82 150.975 104.04 152.935 104.04C153.655 104.04 154.255 103.88 154.735 103.56C155.255 103.2 155.515 102.66 155.515 101.94C155.515 100.94 154.975 100.14 153.895 99.54C152.815 98.9 151.135 98.18 148.855 97.38C146.135 96.42 143.875 95.48 142.075 94.56C140.315 93.64 138.795 92.3 137.515 90.54C136.235 88.78 135.615 86.52 135.655 83.76C135.655 81 136.355 78.66 137.755 76.74C139.195 74.78 141.135 73.3 143.575 72.3C146.055 71.3 148.835 70.8 151.915 70.8C157.115 70.8 161.235 72 164.275 74.4C167.355 76.8 168.975 80.18 169.135 84.54H154.795C154.755 83.34 154.455 82.48 153.895 81.96C153.335 81.44 152.655 81.18 151.855 81.18C151.295 81.18 150.835 81.38 150.475 81.78C150.115 82.14 149.935 82.66 149.935 83.34C149.935 84.3 150.455 85.1 151.495 85.74C152.575 86.34 154.275 87.08 156.595 87.96C159.275 88.96 161.475 89.92 163.195 90.84C164.955 91.76 166.475 93.04 167.755 94.68C169.035 96.32 169.675 98.38 169.675 100.86C169.675 103.46 169.035 105.8 167.755 107.88C166.475 109.92 164.615 111.52 162.175 112.68C159.735 113.84 156.835 114.42 153.475 114.42ZM198.055 79.92C201.935 79.92 204.955 81.22 207.115 83.82C209.315 86.42 210.415 89.94 210.415 94.38V114H197.155V96.06C197.155 94.46 196.715 93.2 195.835 92.28C194.995 91.32 193.855 90.84 192.415 90.84C190.935 90.84 189.775 91.32 188.935 92.28C188.095 93.2 187.675 94.46 187.675 96.06V114H174.355V69.6H187.675V85.32C188.715 83.72 190.095 82.42 191.815 81.42C193.575 80.42 195.655 79.92 198.055 79.92ZM232.271 114.42C228.871 114.42 225.811 113.72 223.091 112.32C220.371 110.92 218.231 108.92 216.671 106.32C215.151 103.68 214.391 100.6 214.391 97.08C214.391 93.56 215.151 90.5 216.671 87.9C218.231 85.26 220.371 83.24 223.091 81.84C225.811 80.44 228.871 79.74 232.271 79.74C235.671 79.74 238.731 80.44 241.451 81.84C244.171 83.24 246.291 85.26 247.811 87.9C249.371 90.5 250.151 93.56 250.151 97.08C250.151 100.6 249.371 103.68 247.811 106.32C246.291 108.92 244.171 110.92 241.451 112.32C238.731 113.72 235.671 114.42 232.271 114.42ZM232.271 102.9C233.511 102.9 234.551 102.42 235.391 101.46C236.231 100.46 236.651 99 236.651 97.08C236.651 95.16 236.231 93.72 235.391 92.76C234.551 91.76 233.511 91.26 232.271 91.26C231.031 91.26 229.991 91.76 229.151 92.76C228.311 93.72 227.891 95.16 227.891 97.08C227.891 99 228.291 100.46 229.091 101.46C229.931 102.42 230.991 102.9 232.271 102.9ZM267.656 84.78C268.496 83.22 269.696 82 271.256 81.12C272.856 80.2 274.756 79.74 276.956 79.74C279.596 79.74 281.976 80.44 284.096 81.84C286.216 83.2 287.876 85.2 289.076 87.84C290.316 90.44 290.936 93.52 290.936 97.08C290.936 100.64 290.316 103.74 289.076 106.38C287.876 108.98 286.216 110.98 284.096 112.38C281.976 113.74 279.596 114.42 276.956 114.42C274.756 114.42 272.856 113.98 271.256 113.1C269.696 112.18 268.496 110.94 267.656 109.38V130.2H254.336V80.16H267.656V84.78ZM277.436 97.08C277.436 95.28 276.976 93.88 276.056 92.88C275.136 91.88 273.956 91.38 272.516 91.38C271.076 91.38 269.896 91.88 268.976 92.88C268.056 93.88 267.596 95.28 267.596 97.08C267.596 98.88 268.056 100.28 268.976 101.28C269.896 102.28 271.076 102.78 272.516 102.78C273.956 102.78 275.136 102.28 276.056 101.28C276.976 100.28 277.436 98.88 277.436 97.08Z" fill="black"/>
<path d="M574.643 878.78C574.643 879.7 574.583 880.58 574.463 881.42H553.043C553.243 884.34 554.463 885.8 556.703 885.8C558.143 885.8 559.183 885.14 559.823 883.82H573.923C573.443 886.22 572.423 888.38 570.863 890.3C569.343 892.18 567.403 893.68 565.043 894.8C562.723 895.88 560.163 896.42 557.363 896.42C554.003 896.42 551.003 895.72 548.363 894.32C545.763 892.92 543.723 890.92 542.243 888.32C540.803 885.68 540.083 882.6 540.083 879.08C540.083 875.56 540.803 872.5 542.243 869.9C543.723 867.26 545.763 865.24 548.363 863.84C551.003 862.44 554.003 861.74 557.363 861.74C560.723 861.74 563.703 862.44 566.303 863.84C568.943 865.2 570.983 867.16 572.423 869.72C573.903 872.28 574.643 875.3 574.643 878.78ZM561.143 875.6C561.143 874.48 560.783 873.64 560.063 873.08C559.343 872.48 558.443 872.18 557.363 872.18C555.003 872.18 553.623 873.32 553.223 875.6H561.143ZM595.475 896.42C590.395 896.42 586.195 895.24 582.875 892.88C579.595 890.48 577.815 886.98 577.535 882.38H591.695C591.895 884.82 592.975 886.04 594.935 886.04C595.655 886.04 596.255 885.88 596.735 885.56C597.255 885.2 597.515 884.66 597.515 883.94C597.515 882.94 596.975 882.14 595.895 881.54C594.815 880.9 593.135 880.18 590.855 879.38C588.135 878.42 585.875 877.48 584.075 876.56C582.315 875.64 580.795 874.3 579.515 872.54C578.235 870.78 577.615 868.52 577.655 865.76C577.655 863 578.355 860.66 579.755 858.74C581.195 856.78 583.135 855.3 585.575 854.3C588.055 853.3 590.835 852.8 593.915 852.8C599.115 852.8 603.235 854 606.275 856.4C609.355 858.8 610.975 862.18 611.135 866.54H596.795C596.755 865.34 596.455 864.48 595.895 863.96C595.335 863.44 594.655 863.18 593.855 863.18C593.295 863.18 592.835 863.38 592.475 863.78C592.115 864.14 591.935 864.66 591.935 865.34C591.935 866.3 592.455 867.1 593.495 867.74C594.575 868.34 596.275 869.08 598.595 869.96C601.275 870.96 603.475 871.92 605.195 872.84C606.955 873.76 608.475 875.04 609.755 876.68C611.035 878.32 611.675 880.38 611.675 882.86C611.675 885.46 611.035 887.8 609.755 889.88C608.475 891.92 606.615 893.52 604.175 894.68C601.735 895.84 598.835 896.42 595.475 896.42ZM640.055 861.92C643.935 861.92 646.955 863.22 649.115 865.82C651.315 868.42 652.415 871.94 652.415 876.38V896H639.155V878.06C639.155 876.46 638.715 875.2 637.835 874.28C636.995 873.32 635.855 872.84 634.415 872.84C632.935 872.84 631.775 873.32 630.935 874.28C630.095 875.2 629.675 876.46 629.675 878.06V896H616.355V851.6H629.675V867.32C630.715 865.72 632.095 864.42 633.815 863.42C635.575 862.42 637.655 861.92 640.055 861.92ZM674.271 896.42C670.871 896.42 667.811 895.72 665.091 894.32C662.371 892.92 660.231 890.92 658.671 888.32C657.151 885.68 656.391 882.6 656.391 879.08C656.391 875.56 657.151 872.5 658.671 869.9C660.231 867.26 662.371 865.24 665.091 863.84C667.811 862.44 670.871 861.74 674.271 861.74C677.671 861.74 680.731 862.44 683.451 863.84C686.171 865.24 688.291 867.26 689.811 869.9C691.371 872.5 692.151 875.56 692.151 879.08C692.151 882.6 691.371 885.68 689.811 888.32C688.291 890.92 686.171 892.92 683.451 894.32C680.731 895.72 677.671 896.42 674.271 896.42ZM674.271 884.9C675.511 884.9 676.551 884.42 677.391 883.46C678.231 882.46 678.651 881 678.651 879.08C678.651 877.16 678.231 875.72 677.391 874.76C676.551 873.76 675.511 873.26 674.271 873.26C673.031 873.26 671.991 873.76 671.151 874.76C670.311 875.72 669.891 877.16 669.891 879.08C669.891 881 670.291 882.46 671.091 883.46C671.931 884.42 672.991 884.9 674.271 884.9ZM709.656 866.78C710.496 865.22 711.696 864 713.256 863.12C714.856 862.2 716.756 861.74 718.956 861.74C721.596 861.74 723.976 862.44 726.096 863.84C728.216 865.2 729.876 867.2 731.076 869.84C732.316 872.44 732.936 875.52 732.936 879.08C732.936 882.64 732.316 885.74 731.076 888.38C729.876 890.98 728.216 892.98 726.096 894.38C723.976 895.74 721.596 896.42 718.956 896.42C716.756 896.42 714.856 895.98 713.256 895.1C711.696 894.18 710.496 892.94 709.656 891.38V912.2H696.336V862.16H709.656V866.78ZM719.436 879.08C719.436 877.28 718.976 875.88 718.056 874.88C717.136 873.88 715.956 873.38 714.516 873.38C713.076 873.38 711.896 873.88 710.976 874.88C710.056 875.88 709.596 877.28 709.596 879.08C709.596 880.88 710.056 882.28 710.976 883.28C711.896 884.28 713.076 884.78 714.516 884.78C715.956 884.78 717.136 884.28 718.056 883.28C718.976 882.28 719.436 880.88 719.436 879.08Z" fill="#FFFFF3"/>
<defs>
<filter id="filter0_d" x="0.5" y="0.5" width="1287" height="741" filterUnits="userSpaceOnUse" color-interpolation-filters="sRGB">
<feFlood flood-opacity="0" result="BackgroundImageFix"/>
<feColorMatrix in="SourceAlpha" type="matrix" values="0 0 0 0 0 0 0 0 0 0 0 0 0 0 0 0 0 0 127 0"/>
<feOffset dx="5" dy="5"/>
<feColorMatrix type="matrix" values="0 0 0 0 0 0 0 0 0 0 0 0 0 0 0 0 0 0 0.15 0"/>
<feBlend mode="normal" in2="BackgroundImageFix" result="effect1_dropShadow"/>
<feBlend mode="normal" in="SourceGraphic" in2="effect1_dropShadow" result="shape"/>
</filter>
</defs>
</svg>
