<svg width="1291" height="953" viewBox="0 0 1291 953" fill="none" xmlns="http://www.w3.org/2000/svg">
<g filter="url(#filter0_d)">
<path d="M0 22C0 9.84976 9.84973 0 22 0H1259C1271.15 0 1281 9.84974 1281 22V745H0V22Z" fill="white"/>
<path d="M10 22C10 15.3726 15.3726 10 22 10H1259C1265.63 10 1271 15.3726 1271 22V735H10V22Z" stroke="black" stroke-width="20"/>
</g>
<path d="M557 810H725.5L766 930H516L557 810Z" fill="black"/>
<g filter="url(#filter1_d)">
<rect x="438" y="925" width="400" height="25" rx="5" fill="#BCBCBC"/>
</g>
<g filter="url(#filter2_d)">
<path d="M0 745H1281V815C1281 827.15 1271.15 837 1259 837H22C9.84971 837 0 827.15 0 815V745Z" fill="#BCBCBC"/>
</g>
<path d="M131.643 100.78C131.643 101.7 131.583 102.58 131.463 103.42H110.043C110.243 106.34 111.463 107.8 113.703 107.8C115.143 107.8 116.183 107.14 116.823 105.82H130.923C130.443 108.22 129.423 110.38 127.863 112.3C126.343 114.18 124.403 115.68 122.043 116.8C119.723 117.88 117.163 118.42 114.363 118.42C111.003 118.42 108.003 117.72 105.363 116.32C102.763 114.92 100.723 112.92 99.2428 110.32C97.8028 107.68 97.0828 104.6 97.0828 101.08C97.0828 97.56 97.8028 94.5 99.2428 91.9C100.723 89.26 102.763 87.24 105.363 85.84C108.003 84.44 111.003 83.74 114.363 83.74C117.723 83.74 120.703 84.44 123.303 85.84C125.943 87.2 127.983 89.16 129.423 91.72C130.903 94.28 131.643 97.3 131.643 100.78ZM118.143 97.6C118.143 96.48 117.783 95.64 117.063 95.08C116.343 94.48 115.443 94.18 114.363 94.18C112.003 94.18 110.623 95.32 110.223 97.6H118.143ZM152.475 118.42C147.395 118.42 143.195 117.24 139.875 114.88C136.595 112.48 134.815 108.98 134.535 104.38H148.695C148.895 106.82 149.975 108.04 151.935 108.04C152.655 108.04 153.255 107.88 153.735 107.56C154.255 107.2 154.515 106.66 154.515 105.94C154.515 104.94 153.975 104.14 152.895 103.54C151.815 102.9 150.135 102.18 147.855 101.38C145.135 100.42 142.875 99.48 141.075 98.56C139.315 97.64 137.795 96.3 136.515 94.54C135.235 92.78 134.615 90.52 134.655 87.76C134.655 85 135.355 82.66 136.755 80.74C138.195 78.78 140.135 77.3 142.575 76.3C145.055 75.3 147.835 74.8 150.915 74.8C156.115 74.8 160.235 76 163.275 78.4C166.355 80.8 167.975 84.18 168.135 88.54H153.795C153.755 87.34 153.455 86.48 152.895 85.96C152.335 85.44 151.655 85.18 150.855 85.18C150.295 85.18 149.835 85.38 149.475 85.78C149.115 86.14 148.935 86.66 148.935 87.34C148.935 88.3 149.455 89.1 150.495 89.74C151.575 90.34 153.275 91.08 155.595 91.96C158.275 92.96 160.475 93.92 162.195 94.84C163.955 95.76 165.475 97.04 166.755 98.68C168.035 100.32 168.675 102.38 168.675 104.86C168.675 107.46 168.035 109.8 166.755 111.88C165.475 113.92 163.615 115.52 161.175 116.68C158.735 117.84 155.835 118.42 152.475 118.42ZM197.055 83.92C200.935 83.92 203.955 85.22 206.115 87.82C208.315 90.42 209.415 93.94 209.415 98.38V118H196.155V100.06C196.155 98.46 195.715 97.2 194.835 96.28C193.995 95.32 192.855 94.84 191.415 94.84C189.935 94.84 188.775 95.32 187.935 96.28C187.095 97.2 186.675 98.46 186.675 100.06V118H173.355V73.6H186.675V89.32C187.715 87.72 189.095 86.42 190.815 85.42C192.575 84.42 194.655 83.92 197.055 83.92ZM231.271 118.42C227.871 118.42 224.811 117.72 222.091 116.32C219.371 114.92 217.231 112.92 215.671 110.32C214.151 107.68 213.391 104.6 213.391 101.08C213.391 97.56 214.151 94.5 215.671 91.9C217.231 89.26 219.371 87.24 222.091 85.84C224.811 84.44 227.871 83.74 231.271 83.74C234.671 83.74 237.731 84.44 240.451 85.84C243.171 87.24 245.291 89.26 246.811 91.9C248.371 94.5 249.151 97.56 249.151 101.08C249.151 104.6 248.371 107.68 246.811 110.32C245.291 112.92 243.171 114.92 240.451 116.32C237.731 117.72 234.671 118.42 231.271 118.42ZM231.271 106.9C232.511 106.9 233.551 106.42 234.391 105.46C235.231 104.46 235.651 103 235.651 101.08C235.651 99.16 235.231 97.72 234.391 96.76C233.551 95.76 232.511 95.26 231.271 95.26C230.031 95.26 228.991 95.76 228.151 96.76C227.311 97.72 226.891 99.16 226.891 101.08C226.891 103 227.291 104.46 228.091 105.46C228.931 106.42 229.991 106.9 231.271 106.9ZM266.656 88.78C267.496 87.22 268.696 86 270.256 85.12C271.856 84.2 273.756 83.74 275.956 83.74C278.596 83.74 280.976 84.44 283.096 85.84C285.216 87.2 286.876 89.2 288.076 91.84C289.316 94.44 289.936 97.52 289.936 101.08C289.936 104.64 289.316 107.74 288.076 110.38C286.876 112.98 285.216 114.98 283.096 116.38C280.976 117.74 278.596 118.42 275.956 118.42C273.756 118.42 271.856 117.98 270.256 117.1C268.696 116.18 267.496 114.94 266.656 113.38V134.2H253.336V84.16H266.656V88.78ZM276.436 101.08C276.436 99.28 275.976 97.88 275.056 96.88C274.136 95.88 272.956 95.38 271.516 95.38C270.076 95.38 268.896 95.88 267.976 96.88C267.056 97.88 266.596 99.28 266.596 101.08C266.596 102.88 267.056 104.28 267.976 105.28C268.896 106.28 270.076 106.78 271.516 106.78C272.956 106.78 274.136 106.28 275.056 105.28C275.976 104.28 276.436 102.88 276.436 101.08Z" fill="black"/>
<path d="M647 800C654.083 792.917 654.083 781.458 647 774.583L621.583 800C628.458 807.083 639.917 807.083 647 800ZM646.167 780.417C647.417 780.417 648.25 781.25 648.25 782.5C648.25 783.75 647.417 784.583 646.167 784.583C644.917 784.583 644.083 783.75 644.083 782.5C644.083 781.25 644.917 780.417 646.167 780.417ZM646.167 788.75C647.417 788.75 648.25 789.583 648.25 790.833C648.25 792.083 647.417 792.917 646.167 792.917C644.917 792.917 644.083 792.083 644.083 790.833C644.083 789.583 644.917 788.75 646.167 788.75ZM637.833 788.75C639.083 788.75 639.917 789.583 639.917 790.833C639.917 792.083 639.083 792.917 637.833 792.917C636.583 792.917 635.75 792.083 635.75 790.833C635.75 789.583 636.583 788.75 637.833 788.75ZM637.833 797.083C639.083 797.083 639.917 797.917 639.917 799.167C639.917 800.417 639.083 801.25 637.833 801.25C636.583 801.25 635.75 800.417 635.75 799.167C635.75 797.917 636.583 797.083 637.833 797.083ZM629.5 801.25C628.25 801.25 627.417 800.417 627.417 799.167C627.417 797.917 628.25 797.083 629.5 797.083C630.75 797.083 631.583 797.917 631.583 799.167C631.583 800.417 630.75 801.25 629.5 801.25ZM651.583 804.583C642 814.167 626.583 814.167 617 804.583L619.917 801.667C627.833 809.583 640.542 809.583 648.458 801.667C656.375 793.75 656.375 781.042 648.458 773.125L651.583 770C660.958 779.583 660.958 795 651.583 804.583Z" fill="black"/>
<defs>
<filter id="filter0_d" x="0" y="0" width="1291" height="755" filterUnits="userSpaceOnUse" color-interpolation-filters="sRGB">
<feFlood flood-opacity="0" result="BackgroundImageFix"/>
<feColorMatrix in="SourceAlpha" type="matrix" values="0 0 0 0 0 0 0 0 0 0 0 0 0 0 0 0 0 0 127 0"/>
<feOffset dx="10" dy="10"/>
<feColorMatrix type="matrix" values="0 0 0 0 0 0 0 0 0 0 0 0 0 0 0 0 0 0 0.15 0"/>
<feBlend mode="normal" in2="BackgroundImageFix" result="effect1_dropShadow"/>
<feBlend mode="normal" in="SourceGraphic" in2="effect1_dropShadow" result="shape"/>
</filter>
<filter id="filter1_d" x="438" y="925" width="410" height="35" filterUnits="userSpaceOnUse" color-interpolation-filters="sRGB">
<feFlood flood-opacity="0" result="BackgroundImageFix"/>
<feColorMatrix in="SourceAlpha" type="matrix" values="0 0 0 0 0 0 0 0 0 0 0 0 0 0 0 0 0 0 127 0"/>
<feOffset dx="10" dy="10"/>
<feColorMatrix type="matrix" values="0 0 0 0 0 0 0 0 0 0 0 0 0 0 0 0 0 0 0.15 0"/>
<feBlend mode="normal" in2="BackgroundImageFix" result="effect1_dropShadow"/>
<feBlend mode="normal" in="SourceGraphic" in2="effect1_dropShadow" result="shape"/>
</filter>
<filter id="filter2_d" x="0" y="745" width="1291" height="102" filterUnits="userSpaceOnUse" color-interpolation-filters="sRGB">
<feFlood flood-opacity="0" result="BackgroundImageFix"/>
<feColorMatrix in="SourceAlpha" type="matrix" values="0 0 0 0 0 0 0 0 0 0 0 0 0 0 0 0 0 0 127 0"/>
<feOffset dx="10" dy="10"/>
<feColorMatrix type="matrix" values="0 0 0 0 0 0 0 0 0 0 0 0 0 0 0 0 0 0 0.15 0"/>
<feBlend mode="normal" in2="BackgroundImageFix" result="effect1_dropShadow"/>
<feBlend mode="normal" in="SourceGraphic" in2="effect1_dropShadow" result="shape"/>
</filter>
</defs>
</svg>
