<svg width="685" height="617" viewBox="0 0 685 617" fill="none" xmlns="http://www.w3.org/2000/svg">
<g filter="url(#filter0_d)">
<rect x="4" y="4" width="672" height="625" rx="10" fill="#E4FAFF"/>
<rect x="4" y="4" width="672" height="625" rx="10" stroke="black" stroke-width="8"/>
</g>
<line x1="345" y1="4" x2="345" y2="624" stroke="black" stroke-width="10"/>
<g clip-path="url(#clip0)">
<circle cx="383.5" cy="316.5" r="12.5" fill="black"/>
<path d="M347.367 355.22L353.045 359.684L383.245 321.264L377.567 316.801L347.367 355.22Z" fill="#666666"/>
<path d="M385.181 321.034L423.601 351.234L428.064 345.556L389.645 315.355L385.181 321.034Z" fill="#666666"/>
<path d="M486.507 423.377L308.675 444.678C304.316 445.2 300.36 442.089 299.837 437.731L291.737 370.106C291.215 365.748 294.325 361.791 298.684 361.269L476.516 339.968C480.875 339.446 484.831 342.557 485.353 346.915L493.454 414.54C493.976 418.898 490.866 422.855 486.507 423.377Z" fill="#D95C47" stroke="black" stroke-width="5"/>
<path d="M384.659 326.053C389.684 325.451 393.269 320.89 392.667 315.865C392.066 310.84 387.504 307.255 382.479 307.856C377.455 308.458 373.869 313.02 374.471 318.045C375.073 323.069 379.634 326.655 384.659 326.053Z" fill="#F7B239"/>
<path d="M342.873 412.493C340.226 412.81 337.715 412.48 335.342 411.502C332.995 410.52 331.042 409.009 329.481 406.966C327.921 404.924 326.975 402.526 326.645 399.773C326.316 397.019 326.668 394.466 327.702 392.113C328.736 389.76 330.279 387.843 332.331 386.361C334.406 384.851 336.767 383.937 339.415 383.619C342.063 383.302 344.56 383.634 346.907 384.616C349.25 385.57 351.189 387.07 352.723 389.116C354.284 391.158 355.229 393.556 355.559 396.31C355.889 399.063 355.536 401.617 354.502 403.97C353.495 406.319 351.953 408.25 349.878 409.761C347.83 411.268 345.495 412.179 342.873 412.493ZM341.889 404.272C343.636 404.062 344.92 403.345 345.74 402.119C346.557 400.866 346.851 399.286 346.623 397.38C346.391 395.447 345.732 393.982 344.646 392.984C343.556 391.959 342.138 391.552 340.39 391.761C338.616 391.974 337.321 392.706 336.504 393.959C335.684 395.185 335.39 396.765 335.621 398.698C335.85 400.604 336.509 402.069 337.598 403.094C338.685 404.092 340.115 404.484 341.889 404.272ZM389.165 387.934C389.377 389.708 389.16 391.372 388.514 392.926C387.864 394.455 386.783 395.739 385.269 396.78C383.782 397.817 381.9 398.472 379.623 398.745L376.128 399.164L377.198 408.1L368.381 409.156L365.013 381.037L377.325 379.562C380.767 379.15 383.506 379.708 385.543 381.237C387.605 382.762 388.813 384.995 389.165 387.934ZM377.797 391.914C379.624 391.695 380.435 390.725 380.229 389.004C380.022 387.283 379.006 386.532 377.179 386.751L374.677 387.05L375.295 392.213L377.797 391.914ZM408.407 382.97L408.821 386.425L417.559 385.379L418.353 392.011L409.616 393.058L410.091 397.029L420.02 395.84L420.862 402.87L402.116 405.115L398.749 376.996L417.495 374.751L418.337 381.781L408.407 382.97ZM459.096 398.291L450.279 399.347L439.252 386.326L440.945 400.465L432.129 401.521L428.761 373.402L437.578 372.346L448.633 385.605L446.911 371.228L455.728 370.172L459.096 398.291Z" fill="white"/>
</g>
<line x1="120.265" y1="104.439" x2="91.4394" y2="151.281" stroke="#6E8C93" stroke-width="5" stroke-linecap="round" stroke-linejoin="bevel"/>
<line x1="120.265" y1="136.439" x2="91.4394" y2="183.281" stroke="#6E8C93" stroke-width="5" stroke-linecap="round" stroke-linejoin="bevel"/>
<defs>
<filter id="filter0_d" x="0" y="0" width="685" height="638" filterUnits="userSpaceOnUse" color-interpolation-filters="sRGB">
<feFlood flood-opacity="0" result="BackgroundImageFix"/>
<feColorMatrix in="SourceAlpha" type="matrix" values="0 0 0 0 0 0 0 0 0 0 0 0 0 0 0 0 0 0 127 0"/>
<feOffset dx="5" dy="5"/>
<feColorMatrix type="matrix" values="0 0 0 0 0 0 0 0 0 0 0 0 0 0 0 0 0 0 0.15 0"/>
<feBlend mode="normal" in2="BackgroundImageFix" result="effect1_dropShadow"/>
<feBlend mode="normal" in="SourceGraphic" in2="effect1_dropShadow" result="shape"/>
</filter>
<clipPath id="clip0">
<rect width="200" height="200" fill="white" transform="translate(279 284.786) rotate(-6.83028)"/>
</clipPath>
</defs>
</svg>
