<svg width="250" height="274" viewBox="0 0 250 274" fill="none" xmlns="http://www.w3.org/2000/svg">
<path d="M21 4H17V8V166C17 223.438 63.5624 270 121 270H129C186.438 270 233 223.438 233 166V8V4H229H21Z" fill="white" stroke="black" stroke-width="8"/>
<g clip-path="url(#clip0)">
<path d="M218.535 263.117V201.741C218.535 196.255 216.995 190.88 214.089 186.226C211.184 181.573 207.03 177.828 202.101 175.42L155.011 152.407C153.368 151.604 151.984 150.356 151.015 148.805C150.047 147.253 149.534 145.462 149.534 143.633V126.466H100.196V143.765C100.196 145.594 99.6828 147.386 98.7144 148.937C97.7459 150.488 96.3614 151.736 94.7184 152.539L47.8986 175.42C42.9697 177.828 38.8161 181.573 35.9108 186.226C33.0054 190.88 31.4651 196.255 31.4651 201.741V263.117C31.4651 264.412 31.9795 265.654 32.8952 266.569C33.8109 267.485 35.0529 268 36.3479 268H213.652C214.947 268 216.189 267.485 217.105 266.569C218.021 265.654 218.535 264.412 218.535 263.117Z" fill="#57AAFE"/>
<path d="M84.4377 223.475H69.1743V163.733C69.1743 163.305 69.2864 162.886 69.4994 162.515C69.7123 162.145 70.0187 161.837 70.3879 161.622L80.7685 155.583C81.1395 155.367 81.5609 155.253 81.9901 155.252C82.4194 155.251 82.8413 155.363 83.2134 155.577C83.5855 155.791 83.8946 156.099 84.1096 156.471C84.3245 156.842 84.4377 157.264 84.4377 157.693V223.475ZM165.562 223.475H180.825V163.733C180.825 163.305 180.713 162.886 180.5 162.515C180.287 162.145 179.981 161.837 179.612 161.622L169.231 155.583C168.86 155.367 168.439 155.253 168.01 155.252C167.58 155.251 167.158 155.363 166.786 155.577C166.414 155.791 166.105 156.099 165.89 156.471C165.675 156.842 165.562 157.264 165.562 157.693V223.475Z" fill="#D34342"/>
<path d="M125 166.681C137.174 166.697 148.898 162.079 157.791 153.765L155.011 152.407C153.368 151.604 151.984 150.356 151.016 148.805C150.047 147.253 149.534 145.461 149.534 143.633V126.466H100.196V143.765C100.196 145.594 99.6829 147.385 98.7145 148.937C97.7461 150.488 96.3616 151.736 94.7186 152.539L92.209 153.765C101.102 162.079 112.826 166.697 125 166.681Z" fill="#F9BEAC"/>
<path d="M62.5586 268V214.197C62.5586 210.312 64.1019 206.587 66.849 203.839C69.5961 201.092 73.322 199.549 77.207 199.549H172.793C176.678 199.549 180.404 201.092 183.151 203.839C185.898 206.587 187.441 210.312 187.441 214.197V268H62.5586Z" fill="#F96263"/>
<path d="M62.5586 244.515H31.4651L31.4651 263.117C31.4651 264.412 31.9795 265.654 32.8952 266.569C33.8109 267.485 35.0529 268 36.3479 268H62.5586V244.515ZM187.441 244.515H218.535V263.117C218.535 264.412 218.021 265.654 217.105 266.569C216.189 267.485 214.947 268 213.652 268H187.441V244.515Z" fill="#F9BEAC"/>
<path d="M129.027 152.355C133.348 152.355 137.546 150.909 140.951 148.248L149.534 141.542V126.466H100.196V135.627C101.054 136.534 101.977 137.376 102.958 138.147L115.885 148.248C119.29 150.909 123.488 152.355 127.809 152.355L129.027 152.355Z" fill="#E58A7B"/>
<path d="M99.5402 130.087C96.5003 127.711 94.0415 124.675 92.3505 121.207C90.6594 117.74 89.7805 113.933 89.7805 110.075V74.7249C89.7805 70.5974 91.4202 66.6389 94.3388 63.7202C97.2574 60.8016 101.216 59.1619 105.344 59.1619H144.656C148.784 59.1619 152.743 60.8016 155.661 63.7202C158.58 66.6389 160.219 70.5974 160.219 74.7249V110.075C160.219 113.933 159.341 117.74 157.649 121.207C155.958 124.675 153.5 127.711 150.46 130.087L137.533 140.188C134.128 142.848 129.93 144.294 125.609 144.294H124.391C120.07 144.294 115.872 142.848 112.467 140.188L99.5402 130.087Z" fill="#F9BEAC"/>
<path d="M142.159 124.447C142.159 122.713 141.818 120.997 141.154 119.396C140.491 117.794 139.519 116.339 138.293 115.113C137.068 113.888 135.613 112.916 134.011 112.252C132.41 111.589 130.694 111.248 128.96 111.248H121.04C119.307 111.248 117.59 111.589 115.989 112.252C114.388 112.916 112.933 113.888 111.707 115.113C110.481 116.339 109.509 117.794 108.846 119.396C108.182 120.997 107.841 122.713 107.841 124.447V136.573L112.467 140.188C115.873 142.848 120.07 144.294 124.391 144.294H125.609C129.93 144.294 134.128 142.848 137.533 140.188L142.159 136.573V124.447Z" fill="#343C4A"/>
<path d="M160.22 99.3274V77.417C161.627 77.417 163.017 77.7268 164.291 78.3245C165.565 78.9222 166.691 79.793 167.591 80.8752C168.49 81.9573 169.14 83.2243 169.495 84.586C169.85 85.9478 169.9 87.3709 169.643 88.7544L169.04 91.9955C168.657 94.0552 167.566 95.9159 165.955 97.2551C164.343 98.5942 162.315 99.3274 160.22 99.3274ZM89.7807 99.3274V77.417C88.3735 77.417 86.9836 77.7268 85.7096 78.3245C84.4357 78.9222 83.3089 79.793 82.4094 80.8752C81.5099 81.9573 80.8598 83.2243 80.5051 84.586C80.1504 85.9478 80.0998 87.3709 80.3571 88.7544L80.9598 91.9955C81.3428 94.0552 82.4345 95.9159 84.0456 97.2551C85.6567 98.5942 87.6857 99.3274 89.7807 99.3274ZM130.812 105.454V107.777C130.812 109.318 130.199 110.796 129.109 111.886C128.02 112.976 126.541 113.588 125 113.588C124.237 113.588 123.481 113.438 122.776 113.146C122.071 112.854 121.43 112.426 120.891 111.886C120.351 111.346 119.923 110.706 119.631 110.001C119.339 109.296 119.189 108.54 119.189 107.777V105.454C119.189 105.065 119.343 104.693 119.618 104.418C119.892 104.143 120.265 103.989 120.653 103.989H129.347C129.735 103.989 130.108 104.143 130.383 104.418C130.657 104.693 130.812 105.065 130.812 105.454Z" fill="#E58A7B"/>
<path d="M116.244 18.7085H133.759C140.982 18.7085 147.91 21.5781 153.018 26.6861C158.126 31.794 160.996 38.7219 160.996 45.9456V70.3097H89.0071V45.9456C89.0071 42.3688 89.7116 38.827 91.0804 35.5224C92.4492 32.2179 94.4554 29.2153 96.9846 26.6861C99.5139 24.1569 102.516 22.1506 105.821 20.7818C109.126 19.413 112.667 18.7085 116.244 18.7085Z" fill="#F96263"/>
<path d="M149.245 81.3597L134.914 78.2749C128.38 76.8685 121.622 76.8685 115.088 78.2749L100.758 81.3597C98.75 81.7919 96.6548 81.5207 94.8234 80.5917C92.9919 79.6626 91.5356 78.1322 90.6984 76.257L88.8132 72.0339C88.568 71.4862 88.441 70.8931 88.4404 70.293C88.4399 69.693 88.5658 69.0996 88.81 68.5516C89.0542 68.0035 89.4112 67.513 89.8577 67.1122C90.3041 66.7113 90.8301 66.4091 91.4012 66.2251C102.514 62.6561 114.124 60.8789 125.795 60.9603C137.244 61.043 151.155 64.4178 158.318 66.3863C158.912 66.549 159.464 66.8382 159.937 67.2341C160.409 67.63 160.789 68.1233 161.053 68.6802C161.316 69.2371 161.457 69.8443 161.463 70.4604C161.47 71.0764 161.344 71.6867 161.093 72.2493L159.304 76.257C158.467 78.1322 157.011 79.6626 155.179 80.5916C153.348 81.5207 151.253 81.7919 149.245 81.3597Z" fill="#57AAFE"/>
<path d="M128.497 26.0147C128.764 25.9983 129.031 26.0485 129.274 26.1607C129.517 26.273 129.729 26.4438 129.889 26.6579C130.05 26.8719 130.155 27.1225 130.195 27.3872C130.235 27.6518 130.209 27.9223 130.118 28.1742C129.035 30.9717 127.835 33.7339 126.666 36.4968C126.595 36.6641 126.646 36.7338 126.784 36.8138C128.974 38.0779 131.159 39.3506 133.351 40.611C133.598 40.7304 133.811 40.9095 133.971 41.1321C134.131 41.3547 134.233 41.6137 134.268 41.8857C134.303 42.1577 134.269 42.4341 134.171 42.6898C134.072 42.9456 133.91 43.1726 133.702 43.3503C129.732 47.1164 125.758 50.8785 121.781 54.6369C121.114 55.2677 120.457 55.4108 119.774 55.0799C119.412 54.9118 119.127 54.6125 118.978 54.2424C118.828 53.8724 118.824 53.4594 118.968 53.0869C119.383 52.0152 119.837 50.9588 120.278 49.8975C120.99 48.1854 121.705 46.4747 122.424 44.7653C122.497 44.591 122.436 44.529 122.301 44.4518C120.084 43.1768 117.845 41.9275 115.656 40.6058C115.422 40.4776 115.224 40.2946 115.076 40.0724C114.929 39.8502 114.839 39.5956 114.812 39.3305C114.785 39.0654 114.824 38.7978 114.923 38.5507C115.023 38.3037 115.182 38.0847 115.385 37.9127C119.358 34.1488 123.332 30.3862 127.307 26.6248C127.616 26.2836 128.039 26.0667 128.497 26.0147Z" fill="#FFBC5B"/>
<path d="M169.922 225.496C174.641 225.496 178.467 221.67 178.467 216.951C178.467 212.231 174.641 208.406 169.922 208.406C165.203 208.406 161.377 212.231 161.377 216.951C161.377 221.67 165.203 225.496 169.922 225.496Z" fill="#FFBC5B"/>
<path d="M81.0547 226.496C85.7739 226.496 89.5996 222.67 89.5996 217.951C89.5996 213.231 85.7739 209.406 81.0547 209.406C76.3355 209.406 72.5098 213.231 72.5098 217.951C72.5098 222.67 76.3355 226.496 81.0547 226.496Z" fill="#FFBC5B"/>
<path d="M129.916 216.618C130.248 216.597 130.581 216.66 130.883 216.799C131.185 216.939 131.448 217.151 131.647 217.417C131.847 217.684 131.978 217.995 132.028 218.324C132.077 218.653 132.044 218.99 131.932 219.303C130.585 222.782 129.093 226.217 127.639 229.652C127.551 229.86 127.614 229.947 127.786 230.046C130.51 231.618 133.226 233.201 135.952 234.768C136.259 234.917 136.524 235.14 136.723 235.416C136.922 235.693 137.049 236.015 137.093 236.353C137.136 236.692 137.094 237.035 136.971 237.353C136.848 237.671 136.648 237.954 136.388 238.175C131.451 242.858 126.51 247.536 121.564 252.21C120.735 252.994 119.919 253.172 119.069 252.761C118.619 252.551 118.265 252.179 118.079 251.719C117.893 251.259 117.888 250.745 118.067 250.282C118.582 248.95 119.147 247.636 119.696 246.316C120.581 244.187 121.471 242.06 122.364 239.934C122.456 239.717 122.379 239.64 122.212 239.544C119.455 237.959 116.671 236.405 113.948 234.762C113.658 234.602 113.41 234.375 113.228 234.099C113.045 233.822 112.932 233.506 112.899 233.176C112.866 232.846 112.913 232.514 113.037 232.206C113.162 231.899 113.359 231.627 113.612 231.413C118.551 226.732 123.493 222.054 128.436 217.376C128.821 216.952 129.347 216.682 129.916 216.618Z" fill="#FFBC5B"/>
<path d="M233.39 129.647L221.026 145.263C220.753 145.608 220.578 146.02 220.52 146.456C220.462 146.892 220.523 147.335 220.695 147.739L222.329 151.557C222.478 151.906 222.544 152.284 222.521 152.663C222.499 153.041 222.388 153.409 222.199 153.738L190.022 209.47L200.675 215.62L232.851 159.888C233.041 159.56 233.304 159.28 233.621 159.071C233.938 158.862 234.298 158.73 234.675 158.685L238.798 158.191C239.235 158.138 239.649 157.969 239.997 157.701C240.345 157.433 240.615 157.075 240.777 156.667L248.119 138.151C248.335 137.607 248.348 137.002 248.155 136.449C247.963 135.896 247.577 135.43 247.07 135.137L236.525 129.049C236.017 128.756 235.421 128.655 234.846 128.765C234.27 128.875 233.753 129.188 233.39 129.647Z" fill="#EDEDED"/>
<path d="M195.775 211.804L195.775 211.804C198.598 213.434 200.657 216.118 201.501 219.266C202.344 222.414 201.903 225.769 200.273 228.591L182.634 259.144C181.004 261.967 178.32 264.026 175.172 264.87C172.024 265.713 168.669 265.272 165.847 263.642L165.847 263.642C163.024 262.012 160.965 259.328 160.121 256.18C159.278 253.032 159.719 249.678 161.349 246.855L178.989 216.302C180.618 213.48 183.302 211.42 186.45 210.577C189.599 209.733 192.953 210.175 195.775 211.804Z" fill="#343C4A"/>
<path d="M247.925 134.657L237.379 128.569C236.515 128.076 235.504 127.908 234.526 128.094C233.549 128.281 232.671 128.81 232.05 129.587L219.686 145.203C219.222 145.789 218.924 146.489 218.825 147.23C218.727 147.971 218.83 148.725 219.124 149.412L220.758 153.23C220.802 153.334 220.822 153.448 220.815 153.561C220.808 153.675 220.775 153.785 220.719 153.884L207.535 176.718C206.059 175.639 204.492 174.691 202.85 173.887L182.534 163.96V163.732C182.532 163.007 182.34 162.295 181.979 161.666C181.618 161.037 181.099 160.513 180.474 160.146L170.092 154.105C169.462 153.734 168.744 153.538 168.013 153.536C167.282 153.535 166.564 153.728 165.932 154.097C165.436 154.382 165.004 154.767 164.663 155.226L158.517 152.221C158.503 152.214 158.489 152.207 158.474 152.2L155.762 150.874C154.41 150.206 153.271 149.176 152.472 147.897C151.674 146.618 151.247 145.142 151.24 143.635V131.643L151.511 131.432C154.765 128.907 157.397 125.668 159.204 121.965C161.01 118.263 161.942 114.195 161.929 110.075V101.893C164.1 101.542 166.109 100.528 167.683 98.9917C169.256 97.4552 170.317 95.4704 170.721 93.3083L171.323 90.0675C171.6 88.5796 171.575 87.0512 171.25 85.5731C170.924 84.0951 170.305 82.6976 169.428 81.4637C168.552 80.2298 167.436 79.1847 166.148 78.3905C164.86 77.5963 163.425 77.0693 161.929 76.8408V75.5705L162.654 73.9463C162.985 73.2025 163.16 72.3987 163.169 71.5845C163.178 70.7703 163.02 69.9629 162.705 69.2121V46.9452C162.697 39.2711 159.644 31.9138 154.218 26.4874C148.791 21.061 141.434 18.0086 133.76 18L116.245 18C108.571 18.0087 101.214 21.061 95.7873 26.4874C90.3609 31.9138 87.3085 39.2711 87.2998 46.9452V68.7565C87.2852 68.7879 87.2668 68.817 87.2526 68.8487C86.9101 69.617 86.7331 70.4488 86.7331 71.2899C86.7332 72.1311 86.9102 72.9628 87.2529 73.7311L88.0714 75.5647V76.8408C86.5753 77.0693 85.1404 77.5963 83.852 78.3904C82.5637 79.1846 81.4482 80.2297 80.5718 81.4636C79.6954 82.6974 79.076 84.0949 78.7505 85.573C78.425 87.051 78.4 88.5794 78.6769 90.0673L79.2794 93.3086C79.6828 95.4706 80.7437 97.4553 82.3173 98.9918C83.8909 100.528 85.9004 101.542 88.0714 101.893V110.075C88.058 114.194 88.99 118.261 90.7956 121.963C92.6013 125.666 95.2324 128.904 98.4864 131.43V143.767C98.4924 145.277 98.0712 146.758 97.2714 148.039C96.4716 149.32 95.3259 150.348 93.9665 151.006L91.5118 152.205L91.5083 152.207L85.3349 155.223C84.9941 154.765 84.5627 154.381 84.0676 154.097C83.436 153.728 82.7175 153.535 81.9862 153.536C81.2549 153.538 80.5373 153.734 79.9072 154.106L69.5188 160.15C68.8954 160.518 68.3784 161.042 68.0185 161.67C67.6586 162.298 67.4681 163.009 67.4658 163.732V163.96L47.1506 173.886C41.9477 176.452 37.5634 180.418 34.4905 185.338C31.4176 190.259 29.778 195.939 29.7559 201.74V266.291C29.7559 266.515 29.8001 266.738 29.8859 266.945C29.9718 267.152 30.0977 267.341 30.2564 267.499C30.4151 267.658 30.6035 267.784 30.8108 267.87C31.0182 267.956 31.2404 268 31.4648 268C31.6893 268 31.9115 267.956 32.1188 267.87C32.3262 267.784 32.5146 267.658 32.6733 267.499C32.832 267.341 32.9579 267.152 33.0437 266.945C33.1296 266.738 33.1738 266.515 33.1738 266.291V246.224H60.8497V266.291C60.8497 266.744 61.0297 267.179 61.3502 267.499C61.6707 267.82 62.1054 268 62.5587 268C63.0119 268 63.4466 267.82 63.7671 267.499C64.0876 267.179 64.2677 266.744 64.2677 266.291V214.196C64.2687 212.048 64.8044 209.935 65.8264 208.046C66.8485 206.157 68.3247 204.553 70.1219 203.377L70.1348 203.369C72.2353 201.989 74.694 201.255 77.2071 201.257H172.793C175.526 201.258 178.188 202.126 180.398 203.734C182.607 205.342 184.251 207.609 185.092 210.209C182.899 210.954 180.927 212.237 179.357 213.94C178.632 212.235 177.459 210.758 175.962 209.666C174.464 208.575 172.7 207.91 170.855 207.741C169.01 207.572 167.153 207.907 165.483 208.709C163.813 209.511 162.391 210.75 161.369 212.295C160.347 213.841 159.763 215.634 159.679 217.485C159.594 219.336 160.013 221.175 160.89 222.807C161.767 224.438 163.07 225.802 164.661 226.753C166.251 227.703 168.069 228.205 169.922 228.205C170.197 228.205 170.47 228.191 170.742 228.169L159.869 247.002C158.014 250.216 157.512 254.036 158.474 257.621C159.435 261.206 161.781 264.263 164.995 266.118C168.209 267.974 172.029 268.477 175.614 267.517C179.2 266.557 182.257 264.213 184.114 260.999L185.732 258.196V266.291C185.732 266.744 185.912 267.179 186.233 267.499C186.553 267.82 186.988 268 187.441 268C187.895 268 188.329 267.82 188.65 267.499C188.97 267.179 189.15 266.744 189.15 266.291V252.276L192.645 246.223H216.826V266.291C216.826 266.744 217.006 267.179 217.327 267.499C217.647 267.82 218.082 268 218.535 268C218.988 268 219.423 267.82 219.744 267.499C220.064 267.179 220.244 266.744 220.244 266.291V201.74C220.246 197.747 219.472 193.791 217.963 190.093L234.331 161.743C234.388 161.645 234.468 161.561 234.563 161.498C234.658 161.436 234.766 161.396 234.879 161.383L239.001 160.888C239.743 160.8 240.448 160.512 241.04 160.056C241.632 159.6 242.09 158.992 242.366 158.297L249.707 139.782C250.07 138.855 250.089 137.83 249.762 136.89C249.435 135.951 248.784 135.159 247.925 134.657ZM161.929 80.3136C163.921 80.7568 165.664 81.9563 166.79 83.6593C167.915 85.3622 168.336 87.4356 167.963 89.4426L167.36 92.6834C167.103 94.0599 166.454 95.3327 165.49 96.3486C164.526 97.3645 163.29 98.0802 161.929 98.4095L161.929 80.3136ZM88.0714 98.4095C86.7104 98.0802 85.4737 97.3646 84.51 96.3487C83.5463 95.3328 82.8968 94.0601 82.6397 92.6837L82.0373 89.4424C81.6642 87.4354 82.0848 85.3621 83.2104 83.6591C84.3361 81.9562 86.0788 80.7568 88.0714 80.3136L88.0714 98.4095ZM67.4658 201.064C65.4138 202.584 63.7465 204.564 62.5975 206.844C61.4486 209.125 60.85 211.643 60.8497 214.196V242.806H33.1738V201.74C33.1935 196.579 34.6524 191.525 37.3864 187.147C40.1205 182.769 44.0214 179.24 48.6508 176.957L67.4658 167.764V201.064ZM82.7296 197.839H77.2071C75.0355 197.837 72.8855 198.269 70.8838 199.111V163.732C70.8845 163.605 70.9181 163.48 70.9814 163.369C71.0448 163.258 71.1356 163.165 71.2452 163.1L81.625 157.061C81.7363 156.994 81.8636 156.958 81.9934 156.958C82.1233 156.958 82.2507 156.993 82.3622 157.059C82.4753 157.121 82.5694 157.213 82.6341 157.325C82.6989 157.436 82.7319 157.563 82.7296 157.692L82.7296 197.839ZM90.7178 46.9452C90.7254 40.1773 93.4174 33.6888 98.203 28.9032C102.989 24.1175 109.477 21.4256 116.245 21.418H133.76C140.528 21.4256 147.016 24.1175 151.802 28.9031C156.588 33.6887 159.28 40.1773 159.287 46.9452V65.9112C159.118 65.8477 158.947 65.7872 158.771 65.7388C151.445 63.7256 137.421 60.3358 125.807 60.2518C113.954 60.1656 102.163 61.9704 90.8787 65.5984C90.8238 65.616 90.7721 65.6406 90.7178 65.6596L90.7178 46.9452ZM90.3733 70.2428C90.5179 69.914 90.731 69.62 90.9985 69.3802C91.2659 69.1405 91.5814 68.9607 91.924 68.8528C102.612 65.4156 113.771 63.666 124.998 63.6669C125.259 63.6669 125.521 63.6679 125.783 63.6698C137.006 63.7508 150.701 67.0658 157.865 69.0347C158.223 69.1325 158.555 69.3066 158.839 69.5449C159.123 69.7833 159.352 70.0802 159.51 70.4154C159.67 70.7483 159.755 71.1123 159.759 71.4817C159.763 71.851 159.686 72.2167 159.533 72.553L158.658 74.5138C158.652 74.5269 158.645 74.5398 158.64 74.5534L157.744 76.5608C157.061 78.0737 155.882 79.3079 154.402 80.0588C152.921 80.8097 151.229 81.0322 149.605 80.6895H149.605L135.274 77.6044C128.504 76.1371 121.498 76.1373 114.729 77.6049L100.398 80.6895C98.774 81.0326 97.0814 80.8102 95.6011 80.0593C94.1207 79.3083 92.9415 78.074 92.259 76.5609L90.3738 72.3377C90.2246 72.0087 90.1474 71.6516 90.1473 71.2903C90.1473 70.929 90.2243 70.5719 90.3733 70.2428H90.3733ZM91.4893 110.075V100.33L91.4896 100.328L91.4893 100.325V81.2801C93.484 83.19 96.1368 84.2595 98.8984 84.267C99.6443 84.2671 100.388 84.188 101.117 84.031L115.448 80.9461C121.744 79.5815 128.259 79.5815 134.555 80.9458L148.885 84.031V84.0308C150.593 84.3912 152.362 84.3287 154.04 83.8487C155.718 83.3688 157.252 82.4859 158.511 81.277V100.325L158.51 100.328L158.511 100.33V110.075C158.522 113.675 157.708 117.23 156.129 120.466C154.551 123.701 152.251 126.532 149.407 128.739L143.867 133.068V124.445C143.883 121.089 142.759 117.827 140.68 115.193C138.6 112.558 135.689 110.707 132.421 109.942C132.484 109.557 132.518 109.167 132.52 108.777V106.811C132.52 106.358 132.34 105.923 132.02 105.603C131.699 105.282 131.265 105.102 130.811 105.102C130.358 105.102 129.924 105.282 129.603 105.603C129.283 105.923 129.102 106.358 129.102 106.811V108.777C129.102 109.865 128.67 110.909 127.901 111.678C127.132 112.447 126.088 112.88 125 112.88C123.912 112.88 122.868 112.447 122.099 111.678C121.33 110.909 120.898 109.865 120.898 108.777V106.811C120.898 106.358 120.717 105.923 120.397 105.603C120.076 105.282 119.642 105.102 119.189 105.102C118.735 105.102 118.301 105.282 117.98 105.603C117.66 105.923 117.48 106.358 117.48 106.811V108.777C117.482 109.167 117.516 109.557 117.579 109.942C114.311 110.707 111.4 112.558 109.321 115.193C107.241 117.827 106.117 121.089 106.133 124.445V133.068L100.592 128.738C97.7482 126.531 95.4485 123.701 93.8703 120.465C92.2921 117.23 91.4775 113.675 91.4893 110.075H91.4893ZM140.449 124.445V135.74L136.483 138.841C133.374 141.261 129.55 142.578 125.61 142.585H124.39C120.451 142.578 116.626 141.261 113.518 138.841L109.551 135.74V124.445C109.538 121.766 110.467 119.168 112.176 117.105C113.885 115.041 116.265 113.645 118.9 113.158C119.593 114.129 120.509 114.921 121.57 115.467C122.631 116.013 123.807 116.298 125 116.298C126.193 116.298 127.369 116.013 128.43 115.467C129.491 114.921 130.407 114.129 131.1 113.158C133.735 113.645 136.115 115.041 137.824 117.105C139.533 119.168 140.462 121.766 140.449 124.445ZM95.4676 154.076C97.4036 153.14 99.0352 151.675 100.174 149.851C101.313 148.027 101.913 145.917 101.904 143.767V134.101L111.414 141.535C115.124 144.423 119.689 145.995 124.39 146.003H125.61C130.312 145.995 134.877 144.422 138.587 141.534L147.822 134.315V143.635C147.832 145.781 148.439 147.883 149.576 149.704C150.713 151.525 152.335 152.993 154.259 153.944L154.736 154.178C146.396 161.152 135.871 164.973 124.999 164.973C114.128 164.972 103.602 161.151 95.2628 154.177L95.4676 154.076ZM163.852 197.839H86.1476V158.63L91.9168 155.811C101.032 163.914 112.803 168.39 124.999 168.391C137.194 168.391 148.966 163.916 158.081 155.813L163.852 158.635V197.839ZM179.116 199.112C177.114 198.271 174.964 197.838 172.793 197.839H167.27V157.692C167.271 157.563 167.305 157.437 167.37 157.326C167.435 157.214 167.528 157.122 167.64 157.058C167.752 156.994 167.878 156.96 168.007 156.961C168.136 156.961 168.262 156.995 168.374 157.06L178.747 163.096C178.859 163.161 178.951 163.254 179.016 163.365C179.081 163.477 179.115 163.603 179.116 163.732V199.112ZM182.534 201.061V167.764L201.348 176.957C202.92 177.728 204.415 178.646 205.814 179.699L188.617 209.485C188.565 209.489 188.512 209.496 188.46 209.5C187.45 206.12 185.37 203.159 182.534 201.061ZM169.922 224.787C168.577 224.788 167.263 224.393 166.141 223.651C165.02 222.909 164.143 221.853 163.619 220.615C163.095 219.377 162.948 218.011 163.196 216.69C163.444 215.369 164.077 214.15 165.014 213.186C165.951 212.222 167.151 211.556 168.465 211.271C169.779 210.986 171.148 211.094 172.4 211.583C173.653 212.072 174.733 212.919 175.507 214.019C176.28 215.118 176.712 216.422 176.748 217.766L173.174 223.957C172.177 224.503 171.058 224.788 169.922 224.787ZM181.154 259.29C179.749 261.717 177.439 263.487 174.73 264.212C172.021 264.936 169.135 264.555 166.707 263.153C164.278 261.751 162.506 259.443 161.779 256.734C161.052 254.026 161.43 251.14 162.829 248.711L180.469 218.158C181.161 216.952 182.085 215.895 183.187 215.049C184.29 214.203 185.549 213.584 186.893 213.228C187.084 213.177 187.275 213.135 187.467 213.094C187.476 213.093 187.485 213.094 187.494 213.092C187.516 213.088 187.535 213.078 187.556 213.073C189.551 212.674 191.618 212.859 193.511 213.605C195.404 214.351 197.041 215.627 198.227 217.28C199.413 218.933 200.098 220.893 200.198 222.925C200.298 224.957 199.811 226.975 198.793 228.737L181.154 259.29ZM216.826 242.805H194.618L201.754 230.446C202.677 228.856 203.277 227.099 203.517 225.276C203.757 223.452 203.633 221.6 203.152 219.825C202.923 218.971 202.614 218.14 202.23 217.344L215.711 193.995C216.451 196.51 216.826 199.118 216.826 201.74V242.805ZM246.53 138.522L239.188 157.037C239.14 157.16 239.059 157.267 238.954 157.347C238.85 157.428 238.725 157.478 238.594 157.494L234.471 157.988C233.832 158.067 233.219 158.292 232.681 158.647C232.143 159.002 231.695 159.477 231.371 160.034L200.116 214.169C198.1 211.896 195.401 210.338 192.424 209.728L223.679 155.593C224 155.034 224.187 154.408 224.225 153.765C224.264 153.121 224.152 152.478 223.9 151.885L222.267 148.067C222.215 147.946 222.196 147.813 222.214 147.682C222.231 147.552 222.284 147.428 222.366 147.325L234.729 131.709C234.839 131.572 234.994 131.478 235.167 131.445C235.339 131.412 235.518 131.442 235.67 131.529L246.216 137.617C246.367 137.706 246.482 137.846 246.54 138.012C246.598 138.177 246.594 138.358 246.53 138.522H246.53ZM130.243 123.489C128.47 124.215 126.566 124.567 124.65 124.522C122.97 124.479 121.312 124.13 119.757 123.49C119.55 123.403 119.327 123.359 119.102 123.359C118.877 123.359 118.654 123.403 118.446 123.49C118.238 123.576 118.05 123.703 117.891 123.862C117.732 124.022 117.606 124.211 117.521 124.419C117.436 124.627 117.392 124.85 117.393 125.075C117.394 125.3 117.439 125.523 117.526 125.73C117.614 125.938 117.741 126.126 117.901 126.284C118.061 126.442 118.251 126.567 118.459 126.652C120.399 127.45 122.468 127.886 124.564 127.939C124.712 127.942 124.859 127.944 125.006 127.944C127.247 127.945 129.467 127.506 131.54 126.652C131.748 126.567 131.937 126.442 132.096 126.284C132.256 126.126 132.383 125.938 132.47 125.731C132.556 125.523 132.602 125.301 132.602 125.077C132.603 124.852 132.56 124.629 132.475 124.422C132.389 124.214 132.264 124.025 132.106 123.866C131.948 123.706 131.759 123.58 131.552 123.493C131.345 123.406 131.123 123.362 130.898 123.361C130.674 123.36 130.451 123.404 130.243 123.489ZM81.0547 207.697C79.0267 207.697 77.0442 208.299 75.3579 209.425C73.6717 210.552 72.3574 212.154 71.5813 214.027C70.8052 215.901 70.6022 217.963 70.9978 219.952C71.3935 221.941 72.3701 223.768 73.8041 225.202C75.2381 226.636 77.0652 227.612 79.0543 228.008C81.0433 228.404 83.1051 228.201 84.9787 227.425C86.8524 226.648 88.4538 225.334 89.5805 223.648C90.7072 221.962 91.3086 219.979 91.3086 217.951C91.3055 215.233 90.2242 212.626 88.3019 210.704C86.3796 208.782 83.7733 207.7 81.0547 207.697ZM81.0547 224.787C79.7027 224.787 78.381 224.386 77.2569 223.635C76.1327 222.884 75.2565 221.816 74.7391 220.567C74.2217 219.318 74.0864 217.944 74.3501 216.618C74.6139 215.292 75.265 214.073 76.221 213.117C77.177 212.161 78.395 211.51 79.7211 211.247C81.0471 210.983 82.4216 211.118 83.6707 211.636C84.9198 212.153 85.9874 213.029 86.7386 214.153C87.4897 215.277 87.8907 216.599 87.8907 217.951C87.8886 219.764 87.1678 221.501 85.8862 222.783C84.6047 224.064 82.8671 224.785 81.0547 224.787ZM136.804 233.287C135.222 232.378 133.643 231.465 132.065 230.548C131.276 230.091 130.487 229.634 129.698 229.178L130.033 228.387C131.207 225.627 132.421 222.772 133.526 219.921C133.74 219.369 133.815 218.774 133.746 218.186C133.677 217.598 133.464 217.036 133.128 216.55C132.768 216.038 132.29 215.621 131.734 215.336C131.177 215.05 130.56 214.903 129.935 214.909C129.91 214.909 129.885 214.909 129.86 214.91C128.87 214.98 127.941 215.418 127.258 216.138C124.154 219.091 121.044 222.038 117.928 224.977C116.097 226.708 114.266 228.44 112.436 230.173C111.995 230.576 111.654 231.076 111.44 231.634C111.226 232.191 111.145 232.791 111.202 233.386C111.271 233.971 111.475 234.533 111.799 235.025C112.122 235.518 112.555 235.929 113.065 236.225C115.057 237.428 117.105 238.595 119.085 239.725C119.492 239.957 119.898 240.189 120.305 240.421C119.571 242.166 118.843 243.912 118.118 245.66L117.715 246.625C117.3 247.614 116.871 248.638 116.473 249.666C116.137 250.529 116.142 251.488 116.486 252.348C116.83 253.208 117.487 253.906 118.325 254.3C118.832 254.549 119.389 254.68 119.954 254.684C121.009 254.657 122.01 254.214 122.739 253.451L125.63 250.716C129.61 246.951 133.588 243.184 137.564 239.415C138.009 239.011 138.352 238.507 138.565 237.945C138.779 237.384 138.857 236.78 138.793 236.182C138.712 235.577 138.49 235 138.144 234.497C137.799 233.994 137.34 233.58 136.804 233.287ZM135.212 236.935C131.238 240.705 127.261 244.471 123.281 248.233L120.389 250.969C120.017 251.321 119.922 251.276 119.814 251.223C119.751 251.2 119.699 251.153 119.67 251.093C119.642 251.032 119.638 250.962 119.66 250.899C120.041 249.915 120.461 248.915 120.867 247.947L121.274 246.973C122.158 244.847 123.046 242.722 123.939 240.599C124.148 240.145 124.174 239.628 124.012 239.155C123.849 238.683 123.509 238.291 123.064 238.063C122.303 237.626 121.542 237.19 120.778 236.756C118.816 235.637 116.787 234.479 114.831 233.299C114.775 233.271 114.726 233.232 114.686 233.183C114.646 233.135 114.617 233.079 114.6 233.018C114.603 232.948 114.621 232.878 114.653 232.815C114.685 232.752 114.731 232.697 114.787 232.654C116.616 230.922 118.445 229.191 120.276 227.461C123.392 224.515 126.505 221.567 129.614 218.615C129.724 218.5 129.852 218.404 129.993 218.329C130.056 218.33 130.117 218.346 130.173 218.374C130.229 218.402 130.278 218.443 130.316 218.492C130.337 218.52 130.35 218.552 130.354 218.586C130.358 218.62 130.353 218.655 130.338 218.686C129.254 221.486 128.051 224.315 126.888 227.05L126.066 228.985C125.86 229.44 125.834 229.956 125.995 230.428C126.156 230.9 126.491 231.293 126.932 231.527C128.073 232.186 129.212 232.845 130.351 233.506C131.933 234.422 133.516 235.337 135.1 236.25C135.171 236.282 135.235 236.328 135.286 236.386C135.338 236.444 135.377 236.512 135.4 236.586C135.396 236.655 135.377 236.721 135.344 236.782C135.312 236.842 135.267 236.894 135.212 236.935ZM114.773 43.0692C116.376 44.0372 118.023 44.9766 119.616 45.885C119.859 46.0235 120.101 46.1621 120.344 46.3008C119.793 47.6133 119.245 48.9269 118.7 50.2418L118.374 51.021C118.04 51.8173 117.695 52.6408 117.374 53.4705C117.188 53.9718 117.125 54.5106 117.192 55.0412C117.258 55.5718 117.451 56.0787 117.754 56.519C118.058 56.9593 118.463 57.3201 118.935 57.5708C119.407 57.8215 119.933 57.9548 120.468 57.9594C121.406 57.935 122.297 57.5476 122.955 56.8787L124.969 54.9735C128.273 51.8473 131.576 48.7197 134.878 45.5905C135.273 45.2296 135.578 44.7805 135.767 44.2797C135.957 43.779 136.026 43.2406 135.968 42.7083C135.897 42.1701 135.7 41.6562 135.394 41.2082C135.087 40.7603 134.679 40.3909 134.203 40.13C132.915 39.3892 131.628 38.6456 130.343 37.8991C129.81 37.5904 129.278 37.2819 128.745 36.9736L128.899 36.6114C129.844 34.3889 130.822 32.0905 131.712 29.7919C131.904 29.2973 131.971 28.7632 131.909 28.2363C131.847 27.7094 131.657 27.2058 131.355 26.7695C131.035 26.3136 130.609 25.9423 130.114 25.6873C129.619 25.4324 129.069 25.3016 128.512 25.3061C128.489 25.3063 128.465 25.3063 128.441 25.3071C127.562 25.3649 126.737 25.7503 126.128 26.3871C123.646 28.7486 121.159 31.105 118.666 33.4562C117.18 34.8612 115.695 36.2667 114.21 37.6727C113.818 38.0321 113.515 38.4779 113.325 38.9747C113.134 39.4715 113.063 40.0058 113.115 40.5351C113.176 41.0572 113.357 41.558 113.645 41.9978C113.932 42.4377 114.319 42.8045 114.773 43.0692ZM116.56 40.1536C118.044 38.7481 119.529 37.3436 121.014 35.94C123.465 33.6236 125.913 31.3046 128.359 28.983C127.532 31.0906 126.629 33.2149 125.753 35.2737L125.092 36.8313C124.892 37.2713 124.867 37.7712 125.023 38.2289C125.178 38.6867 125.503 39.0677 125.93 39.2944C126.83 39.8141 127.73 40.3348 128.629 40.8565C129.918 41.6034 131.208 42.349 132.499 43.0931C132.509 43.099 132.518 43.1045 132.526 43.11L132.525 43.111C129.226 46.2404 125.925 49.367 122.62 52.4906L120.728 54.2804C120.986 53.6324 121.26 52.9786 121.526 52.3428L121.856 51.5541C122.567 49.8449 123.281 48.1372 123.998 46.4312C124.197 45.9907 124.221 45.4907 124.064 45.0334C123.907 44.5761 123.581 44.196 123.153 43.9707C122.54 43.6178 121.925 43.2662 121.309 42.9159C119.741 42.0216 118.12 41.097 116.559 40.1553L116.56 40.1536ZM103.424 91.1168C104.978 90.4767 106.637 90.1271 108.317 90.0851C110.232 90.0401 112.136 90.3914 113.91 91.117C114.117 91.2025 114.34 91.2461 114.565 91.2455C114.789 91.2449 115.011 91.2 115.219 91.1135C115.426 91.0269 115.614 90.9003 115.772 90.741C115.931 90.5816 116.056 90.3927 116.141 90.1849C116.226 89.9771 116.27 89.7545 116.269 89.5299C116.268 89.3053 116.223 89.0831 116.136 88.876C116.049 88.6688 115.922 88.4809 115.763 88.3228C115.603 88.1647 115.414 88.0396 115.206 87.9546C111.016 86.2318 106.316 86.2319 102.126 87.9549C101.709 88.1283 101.377 88.46 101.203 88.8774C101.03 89.2948 101.029 89.764 101.201 90.1821C101.372 90.6003 101.703 90.9334 102.119 91.1086C102.536 91.2838 103.005 91.2867 103.424 91.1168ZM108.666 93.0094C108.442 93.0093 108.22 93.0535 108.012 93.1394C107.805 93.2253 107.617 93.3512 107.458 93.5099C107.299 93.6686 107.173 93.857 107.088 94.0643C107.002 94.2717 106.957 94.4939 106.957 94.7183V98.4675C106.957 98.9207 107.138 99.3554 107.458 99.6759C107.779 99.9964 108.213 100.176 108.666 100.176C109.12 100.176 109.554 99.9964 109.875 99.6759C110.195 99.3554 110.375 98.9207 110.375 98.4675V94.7183C110.375 94.4939 110.331 94.2717 110.245 94.0643C110.159 93.857 110.034 93.6686 109.875 93.5099C109.716 93.3512 109.528 93.2253 109.32 93.1394C109.113 93.0535 108.891 93.0093 108.666 93.0093V93.0094ZM140.42 93.0094C140.196 93.0093 139.974 93.0535 139.766 93.1394C139.559 93.2253 139.371 93.3512 139.212 93.5099C139.053 93.6686 138.927 93.857 138.842 94.0643C138.756 94.2717 138.711 94.4939 138.711 94.7183V98.4675C138.711 98.9207 138.892 99.3554 139.212 99.6759C139.533 99.9964 139.967 100.176 140.42 100.176C140.874 100.176 141.308 99.9964 141.629 99.6759C141.949 99.3554 142.129 98.9207 142.129 98.4675V94.7183C142.129 94.4939 142.085 94.2717 141.999 94.0643C141.913 93.857 141.788 93.6686 141.629 93.5099C141.47 93.3512 141.282 93.2253 141.074 93.1394C140.867 93.0535 140.645 93.0093 140.42 93.0093V93.0094ZM135.178 91.1168C136.732 90.4768 138.391 90.1271 140.071 90.0851C141.986 90.0401 143.89 90.3914 145.664 91.117C146.083 91.2883 146.553 91.2862 146.971 91.1111C147.388 90.936 147.72 90.6023 147.891 90.1833C148.063 89.7643 148.062 89.2942 147.887 88.8763C147.712 88.4584 147.379 88.1269 146.96 87.9546C142.77 86.2318 138.07 86.2319 133.88 87.9549C133.671 88.0395 133.482 88.1644 133.322 88.3225C133.161 88.4806 133.034 88.6688 132.947 88.8762C132.86 89.0837 132.814 89.3063 132.813 89.5313C132.812 89.7563 132.856 89.9793 132.941 90.1875C133.027 90.3956 133.153 90.5849 133.311 90.7443C133.47 90.9038 133.659 91.0303 133.867 91.1167C134.074 91.203 134.297 91.2475 134.522 91.2475C134.747 91.2475 134.97 91.2031 135.178 91.1168Z" fill="black"/>
</g>
<defs>
<clipPath id="clip0">
<path d="M0 16H250V141C250 210.036 194.036 266 125 266C55.9644 266 0 210.036 0 141V16Z" fill="white"/>
</clipPath>
</defs>
</svg>
