<svg width="240" height="274" viewBox="0 0 240 274" fill="none" xmlns="http://www.w3.org/2000/svg">
<path d="M16 4H12V8V166C12 223.438 58.5624 270 116 270H124C181.438 270 228 223.438 228 166V8V4H224H16Z" fill="white" stroke="black" stroke-width="8"/>
<path d="M217.5 145.25H210C210.003 148.575 208.898 151.806 206.861 154.434C204.824 157.061 201.97 158.936 198.75 159.763C197.528 160.097 196.266 160.261 195 160.25C191.022 160.25 187.206 158.67 184.393 155.857C181.58 153.044 180 149.228 180 145.25V130.25C180.018 121.61 177.878 113.103 173.775 105.5C173.25 104.525 172.687 103.55 172.125 102.613C167.473 95.1504 161.029 88.9702 153.379 84.6344C145.73 80.2986 137.117 77.9449 128.325 77.7875C128.335 77.7875 128.344 77.7836 128.351 77.7765C128.358 77.7695 128.362 77.76 128.362 77.75H150C158.865 77.7466 167.644 79.4901 175.835 82.8811C184.026 86.2721 191.469 91.244 197.737 97.5126C204.006 103.781 208.978 111.224 212.369 119.415C215.76 127.606 217.503 136.385 217.5 145.25Z" fill="#3D9AE2"/>
<path d="M111.675 77.7875C102.883 77.9449 94.2704 80.2986 86.6205 84.6344C78.9706 88.9702 72.5266 95.1504 67.875 102.612C67.3125 103.55 66.75 104.525 66.225 105.5C62.1217 113.103 59.982 121.61 60 130.25V145.25C60 149.228 58.4196 153.044 55.6066 155.857C52.7936 158.67 48.9782 160.25 45 160.25C43.7335 160.261 42.4715 160.097 41.25 159.763C38.0295 158.936 35.1756 157.061 33.1386 154.434C31.1016 151.806 29.9973 148.575 30 145.25H22.5C22.5149 127.352 29.6313 110.192 42.2867 97.5367C54.9422 84.8813 72.1025 77.7649 90 77.75H111.638C111.638 77.7599 111.641 77.7695 111.648 77.7765C111.656 77.7835 111.665 77.7875 111.675 77.7875Z" fill="#FF6243"/>
<path d="M198.75 159.762V235.25C198.744 237.237 197.952 239.142 196.547 240.547C195.141 241.952 193.237 242.744 191.25 242.75H48.75C46.7627 242.744 44.8585 241.952 43.4533 240.547C42.048 239.142 41.2559 237.237 41.25 235.25V159.762C42.4715 160.097 43.7335 160.261 45 160.25C48.9782 160.25 52.7936 158.67 55.6066 155.857C58.4196 153.044 60 149.228 60 145.25C60 149.228 61.5804 153.044 64.3934 155.857C67.2064 158.67 71.0218 160.25 75 160.25C78.9782 160.25 82.7936 158.67 85.6066 155.857C88.4196 153.044 90 149.228 90 145.25C90 149.228 91.5804 153.044 94.3934 155.857C97.2064 158.67 101.022 160.25 105 160.25C108.978 160.25 112.794 158.67 115.607 155.857C118.42 153.044 120 149.228 120 145.25C120 149.228 121.58 153.044 124.393 155.857C127.206 158.67 131.022 160.25 135 160.25C138.978 160.25 142.794 158.67 145.607 155.857C148.42 153.044 150 149.228 150 145.25C150 149.228 151.58 153.044 154.393 155.857C157.206 158.67 161.022 160.25 165 160.25C168.978 160.25 172.794 158.67 175.607 155.857C178.42 153.044 180 149.228 180 145.25C180 149.228 181.58 153.044 184.393 155.857C187.206 158.67 191.022 160.25 195 160.25C196.267 160.261 197.529 160.097 198.75 159.762Z" fill="#00CCB3"/>
<path d="M101.25 190.25V242.75H63.75V190.25C63.7559 188.263 64.548 186.358 65.9533 184.953C67.3585 183.548 69.2627 182.756 71.25 182.75H93.75C95.7373 182.756 97.6415 183.548 99.0467 184.953C100.452 186.358 101.244 188.263 101.25 190.25Z" fill="#96C8EF"/>
<path d="M172.5 182.75H127.5C125.429 182.75 123.75 184.429 123.75 186.5V209C123.75 211.071 125.429 212.75 127.5 212.75H172.5C174.571 212.75 176.25 211.071 176.25 209V186.5C176.25 184.429 174.571 182.75 172.5 182.75Z" fill="#96C8EF"/>
<path d="M150 107.75V145.25C150 149.228 148.42 153.044 145.607 155.857C142.794 158.67 138.978 160.25 135 160.25C131.022 160.25 127.206 158.67 124.393 155.857C121.58 153.044 120 149.228 120 145.25V77.75C122.504 77.7543 124.998 78.0692 127.425 78.6875C133.261 80.1758 138.513 83.3861 142.5 87.9006C146.486 92.4152 149.021 98.0249 149.775 104C149.926 105.244 150.001 106.497 150 107.75Z" fill="#3D9AE2"/>
<path d="M120 77.75C112.69 77.741 105.628 80.4045 100.144 85.2391C94.6601 90.0737 91.1325 96.7459 90.2251 104C90.0743 105.244 89.9992 106.497 90.0001 107.75V145.25C90.0001 149.228 88.4198 153.044 85.6067 155.857C82.7937 158.67 78.9784 160.25 75.0001 160.25C71.0219 160.25 67.2066 158.67 64.3935 155.857C61.5805 153.044 60.0001 149.228 60.0001 145.25V130.25C59.9821 121.61 62.1219 113.103 66.2251 105.5C66.7501 104.525 67.3126 103.55 67.8751 102.612C72.5267 95.1504 78.9707 88.9702 86.6206 84.6344C94.2705 80.2986 102.883 77.9449 111.675 77.7875C111.949 77.7563 112.225 77.7438 112.5 77.75H120Z" fill="#3D9AE2"/>
<path d="M180 130.25V145.25C180 149.228 178.42 153.044 175.607 155.857C172.794 158.67 168.978 160.25 165 160.25C161.022 160.25 157.206 158.67 154.393 155.857C151.58 153.044 150 149.228 150 145.25V107.75C150.001 106.497 149.926 105.244 149.775 104C149.021 98.0249 146.486 92.4152 142.5 87.9006C138.513 83.3861 133.261 80.1758 127.425 78.6875C124.998 78.0692 122.504 77.7543 120 77.75H127.5C127.776 77.7438 128.051 77.7563 128.325 77.7875C137.117 77.9449 145.73 80.2986 153.379 84.6344C161.029 88.9702 167.473 95.1504 172.125 102.612C172.688 103.55 173.25 104.525 173.775 105.5C177.878 113.103 180.018 121.61 180 130.25Z" fill="#FF6243"/>
<path d="M120 77.75V145.25C120 149.228 118.42 153.044 115.607 155.857C112.794 158.67 108.978 160.25 105 160.25C101.022 160.25 97.2065 158.67 94.3934 155.857C91.5804 153.044 90 149.228 90 145.25V107.75C89.9991 106.497 90.0742 105.244 90.225 104C91.1455 96.7514 94.677 90.0871 100.158 85.255C105.639 80.423 112.693 77.7547 120 77.75Z" fill="#FF6243"/>
<path d="M198.75 159.762V167.263C197.529 167.597 196.267 167.761 195 167.75C191.022 167.75 187.206 166.17 184.393 163.357C181.58 160.544 180 156.728 180 152.75C180 156.728 178.42 160.544 175.607 163.357C172.794 166.17 168.978 167.75 165 167.75C161.022 167.75 157.206 166.17 154.393 163.357C151.58 160.544 150 156.728 150 152.75C150 156.728 148.42 160.544 145.607 163.357C142.794 166.17 138.978 167.75 135 167.75C131.022 167.75 127.206 166.17 124.393 163.357C121.58 160.544 120 156.728 120 152.75C120 156.728 118.42 160.544 115.607 163.357C112.794 166.17 108.978 167.75 105 167.75C101.022 167.75 97.2064 166.17 94.3934 163.357C91.5804 160.544 90 156.728 90 152.75C90 156.728 88.4196 160.544 85.6066 163.357C82.7936 166.17 78.9782 167.75 75 167.75C71.0218 167.75 67.2064 166.17 64.3934 163.357C61.5804 160.544 60 156.728 60 152.75C60 156.728 58.4196 160.544 55.6066 163.357C52.7936 166.17 48.9782 167.75 45 167.75C43.7335 167.761 42.4715 167.597 41.25 167.263V159.762C42.4715 160.097 43.7335 160.261 45 160.25C48.9782 160.25 52.7936 158.67 55.6066 155.857C58.4196 153.044 60 149.228 60 145.25C60 149.228 61.5804 153.044 64.3934 155.857C67.2064 158.67 71.0218 160.25 75 160.25C78.9782 160.25 82.7936 158.67 85.6066 155.857C88.4196 153.044 90 149.228 90 145.25C90 149.228 91.5804 153.044 94.3934 155.857C97.2064 158.67 101.022 160.25 105 160.25C108.978 160.25 112.794 158.67 115.607 155.857C118.42 153.044 120 149.228 120 145.25C120 149.228 121.58 153.044 124.393 155.857C127.206 158.67 131.022 160.25 135 160.25C138.978 160.25 142.794 158.67 145.607 155.857C148.42 153.044 150 149.228 150 145.25C150 149.228 151.58 153.044 154.393 155.857C157.206 158.67 161.022 160.25 165 160.25C168.978 160.25 172.794 158.67 175.607 155.857C178.42 153.044 180 149.228 180 145.25C180 149.228 181.58 153.044 184.393 155.857C187.206 158.67 191.022 160.25 195 160.25C196.267 160.261 197.529 160.097 198.75 159.762Z" fill="#00B39D"/>
<path d="M101.25 194V209L67.5 242.75H63.75V231.5L101.25 194Z" fill="#78B9EB"/>
<path d="M101.25 216.5V229.625L88.125 242.75H75L101.25 216.5Z" fill="#78B9EB"/>
<path d="M176.25 186.5L150 212.75H135L165 182.75H172.5C173.495 182.75 174.448 183.145 175.152 183.848C175.855 184.552 176.25 185.505 176.25 186.5Z" fill="#78B9EB"/>
<path d="M176.25 194V207.125L170.625 212.75H157.5L176.25 194Z" fill="#78B9EB"/>
<path d="M82.5 115.25H90V122.75H82.5V115.25Z" fill="#1E81CE"/>
<path d="M90 115.25H120V122.75H90V115.25Z" fill="#ED1C24"/>
<path d="M150 115.25H157.5V122.75H150V115.25Z" fill="#ED1C24"/>
<path d="M120 115.25H150V122.75H120V115.25Z" fill="#1E81CE"/>
<path d="M139.2 28.55C140.771 30.1233 141.841 32.127 142.274 34.308C142.708 36.4889 142.485 38.7494 141.634 40.8039C140.784 42.8583 139.343 44.6146 137.495 45.8509C135.647 47.0872 133.474 47.748 131.25 47.75H120V36.5C120.002 34.2764 120.663 32.1032 121.899 30.255C123.135 28.4068 124.892 26.9664 126.946 26.1157C129.001 25.265 131.261 25.0423 133.442 25.4755C135.623 25.9088 137.627 26.9787 139.2 28.55Z" fill="#FF6243"/>
<path d="M108.75 25.25C105.766 25.25 102.905 26.4353 100.795 28.545C98.6853 30.6548 97.5 33.5163 97.5 36.5C97.5 39.4837 98.6853 42.3452 100.795 44.455C102.905 46.5647 105.766 47.75 108.75 47.75H120V36.5C120 33.5163 118.815 30.6548 116.705 28.545C114.595 26.4353 111.734 25.25 108.75 25.25Z" fill="#FF6243"/>
<path d="M127.5 47.75V70.25H112.5V47.75H120H127.5Z" fill="#FF5023"/>
<path d="M112.5 47.75V70.25H82.5H75V47.75H108.75H112.5Z" fill="#EE8700"/>
<path d="M165 47.75V70.25H157.5H127.5V47.75H131.25H165Z" fill="#EE8700"/>
<path d="M157.5 70.25V115.25H82.5V70.25H112.5H127.5H157.5Z" fill="#FF9811"/>
<path d="M172.5 179H127.5C125.511 179 123.603 179.79 122.197 181.197C120.79 182.603 120 184.511 120 186.5V209C120 210.989 120.79 212.897 122.197 214.303C123.603 215.71 125.511 216.5 127.5 216.5H172.5C174.489 216.5 176.397 215.71 177.803 214.303C179.21 212.897 180 210.989 180 209V186.5C180 184.511 179.21 182.603 177.803 181.197C176.397 179.79 174.489 179 172.5 179ZM127.5 209V186.5H172.5V209H127.5Z" fill="black"/>
<path d="M201.81 239C202.254 237.799 202.488 236.53 202.5 235.25V162.414C205.259 161.218 207.688 159.375 209.581 157.039C211.474 154.704 212.776 151.946 213.375 149H217.5C218.495 149 219.448 148.605 220.152 147.902C220.855 147.198 221.25 146.245 221.25 145.25C221.271 128.303 215.237 111.907 204.236 99.0164C193.234 86.1262 177.989 77.5906 161.25 74.9487V74H165C165.995 74 166.948 73.6049 167.652 72.9016C168.355 72.1984 168.75 71.2446 168.75 70.25V47.75C168.75 46.7554 168.355 45.8016 167.652 45.0983C166.948 44.3951 165.995 44 165 44H144.165C145.515 41.7299 146.234 39.1409 146.25 36.5C146.264 33.446 145.341 30.4613 143.605 27.948C141.87 25.4347 139.407 23.5138 136.546 22.4439C133.686 21.3741 130.566 21.2069 127.607 21.9647C124.649 22.7226 121.994 24.3691 120 26.6825C117.57 23.8489 114.166 22.029 110.46 21.5819C106.755 21.1348 103.016 22.0929 99.9815 24.2673C96.9474 26.4416 94.8384 29.6743 94.0708 33.3273C93.3032 36.9803 93.9327 40.7883 95.835 44H75C74.0054 44 73.0516 44.3951 72.3483 45.0983C71.6451 45.8016 71.25 46.7554 71.25 47.75V70.25C71.25 71.2446 71.6451 72.1984 72.3483 72.9016C73.0516 73.6049 74.0054 74 75 74H78.75V74.9637C62.015 77.6096 46.7749 86.1442 35.7746 99.0304C24.7743 111.917 18.7369 128.307 18.75 145.25C18.75 146.245 19.1451 147.198 19.8484 147.902C20.5516 148.605 21.5054 149 22.5 149H26.625C27.221 151.949 28.5212 154.711 30.4148 157.049C32.3083 159.387 34.7391 161.233 37.5 162.429V235.25C37.5124 236.53 37.7459 237.799 38.19 239H15V246.5H225V239H201.81ZM195.083 100.16C206.147 111.186 212.756 125.905 213.645 141.5H210C209.005 141.5 208.052 141.895 207.348 142.598C206.645 143.302 206.25 144.255 206.25 145.25C206.251 147.757 205.414 150.192 203.87 152.168C202.327 154.144 200.167 155.546 197.734 156.151C196.843 156.395 195.923 156.512 195 156.5C192.016 156.5 189.155 155.315 187.045 153.205C184.935 151.095 183.75 148.234 183.75 145.25V130.25C183.74 121.539 181.701 112.951 177.796 105.165C173.89 97.3791 168.225 90.6095 161.25 85.3925V82.5312C174.056 84.8361 185.856 90.985 195.083 100.16ZM82.5 119H86.25V145.25C86.25 148.234 85.0647 151.095 82.955 153.205C80.8452 155.315 77.9837 156.5 75 156.5C72.0163 156.5 69.1548 155.315 67.045 153.205C64.9353 151.095 63.75 148.234 63.75 145.25V130.25C63.7601 123.698 65.094 117.215 67.6716 111.191C70.2493 105.167 74.0174 99.7265 78.75 95.195V115.25C78.75 116.245 79.1451 117.198 79.8483 117.902C80.5516 118.605 81.5054 119 82.5 119ZM93.75 119H116.25V145.25C116.25 148.234 115.065 151.095 112.955 153.205C110.845 155.315 107.984 156.5 105 156.5C102.016 156.5 99.1548 155.315 97.045 153.205C94.9353 151.095 93.75 148.234 93.75 145.25V119ZM123.75 119H146.25V145.25C146.25 148.234 145.065 151.095 142.955 153.205C140.845 155.315 137.984 156.5 135 156.5C132.016 156.5 129.155 155.315 127.045 153.205C124.935 151.095 123.75 148.234 123.75 145.25V119ZM153.75 119H157.5C158.495 119 159.448 118.605 160.152 117.902C160.855 117.198 161.25 116.245 161.25 115.25V95.195C165.983 99.7265 169.751 105.167 172.328 111.191C174.906 117.215 176.24 123.698 176.25 130.25V145.25C176.25 148.234 175.065 151.095 172.955 153.205C170.845 155.315 167.984 156.5 165 156.5C162.016 156.5 159.155 155.315 157.045 153.205C154.935 151.095 153.75 148.234 153.75 145.25V119ZM161.25 66.5H131.25V51.5H161.25V66.5ZM123.75 51.5V66.5H116.25V51.5H123.75ZM131.25 29C133.239 29 135.147 29.7902 136.553 31.1967C137.96 32.6032 138.75 34.5109 138.75 36.5C138.75 38.4891 137.96 40.3968 136.553 41.8033C135.147 43.2098 133.239 44 131.25 44H123.75V36.5C123.75 34.5109 124.54 32.6032 125.947 31.1967C127.353 29.7902 129.261 29 131.25 29ZM101.25 36.5C101.25 34.5109 102.04 32.6032 103.447 31.1967C104.853 29.7902 106.761 29 108.75 29C110.739 29 112.647 29.7902 114.053 31.1967C115.46 32.6032 116.25 34.5109 116.25 36.5V44H108.75C106.761 44 104.853 43.2098 103.447 41.8033C102.04 40.3968 101.25 38.4891 101.25 36.5ZM78.75 51.5H108.75V66.5H78.75V51.5ZM153.75 74V111.5H86.25V74H153.75ZM33.75 145.25C33.75 144.255 33.3549 143.302 32.6516 142.598C31.9484 141.895 30.9946 141.5 30 141.5H26.3587C27.187 127.212 32.8087 113.621 42.3155 102.923C51.8222 92.2244 64.6585 85.0443 78.75 82.5425V85.3925C71.7746 90.6095 66.1099 97.3791 62.2045 105.165C58.2991 112.951 56.2605 121.539 56.25 130.25V145.25C56.25 148.234 55.0647 151.095 52.955 153.205C50.8452 155.315 47.9837 156.5 45 156.5C44.0446 156.508 43.0927 156.382 42.1725 156.125C39.7592 155.507 37.6208 154.102 36.0954 152.133C34.57 150.163 33.7447 147.741 33.75 145.25ZM97.5 239H67.5V190.25C67.5 189.255 67.8951 188.302 68.5983 187.598C69.3016 186.895 70.2554 186.5 71.25 186.5H93.75C94.7446 186.5 95.6984 186.895 96.4017 187.598C97.1049 188.302 97.5 189.255 97.5 190.25V239ZM105 239V190.25C105 187.266 103.815 184.405 101.705 182.295C99.5952 180.185 96.7337 179 93.75 179H71.25C68.2663 179 65.4048 180.185 63.295 182.295C61.1853 184.405 60 187.266 60 190.25V239H48.75C47.7554 239 46.8016 238.605 46.0984 237.902C45.3951 237.198 45 236.245 45 235.25V164C47.9217 163.992 50.8007 163.298 53.4058 161.976C56.0109 160.653 58.2694 158.738 60 156.384C61.7246 158.744 63.9819 160.664 66.5883 161.988C69.1948 163.311 72.0767 164.001 75 164.001C77.9233 164.001 80.8052 163.311 83.4117 161.988C86.0181 160.664 88.2754 158.744 90 156.384C91.7246 158.744 93.9819 160.664 96.5883 161.988C99.1948 163.311 102.077 164.001 105 164.001C107.923 164.001 110.805 163.311 113.412 161.988C116.018 160.664 118.275 158.744 120 156.384C121.725 158.744 123.982 160.664 126.588 161.988C129.195 163.311 132.077 164.001 135 164.001C137.923 164.001 140.805 163.311 143.412 161.988C146.018 160.664 148.275 158.744 150 156.384C151.725 158.744 153.982 160.664 156.588 161.988C159.195 163.311 162.077 164.001 165 164.001C167.923 164.001 170.805 163.311 173.412 161.988C176.018 160.664 178.275 158.744 180 156.384C181.731 158.738 183.989 160.653 186.594 161.976C189.199 163.298 192.078 163.992 195 164V235.25C195 236.245 194.605 237.198 193.902 237.902C193.198 238.605 192.245 239 191.25 239H105Z" fill="black"/>
<path d="M86.25 205.25H93.75V220.25H86.25V205.25Z" fill="black"/>
</svg>
