<svg width="224" height="274" viewBox="0 0 224 274" fill="none" xmlns="http://www.w3.org/2000/svg">
<path d="M8 4H4V8V166C4 223.438 50.5624 270 108 270H116C173.438 270 220 223.438 220 166V8V4H216H8Z" fill="white" stroke="black" stroke-width="8"/>
<path d="M54.9355 39.6774V52.5807C40.6774 52.5807 29.1291 64.129 29.1291 78.3871V117.097H19.4516C17.6774 117.097 16.2258 115.645 16.2258 113.871V78.3871C16.2258 57 33.5484 39.6774 54.9355 39.6774Z" fill="#CF9E76"/>
<path d="M209.774 78.3871V113.871C209.774 115.645 208.323 117.097 206.548 117.097H196.871V78.3871C196.871 64.129 185.323 52.5807 171.064 52.5807V39.6774C192.452 39.6774 209.774 57 209.774 78.3871Z" fill="#CF9E76"/>
<path d="M171.065 52.5806V65.4839C171.065 69.0322 168.161 71.9355 164.613 71.9355H61.3872C57.8388 71.9355 54.9356 69.0322 54.9356 65.4839V52.5806C40.6775 52.5806 29.1292 64.129 29.1292 78.3871V117.097V217.097C29.1292 218.871 30.5808 220.323 32.355 220.323H193.645C195.419 220.323 196.871 218.871 196.871 217.097V117.097V78.3871C196.871 64.129 185.323 52.5806 171.065 52.5806Z" fill="#ECC19C"/>
<path d="M113 110.645C127.258 110.645 138.807 122.194 138.807 136.452C138.807 138.677 138.516 140.839 138 142.903H127.419C123.871 138.935 118.71 136.452 113 136.452C107.29 136.452 102.129 138.935 98.5807 142.903H88.0001C87.4839 140.839 87.1936 138.677 87.1936 136.452C87.1936 131.355 88.6775 126.581 91.2581 122.581C95.8065 115.387 103.839 110.645 113 110.645Z" fill="#B4DD7F"/>
<path d="M51.0645 102.903L61.3871 110.645L58.7419 113.29C58.5484 113.484 58.3871 113.677 58.1935 113.871H47.6451C44.5484 113.871 42.0322 111.355 42.0322 108.258C42.0322 105.839 43.5806 103.677 45.8709 102.903L49.7742 101.613C50.1613 102.097 50.5806 102.516 51.0645 102.903Z" fill="#B4DD7F"/>
<path d="M56.129 93.2903L64.6129 107.419L64.6452 107.452C64.4194 107.613 64.2258 107.806 64.0323 108L61.3871 110.645L51.0645 102.903C50.5807 102.516 50.1613 102.097 49.7742 101.613C48.9678 100.516 48.4839 99.1613 48.4839 97.742V95.4194C48.4839 93.1291 50.3226 91.2903 52.6129 91.2903C54.0645 91.2903 55.3871 92.0645 56.129 93.2903Z" fill="#B4DD7F"/>
<path d="M84.2259 110.387C84.3549 110.484 84.4194 110.613 84.4839 110.742L91.2581 122.581C88.6775 126.581 87.1936 131.355 87.1936 136.452C87.1936 138.677 87.4839 140.839 88.0001 142.903H77.5162L61.4839 133.742C57.4194 131.419 54.9355 127.129 54.9355 122.484C54.9355 119.29 56.0968 116.226 58.1936 113.871C58.3872 113.677 58.5485 113.484 58.742 113.29L61.3872 110.645L64.0323 108C64.2259 107.806 64.4194 107.613 64.6452 107.452C67.0001 105.355 70.0323 104.194 73.2259 104.194C77.742 104.194 81.9033 106.516 84.2259 110.387Z" fill="#FF826E"/>
<path d="M183.968 110.645C183.968 117.774 178.193 123.548 171.064 123.548C170.516 123.548 170 123.516 169.484 123.419C165.452 122.968 162 120.581 160.032 117.226C159.323 117.806 158.548 118.355 157.742 118.774C155.935 119.774 153.903 120.323 151.71 120.323C149.226 120.323 146.903 119.613 144.935 118.387C141.258 116.129 138.806 112.064 138.806 107.419C138.806 100.29 144.581 94.5161 151.71 94.5161C151.871 94.5161 152 94.5484 152.161 94.5484C153.581 88.9677 158.581 84.8387 164.613 84.8387C171.742 84.8387 177.516 90.6129 177.516 97.7419C177.516 98.3226 177.419 98.8709 177.355 99.4516C181.29 101.645 183.968 105.806 183.968 110.645Z" fill="#B4DD7F"/>
<path d="M169.484 123.419V123.452L164.613 142.903H151.71L157.742 118.774C158.548 118.355 159.323 117.806 160.032 117.226C162 120.581 165.452 122.968 169.484 123.419Z" fill="#FF826E"/>
<path d="M157.742 118.774L151.71 142.903H138.806L144.935 118.387C146.903 119.613 149.226 120.323 151.71 120.323C153.903 120.323 155.935 119.774 157.742 118.774Z" fill="#FF826E"/>
<path d="M80.742 162.258L54.9355 188.065V162.258H80.742Z" fill="#E6E9ED"/>
<path d="M171.065 207.419V220.323C171.065 223.871 168.161 226.774 164.613 226.774H145.258V207.419C145.258 203.871 142.355 200.968 138.807 200.968C137.032 200.968 135.419 201.677 134.258 202.871C133.065 204.032 132.355 205.645 132.355 207.419V226.774H119.452V194.516C119.452 192.742 118.742 191.129 117.548 189.968C116.387 188.774 114.774 188.065 113 188.065C109.452 188.065 106.548 190.968 106.548 194.516V226.774H93.6452V207.419C93.6452 203.871 90.742 200.968 87.1936 200.968C85.4194 200.968 83.8065 201.677 82.6452 202.871C81.4517 204.032 80.742 205.645 80.742 207.419V226.774H61.3872C57.8388 226.774 54.9355 223.871 54.9355 220.323V207.419L96.4839 165.871C99.871 171.452 106 175.161 113 175.161C120 175.161 126.129 171.452 129.516 165.871L171.065 207.419Z" fill="#E6E9ED"/>
<path d="M171.065 162.258V188.065L145.258 162.258H171.065Z" fill="#E6E9ED"/>
<path d="M145.258 207.419V226.774H132.355V207.419C132.355 205.645 133.064 204.032 134.258 202.871C135.419 201.677 137.032 200.968 138.806 200.968C142.355 200.968 145.258 203.871 145.258 207.419Z" fill="#FCD770"/>
<path d="M119.452 194.516V226.774H106.548V194.516C106.548 190.968 109.452 188.065 113 188.065C114.774 188.065 116.387 188.774 117.548 189.968C118.742 191.129 119.452 192.742 119.452 194.516Z" fill="#FCD770"/>
<path d="M93.6452 207.419V226.774H80.7419V207.419C80.7419 205.645 81.4516 204.032 82.6452 202.871C83.8065 201.677 85.4194 200.968 87.1936 200.968C90.7419 200.968 93.6452 203.871 93.6452 207.419Z" fill="#FCD770"/>
<path d="M96.4839 165.871L54.9355 207.419C51.3871 207.419 48.4839 204.516 48.4839 200.968V197.194C48.4839 195.484 49.1613 193.839 50.3871 192.613L54.9355 188.065L80.742 162.258L95.5484 147.452C94.3226 149.968 93.6452 152.806 93.6452 155.806C93.6452 159.516 94.6774 162.935 96.4839 165.871Z" fill="#FF826E"/>
<path d="M130.484 147.484L145.258 162.258L171.065 188.065L175.613 192.613C176.839 193.839 177.516 195.484 177.516 197.194V200.968C177.516 204.516 174.613 207.419 171.065 207.419L129.516 165.871C131.323 162.936 132.355 159.516 132.355 155.806C132.355 152.806 131.677 150 130.484 147.484Z" fill="#FF826E"/>
<path d="M88 142.903H98.5807C97.3549 144.258 96.3549 145.774 95.5484 147.452L80.742 162.258H54.9355H51.7097C49.9355 162.258 48.4839 160.806 48.4839 159.032V146.129C48.4839 144.355 49.9355 142.903 51.7097 142.903H77.5161H88Z" fill="#AAB2BD"/>
<path d="M138.807 142.903H151.71H164.613H174.29C176.065 142.903 177.516 144.355 177.516 146.129V159.032C177.516 160.806 176.065 162.258 174.29 162.258H171.065H145.258L130.484 147.484C129.677 145.806 128.645 144.258 127.419 142.903H138H138.807Z" fill="#AAB2BD"/>
<path d="M130.484 147.484C131.678 150 132.355 152.806 132.355 155.806C132.355 159.516 131.323 162.935 129.516 165.871C126.129 171.452 120 175.161 113 175.161C106 175.161 99.8711 171.452 96.484 165.871C94.6775 162.935 93.6453 159.516 93.6453 155.806C93.6453 152.806 94.3227 149.968 95.5485 147.452C96.3549 145.774 97.3549 144.258 98.5807 142.903C102.129 138.935 107.29 136.452 113 136.452C118.71 136.452 123.871 138.935 127.419 142.903C128.645 144.258 129.678 145.806 130.484 147.484Z" fill="#FCD770"/>
<path d="M113 162.258C116.563 162.258 119.452 159.37 119.452 155.806C119.452 152.243 116.563 149.355 113 149.355C109.437 149.355 106.548 152.243 106.548 155.806C106.548 159.37 109.437 162.258 113 162.258Z" fill="#FFC729"/>
<path d="M171.065 52.5807V65.4839C171.065 69.0323 168.161 71.9355 164.613 71.9355H61.3872C57.8388 71.9355 54.9355 69.0323 54.9355 65.4839V52.5807V39.6774C54.9355 36.1291 57.8388 33.2258 61.3872 33.2258H164.613C168.161 33.2258 171.065 36.1291 171.065 39.6774V52.5807Z" fill="#E6E9ED"/>
<path d="M151.71 59.0323C155.273 59.0323 158.161 56.1438 158.161 52.5806C158.161 49.0175 155.273 46.129 151.71 46.129C148.147 46.129 145.258 49.0175 145.258 52.5806C145.258 56.1438 148.147 59.0323 151.71 59.0323Z" fill="#FF826E"/>
<path d="M125.903 59.0323C129.466 59.0323 132.355 56.1438 132.355 52.5806C132.355 49.0175 129.466 46.129 125.903 46.129C122.34 46.129 119.452 49.0175 119.452 52.5806C119.452 56.1438 122.34 59.0323 125.903 59.0323Z" fill="#FF826E"/>
<path d="M100.097 59.0323C103.66 59.0323 106.548 56.1438 106.548 52.5806C106.548 49.0175 103.66 46.129 100.097 46.129C96.5337 46.129 93.6453 49.0175 93.6453 52.5806C93.6453 56.1438 96.5337 59.0323 100.097 59.0323Z" fill="#FF826E"/>
<path d="M74.2902 59.0323C77.8534 59.0323 80.7418 56.1438 80.7418 52.5806C80.7418 49.0175 77.8534 46.129 74.2902 46.129C70.7271 46.129 67.8386 49.0175 67.8386 52.5806C67.8386 56.1438 70.7271 59.0323 74.2902 59.0323Z" fill="#FF826E"/>
<path d="M125.903 62.258C131.239 62.258 135.581 57.9161 135.581 52.5806C135.581 47.2451 131.239 42.9032 125.903 42.9032C120.568 42.9032 116.226 47.2451 116.226 52.5806C116.226 57.9161 120.568 62.258 125.903 62.258ZM125.903 49.3548C127.684 49.3548 129.129 50.8 129.129 52.5806C129.129 54.3613 127.684 55.8064 125.903 55.8064C124.123 55.8064 122.677 54.3613 122.677 52.5806C122.677 50.8 124.123 49.3548 125.903 49.3548Z" fill="black"/>
<path d="M151.71 62.258C157.045 62.258 161.387 57.9161 161.387 52.5806C161.387 47.2451 157.045 42.9032 151.71 42.9032C146.374 42.9032 142.032 47.2451 142.032 52.5806C142.032 57.9161 146.374 62.258 151.71 62.258ZM151.71 49.3548C153.49 49.3548 154.935 50.8 154.935 52.5806C154.935 54.3613 153.49 55.8064 151.71 55.8064C149.929 55.8064 148.484 54.3613 148.484 52.5806C148.484 50.8 149.929 49.3548 151.71 49.3548Z" fill="black"/>
<path d="M100.097 62.258C105.432 62.258 109.774 57.9161 109.774 52.5806C109.774 47.2451 105.432 42.9032 100.097 42.9032C94.7614 42.9032 90.4194 47.2451 90.4194 52.5806C90.4194 57.9161 94.7614 62.258 100.097 62.258ZM100.097 49.3548C101.877 49.3548 103.323 50.8 103.323 52.5806C103.323 54.3613 101.877 55.8064 100.097 55.8064C98.3162 55.8064 96.871 54.3613 96.871 52.5806C96.871 50.8 98.3162 49.3548 100.097 49.3548Z" fill="black"/>
<path d="M74.2902 62.258C79.6257 62.258 83.9676 57.9161 83.9676 52.5806C83.9676 47.2451 79.6257 42.9032 74.2902 42.9032C68.9547 42.9032 64.6128 47.2451 64.6128 52.5806C64.6128 57.9161 68.9547 62.258 74.2902 62.258ZM74.2902 49.3548C76.0709 49.3548 77.516 50.8 77.516 52.5806C77.516 54.3613 76.0709 55.8064 74.2902 55.8064C72.5096 55.8064 71.0644 54.3613 71.0644 52.5806C71.0644 50.8 72.5096 49.3548 74.2902 49.3548Z" fill="black"/>
<path d="M173.739 36.5871C172.442 32.771 168.861 30 164.613 30H61.3871C57.1387 30 53.5581 32.771 52.2613 36.5871C30.3871 37.9774 13 56.1677 13 78.3871V113.871C13 117.429 15.8935 120.323 19.4516 120.323H25.9032V217.097C25.9032 220.655 28.7968 223.548 32.3548 223.548H52.3032C53.6387 227.294 57.1871 230 61.3871 230H164.613C168.813 230 172.361 227.294 173.697 223.548H193.645C197.203 223.548 200.097 220.655 200.097 217.097V120.323H206.548C210.106 120.323 213 117.429 213 113.871V78.3871C213 56.1677 195.613 37.9774 173.739 36.5871ZM58.1613 39.6774C58.1613 37.8968 59.6065 36.4516 61.3871 36.4516H164.613C166.394 36.4516 167.839 37.8968 167.839 39.6774V65.4839C167.839 67.2645 166.394 68.7097 164.613 68.7097H61.3871C59.6065 68.7097 58.1613 67.2645 58.1613 65.4839V39.6774ZM25.9032 78.3871V113.871H19.4516V78.3871C19.4516 59.9097 33.6516 44.7032 51.7097 43.0677V49.5452C37.2161 51.1548 25.9032 63.4677 25.9032 78.3871ZM46.9 105.974L48.9355 105.297C49.0065 105.355 49.0581 105.429 49.1323 105.484L56.0129 110.645H47.6548C46.3323 110.645 45.2581 109.571 45.2581 108.248C45.2581 107.216 45.9161 106.297 46.9 105.974ZM51.7097 97.7419V95.4097C51.7097 94.9161 52.1097 94.5161 52.6032 94.5161C52.9161 94.5161 53.2097 94.6839 53.3677 94.9516L59.529 105.223L52.9968 100.323C52.1903 99.7161 51.7097 98.7516 51.7097 97.7419ZM61.0161 115.577L66.3226 110.271C68.1355 108.458 70.6452 107.419 73.2129 107.419C75.7452 107.419 78.129 108.432 79.9194 110.132L68.7839 121.268L73.3452 125.829L83.5548 115.619L87.5161 122.555C85.2581 126.684 83.9677 131.419 83.9677 136.452C83.9677 137.532 84.0516 138.606 84.171 139.677H78.3742L63.0742 130.935C60.0419 129.203 58.1613 125.961 58.1613 122.471C58.1613 119.903 59.2 117.394 61.0161 115.577ZM109.774 120.194C108.203 119.923 106.755 119.194 105.603 118.042L101.042 122.603C103.732 125.294 107.306 126.774 111.11 126.774H114.89C118.694 126.774 122.268 125.294 124.958 122.603L120.397 118.042C119.245 119.194 117.797 119.923 116.226 120.194V114.129C127.148 115.703 135.581 125.1 135.581 136.452C135.581 137.535 135.484 138.61 135.329 139.677H128.771C124.697 135.694 119.132 133.226 113 133.226C106.868 133.226 101.303 135.694 97.229 139.677H90.671C90.5161 138.61 90.4194 137.535 90.4194 136.452C90.4194 125.1 98.8516 115.703 109.774 114.129V120.194ZM175.768 102.252C178.835 103.977 180.742 107.194 180.742 110.645C180.742 115.981 176.4 120.323 171.065 120.323C167.658 120.323 164.565 118.542 162.787 115.565L160.839 112.287L157.932 114.755C156.671 115.823 154.574 117.097 151.71 117.097C146.374 117.097 142.032 112.755 142.032 107.419C142.032 102.084 146.374 97.7419 151.5 97.7323L154.632 97.8936L155.277 95.3581C156.371 91.0645 160.213 88.0645 164.613 88.0645C169.948 88.0645 174.29 92.4065 174.29 97.7419C174.29 98.0548 174.239 98.3548 174.197 98.6548L173.868 101.184L175.768 102.252ZM172.197 203.99L133.474 165.268C134.642 162.752 135.352 159.99 135.516 157.077L173.345 194.906C173.948 195.51 174.29 196.339 174.29 197.187V200.968C174.29 202.348 173.416 203.529 172.197 203.99ZM96.871 155.806C96.871 146.913 104.106 139.677 113 139.677C121.894 139.677 129.129 146.913 129.129 155.806C129.129 164.7 121.894 171.935 113 171.935C104.106 171.935 96.871 164.7 96.871 155.806ZM153.045 165.484H167.839V180.277L153.045 165.484ZM146.594 159.032L133.69 146.129H174.29V159.032H146.594ZM155.839 139.677L160.161 122.387C161.739 123.871 163.568 125.003 165.581 125.739L162.097 139.677H155.839ZM151.71 123.548C152.226 123.548 152.739 123.5 153.248 123.452L149.194 139.677H142.935L147.152 122.813C148.606 123.245 150.116 123.548 151.71 123.548ZM92.3097 146.129L79.4065 159.032H51.7097V146.129H92.3097ZM72.9548 165.484L58.1613 180.277V165.484H72.9548ZM52.6548 194.906L90.4839 157.077C90.6484 159.99 91.3581 162.752 92.5258 165.268L53.8032 203.99C52.5839 203.529 51.7097 202.348 51.7097 200.968V197.187C51.7097 196.339 52.0516 195.51 52.6548 194.906ZM90.4194 223.548H83.9677V207.419C83.9677 205.639 85.4129 204.194 87.1936 204.194C88.9742 204.194 90.4194 205.639 90.4194 207.419V223.548ZM116.226 223.548H109.774V194.516C109.774 192.735 111.219 191.29 113 191.29C114.781 191.29 116.226 192.735 116.226 194.516V223.548ZM142.032 223.548H135.581V207.419C135.581 205.639 137.026 204.194 138.806 204.194C140.587 204.194 142.032 205.639 142.032 207.419V223.548ZM164.613 223.548H148.484V207.419C148.484 202.084 144.142 197.742 138.806 197.742C133.471 197.742 129.129 202.084 129.129 207.419V223.548H122.677V194.516C122.677 189.181 118.335 184.839 113 184.839C107.665 184.839 103.323 189.181 103.323 194.516V223.548H96.871V207.419C96.871 202.084 92.529 197.742 87.1936 197.742C81.8581 197.742 77.5161 202.084 77.5161 207.419V223.548H61.3871C59.6065 223.548 58.1613 222.103 58.1613 220.323V208.755L96.1419 170.774C100.281 175.432 106.294 178.387 113 178.387C119.706 178.387 125.719 175.432 129.858 170.774L167.839 208.755V220.323C167.839 222.103 166.394 223.548 164.613 223.548ZM193.645 217.097H174.29V210.052C178.035 208.716 180.742 205.168 180.742 200.968V197.187C180.742 194.603 179.732 192.171 177.906 190.345L174.29 186.729V165.484C177.848 165.484 180.742 162.59 180.742 159.032V146.129C180.742 142.571 177.848 139.677 174.29 139.677H168.742L171.99 126.681C180.448 126.187 187.194 119.219 187.194 110.645C187.194 105.587 184.768 100.839 180.742 97.8097C180.742 97.7871 180.742 97.7613 180.742 97.7419C180.742 88.8484 173.506 81.6129 164.613 81.6129C158.1 81.6129 152.326 85.5323 149.826 91.4C141.816 92.3355 135.581 99.1613 135.581 107.419C135.581 112.326 137.829 116.674 141.3 119.635L139.848 125.439C135.894 115.829 126.932 108.8 116.226 107.613V100.968H109.774V107.61C102.639 108.403 96.2935 111.803 91.671 116.819L87.2774 109.129C84.4032 104.097 79.0129 100.968 73.2129 100.968C70.5677 100.968 67.9968 101.7 65.6774 102.923L58.9032 91.6323C57.5839 89.4323 55.171 88.0645 52.6032 88.0645C48.5516 88.0645 45.2581 91.3581 45.2581 95.4097V97.7419C45.2581 98.3871 45.3548 99.0194 45.4839 99.6452L44.8581 99.8548C41.2387 101.058 38.8065 104.432 38.8065 108.248C38.8065 113.129 42.7742 117.097 47.6548 117.097H52.7C52.0903 118.819 51.7097 120.629 51.7097 122.471C51.7097 128.271 54.8387 133.661 59.871 136.535L65.3677 139.677H51.7097C48.1516 139.677 45.2581 142.571 45.2581 146.129V159.032C45.2581 162.59 48.1516 165.484 51.7097 165.484V186.729L48.0935 190.345C46.2677 192.171 45.2581 194.603 45.2581 197.187V200.968C45.2581 205.168 47.9645 208.716 51.7097 210.052V217.097H32.3548V78.3871C32.3548 67.0355 40.7871 57.6387 51.7097 56.0645V65.4839C51.7097 70.8194 56.0516 75.1613 61.3871 75.1613H164.613C169.948 75.1613 174.29 70.8194 174.29 65.4839V56.0645C185.213 57.6387 193.645 67.0355 193.645 78.3871V217.097ZM206.548 113.871H200.097V78.3871C200.097 63.4677 188.784 51.1548 174.29 49.5452V43.0677C192.348 44.7032 206.548 59.9097 206.548 78.3871V113.871Z" fill="black"/>
<path d="M113 165.484C118.335 165.484 122.677 161.142 122.677 155.806C122.677 150.471 118.335 146.129 113 146.129C107.664 146.129 103.323 150.471 103.323 155.806C103.323 161.142 107.664 165.484 113 165.484ZM113 152.581C114.781 152.581 116.226 154.026 116.226 155.806C116.226 157.587 114.781 159.032 113 159.032C111.219 159.032 109.774 157.587 109.774 155.806C109.774 154.026 111.219 152.581 113 152.581Z" fill="black"/>
</svg>
