<svg width="224" height="274" viewBox="0 0 224 274" fill="none" xmlns="http://www.w3.org/2000/svg">
<path d="M8 4H4V8V166C4 223.438 50.5624 270 108 270H116C173.438 270 220 223.438 220 166V8V4H216H8Z" fill="white" stroke="black" stroke-width="8"/>
<g clip-path="url(#clip0)">
<path d="M193.069 161.674C182.009 161.674 173.044 152.709 173.044 141.65C173.044 152.709 164.08 161.674 153.02 161.674C141.961 161.674 132.996 152.709 132.996 141.65C132.996 152.709 124.031 161.674 112.972 161.674C102.267 161.674 93.5242 153.273 92.9764 142.704C92.4282 153.273 83.6857 161.674 72.9804 161.674C61.9214 161.674 52.9564 152.709 52.9564 141.65H52.9008C52.9008 152.709 43.9358 161.674 32.8767 161.674C27.7604 161.674 23.0948 159.753 19.5554 156.596V244.663H206.391V156.596C202.85 159.753 198.184 161.674 193.069 161.674V161.674Z" fill="#F05475"/>
<path d="M197.49 161.18V244.663H206.39V156.596C203.902 158.815 200.857 160.42 197.49 161.18V161.18Z" fill="#E21743"/>
<path d="M199.743 81.5781H26.2016L12.8523 134.975V141.65C12.8523 152.709 21.8173 161.674 32.8763 161.674C43.9354 161.674 52.9003 152.709 52.9003 141.65H52.956C52.956 152.709 61.921 161.674 72.98 161.674C83.6853 161.674 92.4282 153.273 92.976 142.704C93.5242 153.273 102.267 161.674 112.972 161.674C124.031 161.674 132.996 152.709 132.996 141.65C132.996 152.709 141.961 161.674 153.02 161.674C164.079 161.674 173.044 152.709 173.044 141.65C173.044 152.709 182.009 161.674 193.068 161.674C204.127 161.674 213.092 152.709 213.092 141.65V134.975L199.743 81.5781Z" fill="white"/>
<path d="M92.9485 81.5781V143.068C92.9569 142.946 92.9698 142.826 92.9761 142.704C93.5243 153.273 102.267 161.674 112.972 161.674C124.031 161.674 132.996 152.709 132.996 141.65V81.5781H92.9485Z" fill="#B6E6FA"/>
<path d="M32.8763 161.674C21.8173 161.674 12.8523 152.709 12.8523 141.65V134.975L26.2016 81.5781H59.575L52.9195 142.403C52.9101 142.153 52.9003 141.903 52.9003 141.65C52.9003 152.709 43.9349 161.674 32.8763 161.674V161.674Z" fill="#B6E6FA"/>
<path d="M50.6754 81.5781L44.0194 142.403C44.0101 142.153 44.0003 141.903 44.0003 141.65C44.0003 151.179 37.3421 159.148 28.426 161.172C29.858 161.497 31.3455 161.674 32.8758 161.674C43.9349 161.674 52.8998 152.709 52.8998 141.65C52.8998 141.902 52.9096 142.153 52.919 142.403L59.5745 81.5781H50.6754Z" fill="#54C9F3"/>
<path d="M193.069 161.674C204.128 161.674 213.093 152.709 213.093 141.65V134.975L199.743 81.5781H166.37L173.025 142.403C173.035 142.153 173.045 141.903 173.045 141.65C173.045 152.709 182.01 161.674 193.069 161.674Z" fill="#B6E6FA"/>
<path d="M199.743 81.5781H190.844L204.193 134.975V141.65C204.193 151.179 197.535 159.148 188.619 161.172C190.051 161.497 191.538 161.674 193.069 161.674C204.128 161.674 213.093 152.709 213.093 141.65V134.975L199.743 81.5781Z" fill="#54C9F3"/>
<path d="M113 138.076C142.475 138.076 166.369 114.182 166.369 84.7067C166.369 55.2316 142.475 31.3373 113 31.3373C83.5249 31.3373 59.6306 55.2316 59.6306 84.7067C59.6306 114.182 83.5249 138.076 113 138.076Z" fill="#FEE95D"/>
<path d="M113 31.3373C111.501 31.3373 110.018 31.4023 108.55 31.5233C135.943 33.7847 157.47 56.7305 157.47 84.7067C157.47 112.683 135.943 135.629 108.55 137.89C110.018 138.011 111.501 138.076 113 138.076C142.475 138.076 166.369 114.182 166.369 84.7063C166.369 55.2309 142.475 31.3373 113 31.3373V31.3373Z" fill="#FCAD42"/>
<path d="M19.5547 174.384H86.3015V217.964H19.5547V174.384Z" fill="#8AD8F6"/>
<path d="M77.4019 174.384H86.3014V217.964H77.4019V174.384Z" fill="#00ADEB"/>
<path d="M139.671 174.384H206.418V217.964H139.671V174.384Z" fill="#8AD8F6"/>
<path d="M197.518 174.384H206.418V217.964H197.518V174.384Z" fill="#00ADEB"/>
<path d="M86.3013 174.384H139.643V244.663H86.3013V174.384Z" fill="#FEE95D"/>
<path d="M130.743 174.384V235.763H86.3013V244.663H139.643V174.384H130.743Z" fill="#FCAD42"/>
<path d="M97.4395 94.927H88.54C83.6247 94.927 79.6404 90.9427 79.6404 86.0274V74.8749H106.339V86.0274C106.339 90.9427 102.355 94.927 97.4395 94.927Z" fill="white"/>
<path d="M146.36 82.9989C146.36 94.9181 140.383 99.4631 133.01 99.4631C125.637 99.4631 119.661 94.9181 119.661 82.9989C119.661 71.0797 125.637 61.4174 133.01 61.4174C140.383 61.4174 146.36 71.0797 146.36 82.9989V82.9989Z" fill="white"/>
<path d="M67.1671 191.961H60.4924V185.286H67.1671V191.961ZM53.8177 191.961H47.1431V185.286H53.8177V191.961ZM40.4684 191.961H33.7937V185.286H40.4684V191.961Z" fill="white"/>
<path d="M209.727 241.325V204.823H203.052V214.627H143.008V177.721H203.052V198.162H209.727V158.007C213.869 153.789 216.43 148.014 216.43 141.65V134.565L202.349 78.2407H169.341C167.675 63.5671 160.375 50.1332 148.74 40.6779L144.53 45.8579C156.288 55.4133 163.032 69.5734 163.032 84.7067C163.032 103.868 152.203 120.546 136.344 128.947L136.348 102.521C144.771 101.079 149.697 94.013 149.697 82.9984C149.697 69.0252 142.368 58.0797 133.011 58.0797C123.654 58.0797 116.324 69.0252 116.324 82.9984C116.324 94.0125 121.249 101.079 129.673 102.521L129.67 131.88C124.453 133.729 118.843 134.739 113 134.739C107.15 134.739 101.533 133.726 96.311 131.873L96.3261 98.2639H97.4399C104.188 98.2639 109.677 92.7746 109.677 86.027V61.5425H103.002V71.538H96.3275V61.5536H89.6528V71.538H82.9781V61.5425H76.3035V86.0274C76.3035 92.7751 81.7927 98.2643 88.5404 98.2643H89.6515L89.6377 128.938C73.7893 120.532 62.9683 103.861 62.9683 84.7067C62.9679 57.1189 85.4122 34.6747 113 34.6747C122.371 34.6747 131.506 37.28 139.418 42.2095L142.947 36.5445C133.976 30.9547 123.62 28 113 28C83.9179 28 59.8838 50.0064 56.6639 78.2407H23.5958L9.51487 134.565V141.65C9.51487 148.014 12.0757 153.789 16.2171 158.007V241.325H6.23315V248H219.767V241.325H209.727ZM209.755 141.65C209.755 150.851 202.27 158.337 193.068 158.337C183.867 158.337 176.382 150.851 176.382 141.65H176.3L175.937 138.327H209.755V141.65ZM197.137 84.9154L208.822 131.652H175.206L170.092 84.9154H197.137ZM165.657 105.748L168.491 131.652H144.775C154.081 125.333 161.417 116.322 165.657 105.748ZM169.222 138.327L169.683 142.539C169.219 151.328 161.924 158.337 153.02 158.337C144 158.337 136.633 151.141 136.348 142.189L136.346 138.327H169.222V138.327ZM122.998 82.9989C122.998 74.3694 127.11 64.7548 133.01 64.7548C138.911 64.7548 143.022 74.3694 143.022 82.9989C143.022 91.7093 139.654 96.1258 133.01 96.1258C126.367 96.1258 122.998 91.7089 122.998 82.9989ZM113 141.414C118.799 141.414 124.398 140.537 129.671 138.912L129.672 141.65H129.659C129.659 150.851 122.174 158.337 112.972 158.337C104.108 158.337 96.8027 151.425 96.3132 142.59L96.3115 138.907C101.59 140.535 107.194 141.414 113 141.414V141.414ZM88.5399 91.5896C85.4727 91.5896 82.9777 89.0946 82.9777 86.0274V78.2123H103.002V86.0274C103.002 89.0946 100.507 91.5896 97.4395 91.5896H88.5399ZM92.9759 153.749C97.0786 160.521 104.52 165.012 112.972 165.012C121.46 165.012 128.905 160.462 132.996 153.673C137.088 160.462 144.533 165.012 153.02 165.012C161.508 165.012 168.953 160.462 173.044 153.673C177.136 160.462 184.581 165.012 193.068 165.012C196.639 165.012 200.023 164.204 203.052 162.766V171.047H22.8918V162.766C25.9212 164.204 29.3057 165.012 32.8762 165.012C41.3833 165.012 48.8425 160.442 52.9279 153.627C57.0132 160.442 64.4728 165.012 72.9799 165.012C81.4323 165.012 88.8732 160.521 92.9759 153.749ZM56.2932 141.334L56.6274 138.327H72.9799V131.652H57.3692L60.2678 105.564C65.6952 119.237 76.2928 130.316 89.6359 136.374L89.6386 142.592C89.1487 151.425 81.8439 158.337 72.9799 158.337C63.7787 158.337 56.2932 150.851 56.2932 141.65V141.334ZM28.8074 84.9154H55.8465L50.6536 131.652H17.1231L28.8074 84.9154ZM16.1895 141.65V138.327H49.5629V141.65C49.5629 150.851 42.0775 158.337 32.8762 158.337C23.675 158.337 16.1895 150.851 16.1895 141.65ZM82.9639 241.325H22.8918V221.301H82.9639V241.325ZM82.9639 214.627H22.8918V177.721H82.9639V214.627ZM136.306 241.325H89.6386V221.301V177.721H136.306V241.325ZM203.052 241.325H142.98V221.301H203.052V241.325Z" fill="black"/>
<path d="M102.96 201.291H109.635V214.64H102.96V201.291Z" fill="black"/>
<path d="M116.31 201.291H122.984V214.64H116.31V201.291Z" fill="black"/>
</g>
<defs>
<clipPath id="clip0">
<path d="M3 28H223V168C223 212.183 187.183 248 143 248H83C38.8172 248 3 212.183 3 168V28Z" fill="white"/>
</clipPath>
</defs>
</svg>
