<svg width="1440" height="306" viewBox="0 0 1440 306" fill="none" xmlns="http://www.w3.org/2000/svg">
<g filter="url(#filter0_d)">
<path d="M-33 -4H-37V0V182.7C-37 226.496 -1.49619 262 42.3 262C86.0962 262 121.6 226.496 121.6 182.7V0V-4H117.6H-33Z" fill="#D95C47" stroke="black" stroke-width="8"/>
<path d="M117.6 -4H113.6V0V182.7C113.6 226.496 149.104 262 192.9 262C236.696 262 272.2 226.496 272.2 182.7V0V-4H268.2H117.6Z" fill="white" stroke="black" stroke-width="8"/>
<path d="M268.2 -4H264.2V0V182.7C264.2 226.496 299.704 262 343.5 262C387.296 262 422.8 226.496 422.8 182.7V0V-4H418.8H268.2Z" fill="#D95C47" stroke="black" stroke-width="8"/>
<path d="M418.8 -4H414.8V0V182.7C414.8 226.496 450.304 262 494.1 262C537.896 262 573.4 226.496 573.4 182.7V0V-4H569.4H418.8Z" fill="white" stroke="black" stroke-width="8"/>
<path d="M569.4 -4H565.4V0V182.7C565.4 226.496 600.904 262 644.7 262C688.496 262 724 226.496 724 182.7V0V-4H720H569.4Z" fill="#D95C47" stroke="black" stroke-width="8"/>
<path d="M720 -4H716V0V182.7C716 226.496 751.504 262 795.3 262C839.096 262 874.6 226.496 874.6 182.7V0V-4H870.6H720Z" fill="white" stroke="black" stroke-width="8"/>
<path d="M870.6 -4H866.6V0V182.7C866.6 226.496 902.104 262 945.9 262C989.696 262 1025.2 226.496 1025.2 182.7V0V-4H1021.2H870.6Z" fill="#D95C47" stroke="black" stroke-width="8"/>
<path d="M1021.2 -4H1017.2V0V182.7C1017.2 226.496 1052.7 262 1096.5 262C1140.3 262 1175.8 226.496 1175.8 182.7V0V-4H1171.8H1021.2Z" fill="white" stroke="black" stroke-width="8"/>
<path d="M1171.8 -4H1167.8V0V182.7C1167.8 226.496 1203.3 262 1247.1 262C1290.9 262 1326.4 226.496 1326.4 182.7V0V-4H1322.4H1171.8Z" fill="#D95C47" stroke="black" stroke-width="8"/>
<path d="M1322.4 -4H1318.4V0V182.7C1318.4 226.496 1353.9 262 1397.7 262C1441.5 262 1477 226.496 1477 182.7V0V-4H1473H1322.4Z" fill="white" stroke="black" stroke-width="8"/>
</g>
<defs>
<filter id="filter0_d" x="-41" y="-8" width="1522" height="314" filterUnits="userSpaceOnUse" color-interpolation-filters="sRGB">
<feFlood flood-opacity="0" result="BackgroundImageFix"/>
<feColorMatrix in="SourceAlpha" type="matrix" values="0 0 0 0 0 0 0 0 0 0 0 0 0 0 0 0 0 0 127 0"/>
<feOffset dy="40"/>
<feColorMatrix type="matrix" values="0 0 0 0 0 0 0 0 0 0 0 0 0 0 0 0 0 0 0.15 0"/>
<feBlend mode="normal" in2="BackgroundImageFix" result="effect1_dropShadow"/>
<feBlend mode="normal" in="SourceGraphic" in2="effect1_dropShadow" result="shape"/>
</filter>
</defs>
</svg>
