<svg width="1291" height="953" viewBox="0 0 1291 953" fill="none" xmlns="http://www.w3.org/2000/svg">
<g filter="url(#filter0_d)">
<path d="M0 22C0 9.84976 9.84973 0 22 0H1259C1271.15 0 1281 9.84974 1281 22V745H0V22Z" fill="white"/>
<path d="M10 22C10 15.3726 15.3726 10 22 10H1259C1265.63 10 1271 15.3726 1271 22V735H10V22Z" stroke="black" stroke-width="20"/>
</g>
<g filter="url(#filter1_d)">
<path d="M557 810H725.5L766 930H516L557 810Z" fill="black"/>
</g>
<g filter="url(#filter2_d)">
<rect x="438" y="925" width="400" height="25" rx="5" fill="#BCBCBC"/>
</g>
<g filter="url(#filter3_d)">
<path d="M0 745H1281V815C1281 827.15 1271.15 837 1259 837H22C9.84971 837 0 827.15 0 815V745Z" fill="#BCBCBC"/>
</g>
<path d="M140.252 117H126.932L112.832 95.64V117H99.5117V74.52H112.832L126.932 96.24V74.52H140.252V117ZM179.03 99.78C179.03 100.7 178.97 101.58 178.85 102.42H157.43C157.63 105.34 158.85 106.8 161.09 106.8C162.53 106.8 163.57 106.14 164.21 104.82H178.31C177.83 107.22 176.81 109.38 175.25 111.3C173.73 113.18 171.79 114.68 169.43 115.8C167.11 116.88 164.55 117.42 161.75 117.42C158.39 117.42 155.39 116.72 152.75 115.32C150.15 113.92 148.11 111.92 146.63 109.32C145.19 106.68 144.47 103.6 144.47 100.08C144.47 96.56 145.19 93.5 146.63 90.9C148.11 88.26 150.15 86.24 152.75 84.84C155.39 83.44 158.39 82.74 161.75 82.74C165.11 82.74 168.09 83.44 170.69 84.84C173.33 86.2 175.37 88.16 176.81 90.72C178.29 93.28 179.03 96.3 179.03 99.78ZM165.53 96.6C165.53 95.48 165.17 94.64 164.45 94.08C163.73 93.48 162.83 93.18 161.75 93.18C159.39 93.18 158.01 94.32 157.61 96.6H165.53ZM181.442 100.08C181.442 96.52 182.042 93.44 183.242 90.84C184.482 88.2 186.162 86.2 188.282 84.84C190.402 83.44 192.782 82.74 195.422 82.74C197.622 82.74 199.522 83.2 201.122 84.12C202.722 85 203.942 86.22 204.782 87.78V83.16H218.042V117H204.782V112.38C203.942 113.94 202.722 115.18 201.122 116.1C199.522 116.98 197.622 117.42 195.422 117.42C192.782 117.42 190.402 116.74 188.282 115.38C186.162 113.98 184.482 111.98 183.242 109.38C182.042 106.74 181.442 103.64 181.442 100.08ZM204.782 100.08C204.782 98.28 204.322 96.88 203.402 95.88C202.482 94.88 201.302 94.38 199.862 94.38C198.422 94.38 197.242 94.88 196.322 95.88C195.402 96.88 194.942 98.28 194.942 100.08C194.942 101.88 195.402 103.28 196.322 104.28C197.242 105.28 198.422 105.78 199.862 105.78C201.302 105.78 202.482 105.28 203.402 104.28C204.322 103.28 204.782 101.88 204.782 100.08ZM237.343 89.4C238.703 87.44 240.363 85.88 242.323 84.72C244.283 83.52 246.323 82.92 248.443 82.92V97.14H244.663C242.143 97.14 240.283 97.58 239.083 98.46C237.923 99.34 237.343 100.9 237.343 103.14V117H224.023V83.16H237.343V89.4ZM280.471 95.22C283.031 95.82 285.011 97.06 286.411 98.94C287.851 100.78 288.571 102.92 288.571 105.36C288.571 109.08 287.331 111.96 284.851 114C282.411 116 278.891 117 274.291 117H252.031V74.52H273.691C278.011 74.52 281.411 75.46 283.891 77.34C286.371 79.22 287.611 81.96 287.611 85.56C287.611 88.04 286.951 90.14 285.631 91.86C284.351 93.54 282.631 94.66 280.471 95.22ZM265.351 91.08H270.511C271.711 91.08 272.591 90.84 273.151 90.36C273.751 89.88 274.051 89.14 274.051 88.14C274.051 87.1 273.751 86.34 273.151 85.86C272.591 85.34 271.711 85.08 270.511 85.08H265.351V91.08ZM271.411 106.32C272.611 106.32 273.491 106.1 274.051 105.66C274.651 105.18 274.951 104.42 274.951 103.38C274.951 101.34 273.771 100.32 271.411 100.32H265.351V106.32H271.411ZM328.867 83.16V117H315.547V111.84C314.507 113.44 313.107 114.74 311.347 115.74C309.627 116.74 307.567 117.24 305.167 117.24C301.287 117.24 298.247 115.94 296.047 113.34C293.887 110.74 292.807 107.22 292.807 102.78V83.16H306.067V101.1C306.067 102.7 306.487 103.98 307.327 104.94C308.207 105.86 309.367 106.32 310.807 106.32C312.287 106.32 313.447 105.86 314.287 104.94C315.127 103.98 315.547 102.7 315.547 101.1V83.16H328.867ZM373.103 83.16L351.443 133.2H336.863L345.383 115.32L331.283 83.16H346.103L352.463 100.32L358.403 83.16H373.103Z" fill="black"/>
<path d="M647 800C654.083 792.917 654.083 781.458 647 774.583L621.583 800C628.458 807.083 639.917 807.083 647 800ZM646.167 780.417C647.417 780.417 648.25 781.25 648.25 782.5C648.25 783.75 647.417 784.583 646.167 784.583C644.917 784.583 644.083 783.75 644.083 782.5C644.083 781.25 644.917 780.417 646.167 780.417ZM646.167 788.75C647.417 788.75 648.25 789.583 648.25 790.833C648.25 792.083 647.417 792.917 646.167 792.917C644.917 792.917 644.083 792.083 644.083 790.833C644.083 789.583 644.917 788.75 646.167 788.75ZM637.833 788.75C639.083 788.75 639.917 789.583 639.917 790.833C639.917 792.083 639.083 792.917 637.833 792.917C636.583 792.917 635.75 792.083 635.75 790.833C635.75 789.583 636.583 788.75 637.833 788.75ZM637.833 797.083C639.083 797.083 639.917 797.917 639.917 799.167C639.917 800.417 639.083 801.25 637.833 801.25C636.583 801.25 635.75 800.417 635.75 799.167C635.75 797.917 636.583 797.083 637.833 797.083ZM629.5 801.25C628.25 801.25 627.417 800.417 627.417 799.167C627.417 797.917 628.25 797.083 629.5 797.083C630.75 797.083 631.583 797.917 631.583 799.167C631.583 800.417 630.75 801.25 629.5 801.25ZM651.583 804.583C642 814.167 626.583 814.167 617 804.583L619.917 801.667C627.833 809.583 640.542 809.583 648.458 801.667C656.375 793.75 656.375 781.042 648.458 773.125L651.583 770C660.958 779.583 660.958 795 651.583 804.583Z" fill="black"/>
<defs>
<filter id="filter0_d" x="0" y="0" width="1291" height="755" filterUnits="userSpaceOnUse" color-interpolation-filters="sRGB">
<feFlood flood-opacity="0" result="BackgroundImageFix"/>
<feColorMatrix in="SourceAlpha" type="matrix" values="0 0 0 0 0 0 0 0 0 0 0 0 0 0 0 0 0 0 127 0"/>
<feOffset dx="10" dy="10"/>
<feColorMatrix type="matrix" values="0 0 0 0 0 0 0 0 0 0 0 0 0 0 0 0 0 0 0.15 0"/>
<feBlend mode="normal" in2="BackgroundImageFix" result="effect1_dropShadow"/>
<feBlend mode="normal" in="SourceGraphic" in2="effect1_dropShadow" result="shape"/>
</filter>
<filter id="filter1_d" x="516" y="810" width="260" height="130" filterUnits="userSpaceOnUse" color-interpolation-filters="sRGB">
<feFlood flood-opacity="0" result="BackgroundImageFix"/>
<feColorMatrix in="SourceAlpha" type="matrix" values="0 0 0 0 0 0 0 0 0 0 0 0 0 0 0 0 0 0 127 0"/>
<feOffset dx="10" dy="10"/>
<feColorMatrix type="matrix" values="0 0 0 0 0 0 0 0 0 0 0 0 0 0 0 0 0 0 0.15 0"/>
<feBlend mode="normal" in2="BackgroundImageFix" result="effect1_dropShadow"/>
<feBlend mode="normal" in="SourceGraphic" in2="effect1_dropShadow" result="shape"/>
</filter>
<filter id="filter2_d" x="438" y="925" width="410" height="35" filterUnits="userSpaceOnUse" color-interpolation-filters="sRGB">
<feFlood flood-opacity="0" result="BackgroundImageFix"/>
<feColorMatrix in="SourceAlpha" type="matrix" values="0 0 0 0 0 0 0 0 0 0 0 0 0 0 0 0 0 0 127 0"/>
<feOffset dx="10" dy="10"/>
<feColorMatrix type="matrix" values="0 0 0 0 0 0 0 0 0 0 0 0 0 0 0 0 0 0 0.15 0"/>
<feBlend mode="normal" in2="BackgroundImageFix" result="effect1_dropShadow"/>
<feBlend mode="normal" in="SourceGraphic" in2="effect1_dropShadow" result="shape"/>
</filter>
<filter id="filter3_d" x="0" y="745" width="1291" height="102" filterUnits="userSpaceOnUse" color-interpolation-filters="sRGB">
<feFlood flood-opacity="0" result="BackgroundImageFix"/>
<feColorMatrix in="SourceAlpha" type="matrix" values="0 0 0 0 0 0 0 0 0 0 0 0 0 0 0 0 0 0 127 0"/>
<feOffset dx="10" dy="10"/>
<feColorMatrix type="matrix" values="0 0 0 0 0 0 0 0 0 0 0 0 0 0 0 0 0 0 0.15 0"/>
<feBlend mode="normal" in2="BackgroundImageFix" result="effect1_dropShadow"/>
<feBlend mode="normal" in="SourceGraphic" in2="effect1_dropShadow" result="shape"/>
</filter>
</defs>
</svg>
