<svg width="382" height="179" viewBox="0 0 382 179" fill="none" xmlns="http://www.w3.org/2000/svg">
<g filter="url(#filter0_d)">
<g filter="url(#filter1_d)">
<path d="M117.6 270H121.6V266L121.6 83.3002C121.6 39.504 86.0962 4.00015 42.3 4.00015C-1.49622 4.00015 -37 39.504 -37 83.3002L-37 266V270H-33H117.6Z" fill="#ADFFC4" stroke="black" stroke-width="8"/>
<path d="M213.6 327H217.6V323L217.6 140.3C217.6 96.5039 182.096 61 138.3 61C94.5038 61 59 96.5039 59 140.3L59 323V327H63H213.6Z" fill="#C2FFAD" stroke="black" stroke-width="8"/>
</g>
<g filter="url(#filter2_d)">
<path d="M343.6 370H347.6V366V183.3C347.6 139.504 312.096 104 268.3 104C224.504 104 189 139.504 189 183.3L189 366V370H193H343.6Z" fill="#ADFFC4" stroke="black" stroke-width="8"/>
</g>
</g>
<defs>
<filter id="filter0_d" x="-41" y="0.000152588" width="422.6" height="394" filterUnits="userSpaceOnUse" color-interpolation-filters="sRGB">
<feFlood flood-opacity="0" result="BackgroundImageFix"/>
<feColorMatrix in="SourceAlpha" type="matrix" values="0 0 0 0 0 0 0 0 0 0 0 0 0 0 0 0 0 0 127 0"/>
<feOffset dx="30" dy="20"/>
<feColorMatrix type="matrix" values="0 0 0 0 0 0 0 0 0 0 0 0 0 0 0 0 0 0 0.15 0"/>
<feBlend mode="normal" in2="BackgroundImageFix" result="effect1_dropShadow"/>
<feBlend mode="normal" in="SourceGraphic" in2="effect1_dropShadow" result="shape"/>
</filter>
<filter id="filter1_d" x="-41" y="0.000152588" width="262.6" height="371" filterUnits="userSpaceOnUse" color-interpolation-filters="sRGB">
<feFlood flood-opacity="0" result="BackgroundImageFix"/>
<feColorMatrix in="SourceAlpha" type="matrix" values="0 0 0 0 0 0 0 0 0 0 0 0 0 0 0 0 0 0 127 0"/>
<feOffset dy="40"/>
<feColorMatrix type="matrix" values="0 0 0 0 0 0 0 0 0 0 0 0 0 0 0 0 0 0 0.15 0"/>
<feBlend mode="normal" in2="BackgroundImageFix" result="effect1_dropShadow"/>
<feBlend mode="normal" in="SourceGraphic" in2="effect1_dropShadow" result="shape"/>
</filter>
<filter id="filter2_d" x="185" y="100" width="166.6" height="314" filterUnits="userSpaceOnUse" color-interpolation-filters="sRGB">
<feFlood flood-opacity="0" result="BackgroundImageFix"/>
<feColorMatrix in="SourceAlpha" type="matrix" values="0 0 0 0 0 0 0 0 0 0 0 0 0 0 0 0 0 0 127 0"/>
<feOffset dy="40"/>
<feColorMatrix type="matrix" values="0 0 0 0 0 0 0 0 0 0 0 0 0 0 0 0 0 0 0.15 0"/>
<feBlend mode="normal" in2="BackgroundImageFix" result="effect1_dropShadow"/>
<feBlend mode="normal" in="SourceGraphic" in2="effect1_dropShadow" result="shape"/>
</filter>
</defs>
</svg>
